{"glyphs":{"0":{"ha":1376,"x_min":167,"x_max":1667,"o":"m 185 47 l 210 114 l 1367 114 l 1340 47 l 185 47 m 219 139 l 243 201 l 1400 201 l 1376 139 l 219 139 m 432 693 l 444 726 l 1601 726 l 1589 693 l 432 693 m 442 786 l 419 813 l 1633 813 l 1624 786 l 442 786 m 1322 0 l 167 0 l 176 26 l 1332 26 l 1322 0 m 351 897 l 1667 897 l 1658 878 l 367 878 l 351 897 m 1033 232 l 1056 289 l 1433 289 l 1411 232 l 1033 232 m 256 232 l 276 289 l 653 289 l 631 232 l 256 232 m 1069 324 l 1089 376 l 1467 376 l 1446 324 l 1069 324 m 290 324 l 310 376 l 686 376 l 667 324 l 290 324 m 1104 417 l 1122 464 l 1500 464 l 1482 417 l 1104 417 m 325 417 l 343 464 l 719 464 l 701 417 l 325 417 m 1140 508 l 1157 551 l 1533 551 l 1517 508 l 1140 508 m 361 508 l 378 551 l 754 551 l 738 508 l 361 508 m 1176 601 l 1190 639 l 1568 639 l 1553 601 l 1176 601 m 397 601 l 411 639 l 788 639 l 774 601 l 397 601 z "},"1":{"ha":682,"x_min":82,"x_max":888,"o":"m 99 47 l 125 114 l 671 114 l 644 47 l 99 47 m 135 139 l 158 201 l 704 201 l 681 139 l 135 139 m 254 232 l 276 289 l 653 289 l 631 232 l 254 232 m 290 324 l 310 376 l 686 376 l 667 324 l 290 324 m 325 417 l 343 464 l 719 464 l 701 417 l 325 417 m 361 508 l 378 551 l 754 551 l 738 508 l 361 508 m 82 0 l 92 26 l 638 26 l 628 0 l 82 0 m 397 601 l 411 639 l 788 639 l 774 601 l 397 601 m 432 693 l 444 726 l 821 726 l 808 693 l 432 693 m 442 786 l 419 813 l 854 813 l 844 786 l 442 786 m 888 897 l 879 878 l 367 878 l 351 897 l 888 897 z "},"2":{"ha":1375,"x_min":165,"x_max":1668,"o":"m 183 47 l 210 114 l 1363 114 l 1336 47 l 183 47 m 219 139 l 243 201 l 1396 201 l 1372 139 l 219 139 m 325 417 l 343 464 l 1501 464 l 1483 417 l 325 417 m 671 338 l 665 324 l 289 324 l 310 376 l 1468 376 l 1453 338 l 671 338 m 360 508 l 376 551 l 1535 551 l 1518 508 l 360 508 m 432 693 l 444 726 l 1603 726 l 1590 693 l 432 693 m 442 786 l 419 813 l 1635 813 l 1625 786 l 442 786 m 1319 0 l 165 0 l 175 26 l 1329 26 l 1319 0 m 1668 897 l 1660 878 l 367 878 l 351 897 l 1668 897 m 254 232 l 276 289 l 651 289 l 629 232 l 254 232 m 1176 601 l 1190 639 l 1569 639 l 1554 601 l 1176 601 z "},"3":{"ha":1375,"x_min":165,"x_max":1668,"o":"m 182 47 l 208 114 l 1368 114 l 1342 47 l 182 47 m 218 139 l 242 201 l 1401 201 l 1378 139 l 218 139 m 325 417 l 343 464 l 1501 464 l 1483 417 l 325 417 m 1075 338 l 294 338 l 310 376 l 1468 376 l 1447 324 l 1069 324 l 1075 338 m 360 508 l 376 551 l 1535 551 l 1518 508 l 360 508 m 510 693 l 483 726 l 1603 726 l 1590 693 l 510 693 m 438 786 l 417 813 l 1635 813 l 1625 786 l 438 786 m 1324 0 l 165 0 l 175 26 l 1333 26 l 1324 0 m 1668 897 l 1660 878 l 367 878 l 351 897 l 1668 897 m 1033 232 l 1056 289 l 1435 289 l 1413 232 l 1033 232 m 1176 601 l 1190 639 l 1569 639 l 1554 601 l 1176 601 z "},"4":{"ha":1376,"x_min":296,"x_max":1667,"o":"m 326 417 l 344 464 l 1500 464 l 1482 417 l 326 417 m 1069 324 l 1075 338 l 296 338 l 311 376 l 1467 376 l 1446 324 l 1069 324 m 361 508 l 378 551 l 1533 551 l 1517 508 l 361 508 m 964 47 l 989 114 l 1367 114 l 1340 47 l 964 47 m 999 139 l 1022 201 l 1400 201 l 1376 139 l 999 139 m 1035 232 l 1056 289 l 1433 289 l 1411 232 l 1035 232 m 397 601 l 413 639 l 789 639 l 774 601 l 397 601 m 1176 601 l 1192 639 l 1568 639 l 1553 601 l 1176 601 m 432 693 l 444 726 l 822 726 l 810 693 l 432 693 m 1213 693 l 1225 726 l 1601 726 l 1589 693 l 1213 693 m 442 786 l 419 813 l 854 813 l 844 786 l 442 786 m 351 897 l 888 897 l 879 878 l 367 878 l 351 897 m 1322 0 l 946 0 l 956 26 l 1332 26 l 1322 0 m 1247 786 l 1257 813 l 1633 813 l 1624 786 l 1247 786 m 1282 878 l 1290 897 l 1667 897 l 1658 878 l 1282 878 z "},"5":{"ha":1375,"x_min":167,"x_max":1532,"o":"m 183 47 l 210 114 l 1365 114 l 1339 47 l 183 47 m 219 139 l 243 201 l 1399 201 l 1375 139 l 219 139 m 326 417 l 344 464 l 1499 464 l 1481 417 l 326 417 m 1068 324 l 1074 338 l 296 338 l 311 376 l 1465 376 l 1444 324 l 1068 324 m 361 508 l 378 551 l 1532 551 l 1515 508 l 361 508 m 432 693 l 444 726 l 1396 726 l 1383 693 l 432 693 m 1321 0 l 167 0 l 176 26 l 1331 26 l 1321 0 m 442 786 l 419 813 l 1429 813 l 1419 786 l 442 786 m 1032 232 l 1054 289 l 1432 289 l 1410 232 l 1032 232 m 351 897 l 1463 897 l 1454 878 l 367 878 l 351 897 m 397 601 l 413 639 l 788 639 l 774 601 l 397 601 z "},"6":{"ha":1375,"x_min":167,"x_max":1667,"o":"m 185 47 l 210 114 l 1367 114 l 1340 47 l 185 47 m 219 139 l 243 201 l 1400 201 l 1376 139 l 219 139 m 672 338 l 667 324 l 290 324 l 310 376 l 1467 376 l 1446 324 l 1069 324 l 1075 338 l 672 338 m 325 417 l 343 464 l 1500 464 l 1482 417 l 325 417 m 361 508 l 378 551 l 1533 551 l 1517 508 l 361 508 m 432 693 l 444 726 l 1600 726 l 1588 693 l 432 693 m 442 786 l 419 813 l 1633 813 l 1624 786 l 442 786 m 1322 0 l 167 0 l 176 26 l 1332 26 l 1322 0 m 1667 897 l 1658 878 l 367 878 l 351 897 l 1667 897 m 1033 232 l 1056 289 l 1433 289 l 1411 232 l 1033 232 m 256 232 l 276 289 l 653 289 l 631 232 l 256 232 m 397 601 l 411 639 l 788 639 l 774 601 l 397 601 z "},"7":{"ha":1375,"x_min":165,"x_max":1664,"o":"m 517 693 l 489 726 l 1597 726 l 1585 693 l 517 693 m 228 47 l 315 114 l 832 114 l 743 47 l 228 47 m 349 139 l 432 201 l 949 201 l 865 139 l 349 139 m 442 786 l 419 813 l 1631 813 l 1621 786 l 442 786 m 472 232 l 547 289 l 1065 289 l 990 232 l 472 232 m 593 324 l 664 376 l 1182 376 l 1113 324 l 593 324 m 1664 897 l 1656 878 l 367 878 l 351 897 l 1664 897 m 717 417 l 779 464 l 1299 464 l 1236 417 l 717 417 m 839 508 l 896 551 l 1415 551 l 1357 508 l 839 508 m 963 601 l 1013 639 l 1532 639 l 1482 601 l 963 601 m 681 0 l 165 0 l 200 26 l 715 26 l 681 0 z "},"8":{"ha":1375,"x_min":167,"x_max":1667,"o":"m 185 47 l 210 114 l 1367 114 l 1340 47 l 185 47 m 219 139 l 243 201 l 1400 201 l 1376 139 l 219 139 m 672 338 l 667 324 l 290 324 l 310 376 l 1467 376 l 1446 324 l 1069 324 l 1075 338 l 672 338 m 325 417 l 343 464 l 1500 464 l 1482 417 l 325 417 m 361 508 l 378 551 l 1533 551 l 1517 508 l 361 508 m 432 693 l 444 726 l 1601 726 l 1589 693 l 432 693 m 442 786 l 419 813 l 1633 813 l 1624 786 l 442 786 m 167 0 l 176 26 l 1332 26 l 1322 0 l 167 0 m 1667 897 l 1658 878 l 367 878 l 351 897 l 1667 897 m 1033 232 l 1056 289 l 1433 289 l 1411 232 l 1033 232 m 256 232 l 276 289 l 653 289 l 631 232 l 256 232 m 397 601 l 411 639 l 788 639 l 774 601 l 397 601 m 1176 601 l 1190 639 l 1568 639 l 1553 601 l 1176 601 z "},"9":{"ha":1375,"x_min":167,"x_max":1667,"o":"m 183 47 l 210 114 l 1367 114 l 1340 47 l 183 47 m 219 139 l 243 201 l 1400 201 l 1376 139 l 219 139 m 326 417 l 344 464 l 1500 464 l 1482 417 l 326 417 m 1075 338 l 296 338 l 311 376 l 1467 376 l 1446 324 l 1069 324 l 1075 338 m 361 508 l 378 551 l 1533 551 l 1517 508 l 361 508 m 432 693 l 444 726 l 1601 726 l 1589 693 l 432 693 m 442 786 l 419 813 l 1633 813 l 1624 786 l 442 786 m 1322 0 l 167 0 l 176 26 l 1332 26 l 1322 0 m 1667 897 l 1658 878 l 367 878 l 351 897 l 1667 897 m 1033 232 l 1056 289 l 1433 289 l 1411 232 l 1033 232 m 1176 601 l 1190 639 l 1568 639 l 1553 601 l 1176 601 m 397 601 l 413 639 l 788 639 l 774 601 l 397 601 z "}," ":{"ha":747,"x_min":0,"x_max":0,"o":""},"!":{"ha":599,"x_min":165,"x_max":888,"o":"m 182 47 l 208 114 l 588 114 l 561 47 l 182 47 m 218 139 l 242 201 l 621 201 l 597 139 l 218 139 m 326 417 l 344 464 l 721 464 l 703 417 l 326 417 m 361 508 l 378 551 l 754 551 l 738 508 l 361 508 m 672 338 l 296 338 l 311 376 l 688 376 l 672 338 m 397 601 l 413 639 l 789 639 l 774 601 l 397 601 m 432 693 l 444 726 l 822 726 l 810 693 l 432 693 m 442 786 l 419 813 l 854 813 l 844 786 l 442 786 m 888 897 l 879 878 l 367 878 l 351 897 l 888 897 m 165 0 l 175 26 l 554 26 l 544 0 l 165 0 z "},"\"":{"ha":924,"x_min":321,"x_max":1214,"o":"m 757 693 l 769 726 l 1149 726 l 1136 693 l 757 693 m 321 693 l 335 726 l 714 726 l 700 693 l 321 693 m 792 786 l 801 813 l 1181 813 l 1171 786 l 792 786 m 357 786 l 368 813 l 747 813 l 736 786 l 357 786 m 826 878 l 835 897 l 1214 897 l 1206 878 l 826 878 m 393 878 l 400 896 l 779 896 l 772 878 l 393 878 m 465 601 l 479 639 l 650 639 l 604 601 l 465 601 m 900 601 l 914 639 l 1085 639 l 1038 601 l 900 601 m 497 514 l 432 514 l 446 551 l 543 551 l 497 514 m 932 515 l 867 515 l 881 551 l 976 551 l 932 515 z "},"#":{"ha":1418,"x_min":129,"x_max":1683,"o":"m 144 232 l 167 289 l 1524 289 l 1501 232 l 144 232 m 179 324 l 200 376 l 1557 376 l 1536 324 l 179 324 m 250 508 l 267 551 l 1624 551 l 1607 508 l 250 508 m 1486 190 l 1311 190 l 1292 139 l 915 139 l 935 190 l 679 190 l 660 139 l 283 139 l 303 190 l 129 190 l 133 201 l 1490 201 l 1486 190 m 286 601 l 301 639 l 1658 639 l 1643 601 l 286 601 m 1508 704 l 1683 704 l 1679 693 l 322 693 l 326 704 l 500 704 l 508 726 l 885 726 l 876 704 l 1132 704 l 1140 726 l 1517 726 l 1508 704 m 247 47 l 274 114 l 650 114 l 624 47 l 247 47 m 879 47 l 906 114 l 1282 114 l 1256 47 l 879 47 m 389 417 l 407 464 l 783 464 l 765 417 l 389 417 m 1021 417 l 1039 464 l 1415 464 l 1397 417 l 1021 417 m 531 786 l 540 813 l 917 813 l 907 786 l 531 786 m 1238 0 l 861 0 l 871 26 l 1247 26 l 1238 0 m 1163 786 l 1172 813 l 1549 813 l 1539 786 l 1163 786 m 606 0 l 229 0 l 239 26 l 615 26 l 606 0 m 1206 897 l 1582 897 l 1574 878 l 1197 878 l 1206 897 m 565 878 l 574 897 l 950 897 l 942 878 l 565 878 z "},"$":{"ha":1375,"x_min":167,"x_max":1665,"o":"m 183 47 l 210 114 l 1365 114 l 1339 47 l 183 47 m 219 139 l 243 201 l 1399 201 l 1375 139 l 219 139 m 326 417 l 344 464 l 1499 464 l 1481 417 l 326 417 m 1068 324 l 1074 338 l 296 338 l 311 376 l 1465 376 l 1444 324 l 1068 324 m 361 508 l 378 551 l 1532 551 l 1515 508 l 361 508 m 1321 0 l 933 0 l 915 -46 l 539 -46 l 557 0 l 167 0 l 176 26 l 1331 26 l 1321 0 m 432 693 l 444 726 l 1599 726 l 1586 693 l 432 693 m 442 786 l 419 813 l 1632 813 l 1622 786 l 442 786 m 468 -231 l 500 -149 l 876 -149 l 844 -231 l 468 -231 m 504 -137 l 533 -61 l 910 -61 l 881 -137 l 504 -137 m 1278 897 l 1665 897 l 1657 878 l 367 878 l 351 897 l 901 897 l 903 900 l 1279 900 l 1278 897 m 1032 232 l 1054 289 l 1432 289 l 1410 232 l 1032 232 m 397 601 l 413 639 l 788 639 l 774 601 l 397 601 m 929 971 l 936 988 l 1313 988 l 1306 971 l 929 971 m 964 1063 l 969 1075 l 1346 1075 l 1340 1063 l 964 1063 m 843 -236 l 467 -236 l 467 -235 l 843 -235 l 843 -236 z "},"%":{"ha":1269,"x_min":60,"x_max":1560,"o":"m 964 281 l 944 232 l 350 232 l 421 289 l 1307 289 l 1285 232 l 1046 232 l 1065 281 l 964 281 m 464 324 l 531 376 l 1340 376 l 1319 324 l 464 324 m 636 47 l 661 114 l 1239 114 l 1214 47 l 636 47 m 997 449 l 1368 449 l 1356 417 l 581 417 l 621 449 l 260 449 l 265 464 l 1017 464 l 997 449 m 282 508 l 299 551 l 1126 551 l 1072 508 l 282 508 m 919 168 l 1021 168 l 1033 201 l 1274 201 l 1249 139 l 671 139 l 694 201 l 932 201 l 919 168 m 561 617 l 663 617 l 671 639 l 1236 639 l 1189 601 l 318 601 l 333 639 l 569 639 l 561 617 m 118 47 l 201 114 l 578 114 l 494 47 l 118 47 m 233 139 l 311 201 l 688 201 l 610 139 l 233 139 m 693 693 l 706 726 l 944 726 l 933 697 l 969 726 l 1346 726 l 1304 693 l 693 693 m 1196 0 l 618 0 l 628 26 l 1206 26 l 1196 0 m 389 786 l 400 813 l 976 813 l 967 786 l 389 786 m 351 897 l 1010 897 l 1001 878 l 367 878 l 351 897 m 1044 786 l 1076 813 l 1453 813 l 1421 786 l 1044 786 m 436 0 l 60 0 l 93 26 l 469 26 l 436 0 m 354 693 l 367 726 l 604 726 l 592 693 l 354 693 m 1158 878 l 1183 897 l 1560 897 l 1535 878 l 1158 878 z "},"&":{"ha":1429,"x_min":167,"x_max":1635,"o":"m 185 47 l 210 114 l 1308 114 l 1283 47 l 185 47 m 219 139 l 243 201 l 1342 201 l 1318 139 l 219 139 m 325 417 l 343 464 l 1601 464 l 1583 417 l 325 417 m 672 338 l 667 324 l 290 324 l 310 376 l 1568 376 l 1553 338 l 1394 338 l 1389 324 l 1013 324 l 1018 338 l 672 338 m 361 508 l 378 551 l 1635 551 l 1618 508 l 361 508 m 432 693 l 444 726 l 1426 726 l 1414 693 l 432 693 m 1265 0 l 167 0 l 176 26 l 1275 26 l 1265 0 m 442 786 l 419 813 l 1460 813 l 1450 786 l 442 786 m 351 897 l 1493 897 l 1485 878 l 367 878 l 351 897 m 976 232 l 999 289 l 1375 289 l 1354 232 l 976 232 m 256 232 l 276 289 l 653 289 l 631 232 l 256 232 m 397 601 l 411 639 l 788 639 l 774 601 l 397 601 z "},"'":{"ha":489,"x_min":321,"x_max":779,"o":"m 321 693 l 335 726 l 714 726 l 700 693 l 321 693 m 357 786 l 368 813 l 747 813 l 736 786 l 357 786 m 393 878 l 400 896 l 779 896 l 772 878 l 393 878 m 465 601 l 479 639 l 650 639 l 604 601 l 465 601 m 497 514 l 432 514 l 446 551 l 543 551 l 497 514 z "},"(":{"ha":757,"x_min":56,"x_max":1047,"o":"m 74 47 l 100 114 l 746 114 l 719 47 l 74 47 m 110 139 l 133 201 l 779 201 l 756 139 l 110 139 m 322 693 l 335 726 l 981 726 l 968 693 l 322 693 m 144 232 l 167 289 l 542 289 l 519 232 l 144 232 m 179 324 l 200 376 l 575 376 l 556 324 l 179 324 m 215 417 l 233 464 l 608 464 l 590 417 l 215 417 m 703 0 l 56 0 l 65 26 l 713 26 l 703 0 m 357 786 l 367 813 l 1014 813 l 1004 786 l 357 786 m 250 508 l 267 551 l 643 551 l 626 508 l 250 508 m 286 601 l 301 639 l 676 639 l 663 601 l 286 601 m 1047 897 l 1039 878 l 392 878 l 400 897 l 1047 897 z "},")":{"ha":757,"x_min":56,"x_max":1047,"o":"m 72 47 l 99 114 l 747 114 l 721 47 l 72 47 m 108 139 l 132 201 l 781 201 l 757 139 l 108 139 m 321 693 l 333 726 l 982 726 l 969 693 l 321 693 m 414 232 l 436 289 l 814 289 l 792 232 l 414 232 m 450 324 l 469 376 l 847 376 l 826 324 l 450 324 m 485 417 l 503 464 l 881 464 l 863 417 l 485 417 m 703 0 l 56 0 l 65 26 l 713 26 l 703 0 m 357 786 l 367 813 l 1014 813 l 1004 786 l 357 786 m 521 508 l 538 551 l 914 551 l 897 508 l 521 508 m 557 601 l 571 639 l 949 639 l 933 601 l 557 601 m 392 878 l 400 897 l 1047 897 l 1039 878 l 392 878 z "},"*":{"ha":489,"x_min":357,"x_max":814,"o":"m 357 786 l 367 813 l 746 813 l 736 786 l 357 786 m 392 878 l 400 900 l 779 900 l 771 878 l 392 878 m 428 971 l 435 988 l 814 988 l 807 971 l 428 971 z "},"+":{"ha":715,"x_min":185,"x_max":921,"o":"m 215 417 l 233 464 l 888 464 l 869 417 l 215 417 m 839 338 l 622 338 l 617 324 l 394 324 l 400 338 l 185 338 l 200 376 l 854 376 l 839 338 m 250 508 l 267 551 l 921 551 l 904 508 l 250 508 m 324 139 l 347 201 l 569 201 l 546 139 l 324 139 m 360 232 l 381 289 l 603 289 l 582 232 l 360 232 m 501 601 l 517 639 l 739 639 l 724 601 l 501 601 m 536 693 l 549 726 l 771 726 l 758 693 l 536 693 z "},",":{"ha":489,"x_min":56,"x_max":511,"o":"m 72 47 l 99 114 l 478 114 l 451 47 l 72 47 m 108 139 l 132 201 l 511 201 l 488 139 l 108 139 m 56 0 l 65 26 l 444 26 l 435 0 l 378 -46 l 217 -46 l 235 0 l 56 0 m 182 -137 l 211 -61 l 360 -61 l 267 -137 l 182 -137 m 239 -160 l 174 -160 l 178 -149 l 253 -149 l 239 -160 z "},"-":{"ha":715,"x_min":185,"x_max":921,"o":"m 215 417 l 233 464 l 888 464 l 869 417 l 215 417 m 250 508 l 267 551 l 921 551 l 904 508 l 250 508 m 839 338 l 185 338 l 200 376 l 854 376 l 839 338 z "},".":{"ha":489,"x_min":56,"x_max":511,"o":"m 72 47 l 99 114 l 478 114 l 451 47 l 72 47 m 108 139 l 132 201 l 511 201 l 488 139 l 108 139 m 56 0 l 65 26 l 444 26 l 435 0 l 56 0 z "},"/":{"ha":1265,"x_min":56,"x_max":1556,"o":"m 115 47 l 199 114 l 575 114 l 492 47 l 115 47 m 229 139 l 308 201 l 685 201 l 606 139 l 229 139 m 346 232 l 418 289 l 794 289 l 722 232 l 346 232 m 461 324 l 528 376 l 904 376 l 838 324 l 461 324 m 578 417 l 638 464 l 1014 464 l 954 417 l 578 417 m 693 508 l 746 551 l 1122 551 l 1069 508 l 693 508 m 808 601 l 856 639 l 1232 639 l 1185 601 l 808 601 m 924 693 l 965 726 l 1342 726 l 1300 693 l 924 693 m 432 0 l 56 0 l 89 26 l 465 26 l 432 0 m 1040 786 l 1072 813 l 1449 813 l 1417 786 l 1040 786 m 1179 897 l 1556 897 l 1531 878 l 1154 878 l 1179 897 z "},":":{"ha":490,"x_min":57,"x_max":679,"o":"m 74 47 l 100 114 l 479 114 l 453 47 l 74 47 m 110 139 l 133 201 l 513 201 l 489 139 l 110 139 m 250 508 l 267 551 l 646 551 l 629 508 l 250 508 m 286 601 l 300 639 l 679 639 l 665 601 l 286 601 m 57 0 l 67 26 l 446 26 l 436 0 l 57 0 m 229 451 l 233 464 l 613 464 l 608 451 l 229 451 z "},";":{"ha":490,"x_min":57,"x_max":679,"o":"m 74 47 l 100 114 l 479 114 l 453 47 l 74 47 m 110 139 l 133 201 l 513 201 l 489 139 l 110 139 m 57 0 l 67 26 l 446 26 l 436 0 l 379 -46 l 218 -46 l 236 0 l 57 0 m 250 508 l 267 551 l 646 551 l 629 508 l 250 508 m 286 601 l 300 639 l 679 639 l 665 601 l 286 601 m 183 -137 l 213 -61 l 361 -61 l 268 -137 l 183 -137 m 608 451 l 229 451 l 233 464 l 613 464 l 608 451 m 240 -160 l 175 -160 l 179 -149 l 254 -149 l 240 -160 z "},"<":{"ha":876,"x_min":228,"x_max":1167,"o":"m 422 47 l 390 114 l 767 114 l 799 47 l 422 47 m 378 139 l 347 201 l 724 201 l 754 139 l 378 139 m 332 232 l 304 289 l 681 289 l 708 232 l 332 232 m 288 324 l 263 376 l 639 376 l 664 324 l 288 324 m 243 417 l 228 449 l 247 464 l 624 464 l 604 449 l 619 417 l 243 417 m 303 508 l 357 551 l 733 551 l 679 508 l 303 508 m 419 601 l 467 639 l 843 639 l 796 601 l 419 601 m 535 693 l 576 726 l 953 726 l 911 693 l 535 693 m 651 786 l 683 813 l 1060 813 l 1028 786 l 651 786 m 810 26 l 822 0 l 446 0 l 433 26 l 810 26 m 790 897 l 1167 897 l 1142 878 l 765 878 l 790 897 z "},"=":{"ha":782,"x_min":129,"x_max":1047,"o":"m 144 232 l 167 289 l 888 289 l 865 232 l 144 232 m 179 324 l 200 376 l 921 376 l 900 324 l 179 324 m 250 508 l 267 551 l 988 551 l 971 508 l 250 508 m 286 601 l 301 639 l 1022 639 l 1007 601 l 286 601 m 850 190 l 129 190 l 133 201 l 854 201 l 850 190 m 326 704 l 1047 704 l 1043 693 l 322 693 l 326 704 z "},">":{"ha":828,"x_min":56,"x_max":994,"o":"m 115 47 l 199 114 l 575 114 l 492 47 l 115 47 m 229 139 l 308 201 l 685 201 l 606 139 l 229 139 m 346 232 l 418 289 l 794 289 l 722 232 l 346 232 m 461 324 l 528 376 l 904 376 l 838 324 l 461 324 m 618 449 l 610 464 l 986 464 l 994 449 l 954 417 l 578 417 l 618 449 m 589 508 l 568 551 l 944 551 l 965 508 l 589 508 m 543 601 l 525 639 l 901 639 l 919 601 l 543 601 m 499 693 l 483 726 l 860 726 l 875 693 l 499 693 m 432 0 l 56 0 l 89 26 l 465 26 l 432 0 m 454 786 l 442 813 l 818 813 l 831 786 l 454 786 m 776 897 l 786 878 l 410 878 l 400 897 l 776 897 z "},"?":{"ha":1375,"x_min":165,"x_max":1668,"o":"m 325 417 l 343 464 l 1501 464 l 1483 417 l 325 417 m 360 508 l 376 551 l 1535 551 l 1518 508 l 360 508 m 1453 338 l 294 338 l 310 376 l 1468 376 l 1453 338 m 432 693 l 444 726 l 1603 726 l 1590 693 l 432 693 m 442 786 l 419 813 l 1635 813 l 1625 786 l 442 786 m 1668 897 l 1660 878 l 367 878 l 351 897 l 1668 897 m 182 47 l 208 114 l 588 114 l 561 47 l 182 47 m 218 139 l 242 201 l 621 201 l 597 139 l 218 139 m 1176 601 l 1190 639 l 1569 639 l 1554 601 l 1176 601 m 165 0 l 175 26 l 554 26 l 544 0 l 165 0 z "},"@":{"ha":1582,"x_min":7,"x_max":1956,"o":"m 38 -46 l 65 26 l 1210 26 l 1182 -46 l 38 -46 m 1151 -126 l 7 -126 l 32 -61 l 1176 -61 l 1151 -126 m 468 96 l 1236 96 l 1217 47 l 74 47 l 99 114 l 475 114 l 468 96 m 617 232 l 639 289 l 1688 289 l 1665 232 l 617 232 m 651 324 l 672 376 l 1721 376 l 1700 324 l 651 324 m 393 878 l 401 900 l 1922 900 l 1914 878 l 393 878 m 1506 796 l 738 796 l 733 786 l 357 786 l 368 813 l 1889 813 l 1878 786 l 1501 786 l 1506 796 m 428 971 l 435 988 l 1956 988 l 1949 971 l 428 971 m 722 508 l 739 551 l 1317 551 l 1300 508 l 722 508 m 108 139 l 133 201 l 508 201 l 485 139 l 108 139 m 758 601 l 774 639 l 1351 639 l 1336 601 l 758 601 m 144 232 l 167 289 l 543 289 l 521 232 l 144 232 m 179 324 l 200 376 l 576 376 l 556 324 l 179 324 m 1358 417 l 1376 464 l 1754 464 l 1736 417 l 1358 417 m 215 417 l 233 464 l 610 464 l 592 417 l 215 417 m 1394 508 l 1411 551 l 1788 551 l 1771 508 l 1394 508 m 250 508 l 267 551 l 643 551 l 626 508 l 250 508 m 1431 601 l 1444 639 l 1822 639 l 1807 601 l 1431 601 m 286 601 l 301 639 l 678 639 l 663 601 l 286 601 m 1465 693 l 1478 726 l 1856 726 l 1843 693 l 1465 693 m 322 693 l 335 726 l 711 726 l 699 693 l 322 693 m 1026 417 l 1044 464 l 1283 464 l 1265 417 l 1026 417 m 688 417 l 706 464 l 943 464 l 925 417 l 688 417 z "},"A":{"ha":1375,"x_min":167,"x_max":1667,"o":"m 290 324 l 310 376 l 1467 376 l 1446 324 l 290 324 m 325 417 l 343 464 l 1500 464 l 1482 417 l 325 417 m 653 288 l 632 232 l 256 232 l 276 289 l 1433 289 l 1411 232 l 1035 232 l 1056 288 l 653 288 m 432 693 l 444 726 l 1601 726 l 1589 693 l 432 693 m 739 510 l 1142 510 l 1157 551 l 1533 551 l 1517 508 l 361 508 l 378 551 l 754 551 l 739 510 m 442 786 l 419 813 l 1633 813 l 1624 786 l 442 786 m 1667 897 l 1658 878 l 367 878 l 351 897 l 1667 897 m 964 47 l 989 114 l 1367 114 l 1340 47 l 964 47 m 185 47 l 210 114 l 586 114 l 561 47 l 185 47 m 999 139 l 1022 201 l 1400 201 l 1376 139 l 999 139 m 219 139 l 243 201 l 619 201 l 596 139 l 219 139 m 1176 601 l 1190 639 l 1568 639 l 1553 601 l 1176 601 m 397 601 l 411 639 l 788 639 l 774 601 l 397 601 m 1322 0 l 946 0 l 956 26 l 1332 26 l 1322 0 m 543 0 l 167 0 l 176 26 l 553 26 l 543 0 z "},"B":{"ha":1376,"x_min":167,"x_max":1667,"o":"m 185 47 l 210 114 l 1365 114 l 1339 47 l 185 47 m 219 139 l 243 201 l 1399 201 l 1375 139 l 219 139 m 672 338 l 667 324 l 290 324 l 310 376 l 1465 376 l 1444 324 l 1068 324 l 1074 338 l 672 338 m 1493 447 l 1481 417 l 325 417 l 343 464 l 1319 464 l 1292 447 l 1493 447 m 361 508 l 378 551 l 1464 551 l 1393 508 l 361 508 m 432 693 l 444 726 l 1601 726 l 1589 693 l 432 693 m 442 786 l 419 813 l 1633 813 l 1624 786 l 442 786 m 167 0 l 176 26 l 1331 26 l 1321 0 l 167 0 m 1667 897 l 1658 878 l 367 878 l 351 897 l 1667 897 m 1032 232 l 1054 289 l 1432 289 l 1410 232 l 1032 232 m 256 232 l 276 289 l 653 289 l 631 232 l 256 232 m 1556 607 l 1546 601 l 1025 601 l 1088 639 l 1568 639 l 1556 607 m 397 601 l 411 639 l 788 639 l 774 601 l 397 601 z "},"C":{"ha":1372,"x_min":167,"x_max":1663,"o":"m 185 47 l 210 114 l 1361 114 l 1335 47 l 185 47 m 219 139 l 243 201 l 1394 201 l 1371 139 l 219 139 m 432 693 l 444 726 l 1596 726 l 1583 693 l 432 693 m 442 786 l 419 813 l 1629 813 l 1619 786 l 442 786 m 1318 0 l 167 0 l 176 26 l 1328 26 l 1318 0 m 1663 897 l 1654 878 l 367 878 l 351 897 l 1663 897 m 256 232 l 276 289 l 653 289 l 631 232 l 256 232 m 290 324 l 310 376 l 686 376 l 667 324 l 290 324 m 325 417 l 343 464 l 719 464 l 701 417 l 325 417 m 361 508 l 378 551 l 754 551 l 738 508 l 361 508 m 397 601 l 411 639 l 788 639 l 774 601 l 397 601 z "},"D":{"ha":1376,"x_min":167,"x_max":1667,"o":"m 219 139 l 243 201 l 1311 201 l 1207 139 l 219 139 m 185 47 l 210 114 l 1165 114 l 1054 47 l 185 47 m 432 693 l 444 726 l 1601 726 l 1589 693 l 432 693 m 442 786 l 419 813 l 1633 813 l 1624 786 l 442 786 m 1426 271 l 1361 232 l 846 232 l 936 289 l 1433 289 l 1426 271 m 1667 897 l 1658 878 l 367 878 l 351 897 l 1667 897 m 990 324 l 1074 376 l 1467 376 l 1446 324 l 990 324 m 167 0 l 176 26 l 1019 26 l 976 0 l 167 0 m 256 232 l 276 289 l 653 289 l 631 232 l 256 232 m 290 324 l 310 376 l 686 376 l 667 324 l 290 324 m 1104 417 l 1122 464 l 1500 464 l 1482 417 l 1104 417 m 325 417 l 343 464 l 719 464 l 701 417 l 325 417 m 1140 508 l 1157 551 l 1533 551 l 1517 508 l 1140 508 m 361 508 l 378 551 l 754 551 l 738 508 l 361 508 m 1176 601 l 1190 639 l 1568 639 l 1553 601 l 1176 601 m 397 601 l 411 639 l 788 639 l 774 601 l 397 601 z "},"E":{"ha":1376,"x_min":167,"x_max":1667,"o":"m 185 47 l 210 114 l 1365 114 l 1339 47 l 185 47 m 219 139 l 243 201 l 1399 201 l 1375 139 l 219 139 m 325 417 l 343 464 l 1500 464 l 1482 417 l 325 417 m 672 338 l 667 324 l 290 324 l 310 376 l 1467 376 l 1451 338 l 672 338 m 361 508 l 378 551 l 1533 551 l 1517 508 l 361 508 m 432 693 l 444 726 l 1600 726 l 1588 693 l 432 693 m 442 786 l 419 813 l 1633 813 l 1624 786 l 442 786 m 1322 0 l 167 0 l 176 26 l 1332 26 l 1322 0 m 1667 897 l 1658 878 l 367 878 l 351 897 l 1667 897 m 256 232 l 276 289 l 653 289 l 631 232 l 256 232 m 397 601 l 411 639 l 788 639 l 774 601 l 397 601 z "},"F":{"ha":1375,"x_min":167,"x_max":1665,"o":"m 325 417 l 343 464 l 1499 464 l 1481 417 l 325 417 m 672 338 l 667 324 l 290 324 l 310 376 l 1465 376 l 1450 338 l 672 338 m 361 508 l 378 551 l 1532 551 l 1515 508 l 361 508 m 432 693 l 444 726 l 1599 726 l 1586 693 l 432 693 m 442 786 l 419 813 l 1632 813 l 1622 786 l 442 786 m 1665 897 l 1657 878 l 367 878 l 351 897 l 1665 897 m 185 47 l 210 114 l 586 114 l 561 47 l 185 47 m 219 139 l 243 201 l 619 201 l 596 139 l 219 139 m 256 232 l 276 289 l 653 289 l 632 232 l 256 232 m 397 601 l 411 639 l 788 639 l 774 601 l 397 601 m 543 0 l 167 0 l 176 26 l 553 26 l 543 0 z "},"G":{"ha":1375,"x_min":167,"x_max":1665,"o":"m 185 47 l 210 114 l 1365 114 l 1339 47 l 185 47 m 219 139 l 243 201 l 1399 201 l 1375 139 l 219 139 m 432 693 l 444 726 l 1599 726 l 1586 693 l 432 693 m 442 786 l 419 813 l 1632 813 l 1622 786 l 442 786 m 1321 0 l 167 0 l 176 26 l 1331 26 l 1321 0 m 1074 338 l 885 338 l 900 376 l 1465 376 l 1444 324 l 1068 324 l 1074 338 m 915 417 l 933 464 l 1499 464 l 1481 417 l 915 417 m 1665 897 l 1657 878 l 367 878 l 351 897 l 1665 897 m 950 508 l 967 551 l 1532 551 l 1515 508 l 950 508 m 1032 232 l 1054 289 l 1432 289 l 1410 232 l 1032 232 m 256 232 l 276 289 l 653 289 l 631 232 l 256 232 m 290 324 l 310 376 l 686 376 l 667 324 l 290 324 m 325 417 l 343 464 l 719 464 l 701 417 l 325 417 m 361 508 l 378 551 l 754 551 l 738 508 l 361 508 m 397 601 l 411 639 l 788 639 l 774 601 l 397 601 z "},"H":{"ha":1376,"x_min":167,"x_max":1667,"o":"m 672 338 l 667 324 l 290 324 l 310 376 l 1467 376 l 1446 324 l 1069 324 l 1075 338 l 672 338 m 325 417 l 343 464 l 1500 464 l 1482 417 l 325 417 m 361 508 l 378 551 l 1533 551 l 1517 508 l 361 508 m 964 47 l 989 114 l 1367 114 l 1340 47 l 964 47 m 185 47 l 210 114 l 586 114 l 561 47 l 185 47 m 999 139 l 1022 201 l 1400 201 l 1376 139 l 999 139 m 219 139 l 243 201 l 619 201 l 596 139 l 219 139 m 1035 232 l 1056 289 l 1433 289 l 1411 232 l 1035 232 m 256 232 l 276 289 l 653 289 l 632 232 l 256 232 m 397 601 l 411 639 l 789 639 l 774 601 l 397 601 m 1176 601 l 1192 639 l 1568 639 l 1553 601 l 1176 601 m 432 693 l 444 726 l 822 726 l 810 693 l 432 693 m 1213 693 l 1225 726 l 1601 726 l 1589 693 l 1213 693 m 442 786 l 419 813 l 854 813 l 844 786 l 442 786 m 888 897 l 879 878 l 367 878 l 351 897 l 888 897 m 1322 0 l 946 0 l 956 26 l 1332 26 l 1322 0 m 543 0 l 167 0 l 176 26 l 553 26 l 543 0 m 1247 786 l 1257 813 l 1633 813 l 1624 786 l 1247 786 m 1667 897 l 1658 878 l 1282 878 l 1290 897 l 1667 897 z "},"I":{"ha":597,"x_min":167,"x_max":888,"o":"m 185 47 l 210 114 l 588 114 l 561 47 l 185 47 m 219 139 l 243 201 l 621 201 l 597 139 l 219 139 m 256 232 l 276 289 l 654 289 l 632 232 l 256 232 m 290 324 l 310 376 l 688 376 l 667 324 l 290 324 m 325 417 l 343 464 l 721 464 l 703 417 l 325 417 m 361 508 l 378 551 l 754 551 l 738 508 l 361 508 m 397 601 l 411 639 l 789 639 l 774 601 l 397 601 m 432 693 l 444 726 l 822 726 l 810 693 l 432 693 m 442 786 l 419 813 l 854 813 l 844 786 l 442 786 m 888 897 l 879 878 l 367 878 l 351 897 l 888 897 m 543 0 l 167 0 l 176 26 l 553 26 l 543 0 z "},"J":{"ha":1376,"x_min":167,"x_max":1667,"o":"m 185 47 l 211 114 l 1367 114 l 1340 47 l 185 47 m 221 139 l 244 201 l 1400 201 l 1376 139 l 221 139 m 1322 0 l 167 0 l 176 26 l 1332 26 l 1322 0 m 264 508 l 229 551 l 754 551 l 738 508 l 264 508 m 1033 232 l 1056 289 l 1433 289 l 1411 232 l 1033 232 m 256 232 l 278 289 l 653 289 l 631 232 l 256 232 m 1069 324 l 1089 376 l 1467 376 l 1446 324 l 1069 324 m 290 324 l 311 376 l 688 376 l 667 324 l 290 324 m 326 417 l 331 426 l 300 464 l 721 464 l 703 417 l 326 417 m 1104 417 l 1122 464 l 1500 464 l 1482 417 l 1104 417 m 1140 508 l 1157 551 l 1533 551 l 1517 508 l 1140 508 m 1176 601 l 1190 639 l 1568 639 l 1553 601 l 1176 601 m 1211 693 l 1224 726 l 1601 726 l 1589 693 l 1211 693 m 1221 786 l 1199 813 l 1633 813 l 1624 786 l 1221 786 m 1131 897 l 1667 897 l 1658 878 l 1146 878 l 1131 897 z "},"K":{"ha":1376,"x_min":167,"x_max":1667,"o":"m 672 338 l 667 324 l 290 324 l 310 376 l 1354 376 l 1401 324 l 882 324 l 871 338 l 672 338 m 325 417 l 343 464 l 1319 464 l 1292 447 l 1318 417 l 325 417 m 361 508 l 378 551 l 1464 551 l 1393 508 l 361 508 m 961 232 l 913 289 l 1431 289 l 1410 232 l 961 232 m 961 47 l 988 114 l 1364 114 l 1339 47 l 961 47 m 185 47 l 210 114 l 586 114 l 561 47 l 185 47 m 1011 175 l 988 201 l 1397 201 l 1374 139 l 997 139 l 1011 175 m 219 139 l 243 201 l 619 201 l 596 139 l 219 139 m 256 232 l 276 289 l 653 289 l 632 232 l 256 232 m 1556 607 l 1546 601 l 1024 601 l 1086 639 l 1568 639 l 1556 607 m 397 601 l 411 639 l 789 639 l 774 601 l 397 601 m 1175 693 l 1224 722 l 1225 726 l 1601 726 l 1589 693 l 1175 693 m 432 693 l 444 726 l 822 726 l 810 693 l 432 693 m 442 786 l 419 813 l 854 813 l 844 786 l 442 786 m 888 897 l 879 878 l 367 878 l 351 897 l 888 897 m 1321 0 l 944 0 l 954 26 l 1331 26 l 1321 0 m 543 0 l 167 0 l 176 26 l 553 26 l 543 0 m 1247 786 l 1257 813 l 1633 813 l 1624 786 l 1247 786 m 1667 897 l 1658 878 l 1282 878 l 1290 897 l 1667 897 z "},"L":{"ha":1268,"x_min":167,"x_max":1339,"o":"m 185 47 l 210 114 l 1306 114 l 1279 47 l 185 47 m 219 139 l 243 201 l 1339 201 l 1315 139 l 219 139 m 1263 0 l 167 0 l 176 26 l 1272 26 l 1263 0 m 256 232 l 276 289 l 653 289 l 631 232 l 256 232 m 290 324 l 310 376 l 686 376 l 667 324 l 290 324 m 325 417 l 343 464 l 719 464 l 701 417 l 325 417 m 361 508 l 378 551 l 754 551 l 738 508 l 361 508 m 397 601 l 411 639 l 788 639 l 774 601 l 397 601 m 432 693 l 444 726 l 821 726 l 808 693 l 432 693 m 442 786 l 419 813 l 854 813 l 844 786 l 442 786 m 888 897 l 879 878 l 367 878 l 351 897 l 888 897 z "},"M":{"ha":1846,"x_min":167,"x_max":2136,"o":"m 432 693 l 444 726 l 2071 726 l 2058 693 l 432 693 m 442 786 l 419 813 l 2103 813 l 2093 786 l 442 786 m 2136 897 l 2128 878 l 367 878 l 351 897 l 2136 897 m 185 47 l 210 114 l 588 114 l 561 47 l 185 47 m 1433 47 l 1460 114 l 1836 114 l 1810 47 l 1433 47 m 808 47 l 835 114 l 1211 114 l 1185 47 l 808 47 m 219 139 l 243 201 l 621 201 l 597 139 l 219 139 m 844 139 l 868 201 l 1244 201 l 1221 139 l 844 139 m 1469 139 l 1493 201 l 1869 201 l 1846 139 l 1469 139 m 256 232 l 276 289 l 654 289 l 633 232 l 256 232 m 881 232 l 901 289 l 1278 289 l 1257 232 l 881 232 m 1506 232 l 1526 289 l 1903 289 l 1881 232 l 1506 232 m 290 324 l 310 376 l 688 376 l 668 324 l 290 324 m 915 324 l 935 376 l 1311 376 l 1292 324 l 915 324 m 1540 324 l 1560 376 l 1936 376 l 1915 324 l 1540 324 m 325 417 l 343 464 l 721 464 l 703 417 l 325 417 m 950 417 l 968 464 l 1344 464 l 1326 417 l 950 417 m 1575 417 l 1593 464 l 1969 464 l 1951 417 l 1575 417 m 361 508 l 378 551 l 756 551 l 739 508 l 361 508 m 986 508 l 1003 551 l 1379 551 l 1363 508 l 986 508 m 1611 508 l 1628 551 l 2003 551 l 1986 508 l 1611 508 m 397 601 l 411 639 l 789 639 l 775 601 l 397 601 m 1022 601 l 1036 639 l 1413 639 l 1399 601 l 1022 601 m 1647 601 l 1661 639 l 2038 639 l 2022 601 l 1647 601 m 1792 0 l 1415 0 l 1425 26 l 1801 26 l 1792 0 m 543 0 l 167 0 l 176 26 l 553 26 l 543 0 m 1167 0 l 790 0 l 800 26 l 1176 26 l 1167 0 z "},"N":{"ha":1376,"x_min":167,"x_max":1667,"o":"m 325 417 l 343 464 l 1500 464 l 1482 417 l 325 417 m 746 324 l 713 376 l 1467 376 l 1446 324 l 746 324 m 804 232 l 768 289 l 1433 289 l 1411 232 l 804 232 m 864 139 l 824 201 l 1400 201 l 1376 139 l 864 139 m 361 508 l 378 551 l 1100 551 l 1128 508 l 361 508 m 921 47 l 879 114 l 1367 114 l 1340 47 l 921 47 m 185 47 l 210 114 l 586 114 l 561 47 l 185 47 m 397 601 l 411 639 l 1044 639 l 1068 601 l 397 601 m 219 139 l 243 201 l 621 201 l 596 139 l 219 139 m 256 232 l 276 289 l 654 289 l 632 232 l 256 232 m 290 324 l 310 376 l 688 376 l 667 324 l 290 324 m 432 693 l 444 726 l 990 726 l 1011 693 l 432 693 m 1140 508 l 1157 551 l 1533 551 l 1517 508 l 1140 508 m 1176 601 l 1192 639 l 1568 639 l 1553 601 l 1176 601 m 442 786 l 419 813 l 935 813 l 951 786 l 442 786 m 1213 693 l 1225 726 l 1601 726 l 1589 693 l 1213 693 m 351 897 l 882 897 l 894 878 l 367 878 l 351 897 m 951 0 l 935 26 l 1332 26 l 1322 0 l 951 0 m 543 0 l 167 0 l 176 26 l 553 26 l 543 0 m 1247 786 l 1257 813 l 1633 813 l 1624 786 l 1247 786 m 1667 897 l 1658 878 l 1282 878 l 1290 897 l 1667 897 z "},"O":{"ha":1376,"x_min":167,"x_max":1667,"o":"m 185 47 l 210 114 l 1367 114 l 1340 47 l 185 47 m 219 139 l 243 201 l 1400 201 l 1376 139 l 219 139 m 432 693 l 444 726 l 1601 726 l 1589 693 l 432 693 m 442 786 l 419 813 l 1633 813 l 1624 786 l 442 786 m 1322 0 l 167 0 l 176 26 l 1332 26 l 1322 0 m 351 897 l 1667 897 l 1658 878 l 367 878 l 351 897 m 1033 232 l 1056 289 l 1433 289 l 1411 232 l 1033 232 m 256 232 l 276 289 l 653 289 l 631 232 l 256 232 m 1069 324 l 1089 376 l 1467 376 l 1446 324 l 1069 324 m 290 324 l 310 376 l 686 376 l 667 324 l 290 324 m 1104 417 l 1122 464 l 1500 464 l 1482 417 l 1104 417 m 325 417 l 343 464 l 719 464 l 701 417 l 325 417 m 1140 508 l 1157 551 l 1533 551 l 1517 508 l 1140 508 m 361 508 l 378 551 l 754 551 l 738 508 l 361 508 m 1176 601 l 1190 639 l 1568 639 l 1553 601 l 1176 601 m 397 601 l 411 639 l 788 639 l 774 601 l 397 601 z "},"P":{"ha":1375,"x_min":167,"x_max":1667,"o":"m 290 324 l 310 376 l 1465 376 l 1446 324 l 290 324 m 325 417 l 343 464 l 1499 464 l 1481 417 l 325 417 m 432 693 l 444 726 l 1600 726 l 1588 693 l 432 693 m 739 510 l 1142 510 l 1157 551 l 1533 551 l 1517 508 l 361 508 l 378 551 l 754 551 l 739 510 m 442 786 l 419 813 l 1633 813 l 1624 786 l 442 786 m 1667 897 l 1658 878 l 367 878 l 351 897 l 1667 897 m 185 47 l 210 114 l 586 114 l 561 47 l 185 47 m 219 139 l 243 201 l 619 201 l 596 139 l 219 139 m 653 288 l 632 232 l 256 232 l 276 289 l 1432 289 l 1432 288 l 653 288 m 397 601 l 411 639 l 788 639 l 774 601 l 397 601 m 1176 601 l 1190 639 l 1567 639 l 1553 601 l 1176 601 m 543 0 l 167 0 l 176 26 l 553 26 l 543 0 z "},"Q":{"ha":1376,"x_min":167,"x_max":1667,"o":"m 185 47 l 210 114 l 1367 114 l 1340 47 l 185 47 m 219 139 l 243 201 l 1400 201 l 1376 139 l 219 139 m 167 0 l 176 26 l 1332 26 l 1322 0 l 1206 0 l 1218 -46 l 839 -46 l 825 0 l 167 0 m 656 232 l 819 289 l 1433 289 l 1411 232 l 656 232 m 432 693 l 444 726 l 1601 726 l 1589 693 l 432 693 m 442 786 l 419 813 l 1633 813 l 1624 786 l 442 786 m 865 -137 l 843 -61 l 1222 -61 l 1244 -137 l 865 -137 m 1667 897 l 1658 878 l 367 878 l 351 897 l 1667 897 m 919 324 l 1072 376 l 1467 376 l 1446 324 l 919 324 m 256 232 l 276 289 l 653 289 l 631 232 l 256 232 m 290 324 l 310 376 l 686 376 l 667 324 l 290 324 m 1106 417 l 1124 464 l 1500 464 l 1482 417 l 1106 417 m 325 417 l 343 464 l 719 464 l 701 417 l 325 417 m 361 508 l 378 551 l 754 551 l 738 508 l 361 508 m 1140 508 l 1157 551 l 1533 551 l 1517 508 l 1140 508 m 881 -186 l 869 -149 l 1247 -149 l 1258 -186 l 881 -186 m 1176 601 l 1190 639 l 1568 639 l 1553 601 l 1176 601 m 397 601 l 411 639 l 788 639 l 774 601 l 397 601 z "},"R":{"ha":1375,"x_min":167,"x_max":1667,"o":"m 290 324 l 310 376 l 1467 376 l 1446 324 l 290 324 m 325 417 l 343 464 l 1500 464 l 1482 417 l 325 417 m 747 533 l 1150 533 l 1157 551 l 1533 551 l 1517 508 l 361 508 l 378 551 l 754 551 l 747 533 m 432 693 l 444 726 l 1601 726 l 1589 693 l 432 693 m 442 786 l 419 813 l 1633 813 l 1624 786 l 442 786 m 1667 897 l 1658 878 l 367 878 l 351 897 l 1667 897 m 929 47 l 910 114 l 1289 114 l 1307 47 l 929 47 m 185 47 l 210 114 l 586 114 l 561 47 l 185 47 m 901 139 l 883 201 l 1265 201 l 1282 139 l 901 139 m 219 139 l 243 201 l 619 201 l 596 139 l 219 139 m 874 232 l 857 289 l 1240 289 l 1257 232 l 874 232 m 256 232 l 276 289 l 654 289 l 632 232 l 256 232 m 1176 601 l 1190 639 l 1568 639 l 1553 601 l 1176 601 m 397 601 l 411 639 l 788 639 l 774 601 l 397 601 m 943 0 l 935 26 l 1313 26 l 1321 0 l 943 0 m 543 0 l 167 0 l 176 26 l 553 26 l 543 0 z "},"S":{"ha":1375,"x_min":167,"x_max":1665,"o":"m 183 47 l 210 114 l 1365 114 l 1339 47 l 183 47 m 219 139 l 243 201 l 1399 201 l 1375 139 l 219 139 m 326 417 l 344 464 l 1499 464 l 1481 417 l 326 417 m 1074 338 l 296 338 l 311 376 l 1465 376 l 1444 324 l 1068 324 l 1074 338 m 361 508 l 378 551 l 1532 551 l 1515 508 l 361 508 m 432 693 l 444 726 l 1599 726 l 1586 693 l 432 693 m 442 786 l 419 813 l 1632 813 l 1622 786 l 442 786 m 1321 0 l 167 0 l 176 26 l 1331 26 l 1321 0 m 1665 897 l 1657 878 l 367 878 l 351 897 l 1665 897 m 1032 232 l 1054 289 l 1432 289 l 1410 232 l 1032 232 m 397 601 l 413 639 l 788 639 l 774 601 l 397 601 z "},"T":{"ha":1317,"x_min":351,"x_max":1607,"o":"m 508 693 l 482 726 l 1540 726 l 1528 693 l 508 693 m 436 786 l 417 813 l 1574 813 l 1564 786 l 436 786 m 535 47 l 560 114 l 936 114 l 911 47 l 535 47 m 1607 897 l 1599 878 l 367 878 l 351 897 l 1607 897 m 569 139 l 593 201 l 969 201 l 946 139 l 569 139 m 606 232 l 626 289 l 1003 289 l 982 232 l 606 232 m 640 324 l 660 376 l 1036 376 l 1017 324 l 640 324 m 675 417 l 693 464 l 1069 464 l 1051 417 l 675 417 m 711 508 l 728 551 l 1104 551 l 1088 508 l 711 508 m 747 601 l 761 639 l 1138 639 l 1124 601 l 747 601 m 893 0 l 517 0 l 526 26 l 903 26 l 893 0 z "},"U":{"ha":1376,"x_min":167,"x_max":1667,"o":"m 185 47 l 210 114 l 1367 114 l 1340 47 l 185 47 m 219 139 l 243 201 l 1400 201 l 1376 139 l 219 139 m 1322 0 l 167 0 l 176 26 l 1332 26 l 1322 0 m 1033 232 l 1056 289 l 1433 289 l 1411 232 l 1033 232 m 256 232 l 276 289 l 653 289 l 631 232 l 256 232 m 1069 324 l 1089 376 l 1467 376 l 1446 324 l 1069 324 m 290 324 l 310 376 l 686 376 l 667 324 l 290 324 m 1104 417 l 1122 464 l 1500 464 l 1482 417 l 1104 417 m 325 417 l 343 464 l 719 464 l 701 417 l 325 417 m 1140 508 l 1157 551 l 1533 551 l 1517 508 l 1140 508 m 361 508 l 378 551 l 754 551 l 738 508 l 361 508 m 1176 601 l 1190 639 l 1568 639 l 1553 601 l 1176 601 m 397 601 l 411 639 l 788 639 l 774 601 l 397 601 m 1211 693 l 1224 726 l 1601 726 l 1589 693 l 1211 693 m 432 693 l 444 726 l 821 726 l 808 693 l 432 693 m 442 786 l 419 813 l 854 813 l 844 786 l 442 786 m 888 897 l 879 878 l 367 878 l 351 897 l 888 897 m 1247 786 l 1257 813 l 1633 813 l 1624 786 l 1247 786 m 1667 897 l 1658 878 l 1282 878 l 1290 897 l 1667 897 z "},"V":{"ha":1376,"x_min":272,"x_max":1667,"o":"m 389 139 l 335 201 l 1310 201 l 1208 139 l 389 139 m 469 47 l 411 114 l 1167 114 l 1058 47 l 469 47 m 550 -46 l 488 26 l 1024 26 l 906 -46 l 550 -46 m 1428 274 l 1360 232 l 843 232 l 935 289 l 1433 289 l 1428 274 m 308 232 l 272 274 l 278 289 l 775 289 l 824 232 l 308 232 m 990 324 l 1074 376 l 1467 376 l 1446 324 l 990 324 m 290 324 l 311 376 l 701 376 l 746 324 l 290 324 m 1104 417 l 1122 464 l 1500 464 l 1482 417 l 1104 417 m 326 417 l 344 464 l 719 464 l 701 417 l 326 417 m 631 -137 l 564 -61 l 881 -61 l 756 -137 l 631 -137 m 1140 508 l 1157 551 l 1533 551 l 1517 508 l 1140 508 m 361 508 l 378 551 l 754 551 l 738 508 l 361 508 m 1176 601 l 1190 639 l 1568 639 l 1553 601 l 1176 601 m 397 601 l 413 639 l 788 639 l 774 601 l 397 601 m 1211 693 l 1224 726 l 1601 726 l 1589 693 l 1211 693 m 432 693 l 444 726 l 821 726 l 808 693 l 432 693 m 442 786 l 419 813 l 854 813 l 844 786 l 442 786 m 888 897 l 879 878 l 367 878 l 351 897 l 888 897 m 1247 786 l 1257 813 l 1633 813 l 1624 786 l 1247 786 m 1667 897 l 1658 878 l 1282 878 l 1290 897 l 1667 897 m 675 -187 l 640 -149 l 738 -149 l 675 -187 z "},"W":{"ha":1846,"x_min":167,"x_max":2136,"o":"m 185 47 l 210 114 l 1836 114 l 1810 47 l 185 47 m 219 139 l 243 201 l 1869 201 l 1846 139 l 219 139 m 167 0 l 176 26 l 1801 26 l 1792 0 l 167 0 m 1503 232 l 1525 289 l 1903 289 l 1881 232 l 1503 232 m 878 232 l 900 289 l 1276 289 l 1254 232 l 878 232 m 256 232 l 276 289 l 653 289 l 631 232 l 256 232 m 1539 324 l 1558 376 l 1936 376 l 1915 324 l 1539 324 m 290 324 l 310 376 l 686 376 l 667 324 l 290 324 m 914 324 l 933 376 l 1310 376 l 1290 324 l 914 324 m 1574 417 l 1592 464 l 1969 464 l 1951 417 l 1574 417 m 325 417 l 343 464 l 719 464 l 701 417 l 325 417 m 949 417 l 967 464 l 1343 464 l 1325 417 l 949 417 m 1610 508 l 1626 551 l 2003 551 l 1986 508 l 1610 508 m 361 508 l 378 551 l 754 551 l 738 508 l 361 508 m 985 508 l 1001 551 l 1378 551 l 1361 508 l 985 508 m 1646 601 l 1660 639 l 2038 639 l 2022 601 l 1646 601 m 397 601 l 411 639 l 788 639 l 774 601 l 397 601 m 1021 601 l 1035 639 l 1411 639 l 1397 601 l 1021 601 m 1681 693 l 1693 726 l 2071 726 l 2058 693 l 1681 693 m 432 693 l 444 726 l 821 726 l 808 693 l 432 693 m 1056 693 l 1068 726 l 1444 726 l 1432 693 l 1056 693 m 442 786 l 419 813 l 854 813 l 844 786 l 442 786 m 888 897 l 879 878 l 367 878 l 351 897 l 888 897 m 1717 786 l 1726 813 l 2103 813 l 2093 786 l 1717 786 m 1092 786 l 1101 813 l 1478 813 l 1468 786 l 1092 786 m 2136 897 l 2128 878 l 1751 878 l 1760 897 l 2136 897 m 1511 897 l 1503 878 l 1126 878 l 1135 897 l 1511 897 z "},"X":{"ha":1376,"x_min":165,"x_max":1667,"o":"m 875 339 l 850 324 l 333 324 l 421 376 l 1354 376 l 1401 324 l 888 324 l 875 339 m 489 508 l 451 551 l 1464 551 l 1393 508 l 489 508 m 540 449 l 526 464 l 1319 464 l 1292 447 l 1318 417 l 488 417 l 540 449 m 254 232 l 275 288 l 276 289 l 794 289 l 703 232 l 254 232 m 964 232 l 917 289 l 1431 289 l 1410 232 l 964 232 m 183 47 l 208 114 l 586 114 l 560 47 l 183 47 m 961 47 l 988 114 l 1364 114 l 1339 47 l 961 47 m 608 172 l 596 139 l 218 139 l 242 201 l 654 201 l 608 172 m 1011 175 l 989 201 l 1397 201 l 1374 139 l 997 139 l 1011 175 m 1556 607 l 1546 601 l 1026 601 l 1088 639 l 1568 639 l 1556 607 m 408 601 l 401 610 l 413 639 l 892 639 l 922 601 l 408 601 m 432 693 l 444 726 l 821 726 l 821 725 l 847 693 l 432 693 m 1176 693 l 1224 722 l 1225 726 l 1601 726 l 1589 693 l 1176 693 m 442 786 l 419 813 l 854 813 l 844 786 l 442 786 m 888 897 l 879 878 l 367 878 l 351 897 l 888 897 m 1321 0 l 944 0 l 954 26 l 1331 26 l 1321 0 m 1247 786 l 1257 813 l 1633 813 l 1624 786 l 1247 786 m 542 0 l 165 0 l 175 26 l 551 26 l 542 0 m 1667 897 l 1658 878 l 1282 878 l 1290 897 l 1667 897 z "},"Y":{"ha":1376,"x_min":351,"x_max":1667,"o":"m 486 508 l 449 551 l 1464 551 l 1393 508 l 486 508 m 567 417 l 525 464 l 1319 464 l 1242 417 l 567 417 m 649 324 l 603 376 l 1175 376 l 1088 324 l 649 324 m 574 47 l 600 114 l 976 114 l 950 47 l 574 47 m 610 139 l 633 201 l 1010 201 l 986 139 l 610 139 m 644 232 l 667 289 l 1043 289 l 1021 232 l 644 232 m 1556 607 l 1546 601 l 1026 601 l 1086 639 l 1568 639 l 1556 607 m 404 601 l 400 607 l 413 639 l 893 639 l 924 601 l 404 601 m 1172 693 l 1224 725 l 1224 726 l 1601 726 l 1589 693 l 1172 693 m 432 693 l 444 726 l 821 726 l 821 725 l 847 693 l 432 693 m 442 786 l 419 813 l 854 813 l 844 786 l 442 786 m 888 897 l 879 878 l 367 878 l 351 897 l 888 897 m 1247 786 l 1257 813 l 1633 813 l 1624 786 l 1247 786 m 932 0 l 556 0 l 565 26 l 942 26 l 932 0 m 1667 897 l 1658 878 l 1282 878 l 1290 897 l 1667 897 z "},"Z":{"ha":1375,"x_min":165,"x_max":1664,"o":"m 183 47 l 210 114 l 1363 114 l 1336 47 l 183 47 m 219 139 l 243 201 l 1396 201 l 1372 139 l 219 139 m 517 693 l 489 726 l 1597 726 l 1585 693 l 517 693 m 442 786 l 419 813 l 1631 813 l 1621 786 l 442 786 m 1319 0 l 165 0 l 175 26 l 1329 26 l 1319 0 m 267 232 l 368 289 l 890 289 l 788 232 l 267 232 m 431 324 l 525 376 l 1046 376 l 951 324 l 431 324 m 1664 897 l 1656 878 l 367 878 l 351 897 l 1664 897 m 597 417 l 682 464 l 1203 464 l 1118 417 l 597 417 m 763 508 l 839 551 l 1358 551 l 1282 508 l 763 508 m 929 601 l 996 639 l 1515 639 l 1449 601 l 929 601 z "},"[":{"ha":757,"x_min":7,"x_max":1082,"o":"m 38 -46 l 65 26 l 713 26 l 685 -46 l 38 -46 m 654 -126 l 7 -126 l 32 -61 l 679 -61 l 654 -126 m 739 96 l 719 47 l 74 47 l 99 114 l 475 114 l 468 96 l 739 96 m 108 139 l 133 201 l 508 201 l 485 139 l 108 139 m 144 232 l 167 289 l 543 289 l 521 232 l 144 232 m 179 324 l 200 376 l 576 376 l 556 324 l 179 324 m 215 417 l 233 464 l 610 464 l 592 417 l 215 417 m 250 508 l 267 551 l 643 551 l 626 508 l 250 508 m 738 796 l 733 786 l 357 786 l 368 813 l 1014 813 l 1008 796 l 738 796 m 393 878 l 401 900 l 1047 900 l 1039 878 l 393 878 m 286 601 l 301 639 l 678 639 l 663 601 l 286 601 m 322 693 l 335 726 l 711 726 l 699 693 l 322 693 m 428 971 l 435 988 l 1082 988 l 1075 971 l 428 971 z "},"\\":{"ha":1265,"x_min":400,"x_max":1211,"o":"m 811 47 l 779 114 l 1156 114 l 1188 47 l 811 47 m 767 139 l 738 201 l 1114 201 l 1143 139 l 767 139 m 722 232 l 694 289 l 1071 289 l 1099 232 l 722 232 m 678 324 l 653 376 l 1029 376 l 1054 324 l 678 324 m 633 417 l 610 464 l 986 464 l 1010 417 l 633 417 m 589 508 l 568 551 l 944 551 l 965 508 l 589 508 m 543 601 l 525 639 l 901 639 l 919 601 l 543 601 m 499 693 l 483 726 l 860 726 l 875 693 l 499 693 m 454 786 l 442 813 l 818 813 l 831 786 l 454 786 m 1199 26 l 1211 0 l 835 0 l 822 26 l 1199 26 m 776 897 l 786 878 l 410 878 l 400 897 l 776 897 z "},"]":{"ha":757,"x_min":7,"x_max":1082,"o":"m 38 -46 l 65 26 l 713 26 l 685 -46 l 38 -46 m 654 -126 l 7 -126 l 32 -61 l 679 -61 l 654 -126 m 72 47 l 92 96 l 363 96 l 369 114 l 746 114 l 721 47 l 72 47 m 379 139 l 403 201 l 781 201 l 756 139 l 379 139 m 415 232 l 438 289 l 814 289 l 792 232 l 415 232 m 450 324 l 471 376 l 847 376 l 826 324 l 450 324 m 486 417 l 504 464 l 881 464 l 863 417 l 486 417 m 521 508 l 538 551 l 914 551 l 897 508 l 521 508 m 632 796 l 361 796 l 367 813 l 1015 813 l 1004 786 l 628 786 l 632 796 m 392 878 l 400 900 l 1049 900 l 1040 878 l 392 878 m 557 601 l 572 639 l 949 639 l 933 601 l 557 601 m 593 693 l 606 726 l 982 726 l 969 693 l 593 693 m 428 971 l 435 988 l 1082 988 l 1075 971 l 428 971 z "},"^":{"ha":682,"x_min":322,"x_max":943,"o":"m 924 726 l 943 694 l 940 693 l 322 693 l 322 694 l 367 726 l 924 726 m 449 786 l 486 813 l 871 813 l 886 786 l 449 786 m 379 601 l 356 639 l 558 639 l 507 601 l 379 601 m 688 601 l 664 639 l 867 639 l 814 601 l 688 601 m 576 878 l 607 900 l 817 900 l 831 878 l 576 878 m 704 971 l 728 988 l 764 988 l 774 971 l 704 971 m 726 538 l 718 551 l 746 551 l 726 538 m 419 538 l 411 551 l 439 551 l 419 538 z "},"_":{"ha":831,"x_min":56,"x_max":853,"o":"m 72 47 l 99 114 l 819 114 l 793 47 l 72 47 m 108 139 l 132 201 l 853 201 l 829 139 l 108 139 m 776 0 l 56 0 l 65 26 l 786 26 l 776 0 z "},"`":{"ha":531,"x_min":447,"x_max":782,"o":"m 482 878 l 475 900 l 775 900 l 782 878 l 482 878 m 453 971 l 447 988 l 750 988 l 754 971 l 453 971 z "},"a":{"ha":1375,"x_min":167,"x_max":1667,"o":"m 290 324 l 310 376 l 1467 376 l 1446 324 l 290 324 m 325 417 l 343 464 l 1500 464 l 1482 417 l 325 417 m 653 288 l 632 232 l 256 232 l 276 289 l 1433 289 l 1411 232 l 1035 232 l 1056 288 l 653 288 m 432 693 l 444 726 l 1601 726 l 1589 693 l 432 693 m 739 510 l 1142 510 l 1157 551 l 1533 551 l 1517 508 l 361 508 l 378 551 l 754 551 l 739 510 m 442 786 l 419 813 l 1633 813 l 1624 786 l 442 786 m 1667 897 l 1658 878 l 367 878 l 351 897 l 1667 897 m 964 47 l 989 114 l 1367 114 l 1340 47 l 964 47 m 185 47 l 210 114 l 586 114 l 561 47 l 185 47 m 999 139 l 1022 201 l 1400 201 l 1376 139 l 999 139 m 219 139 l 243 201 l 619 201 l 596 139 l 219 139 m 1176 601 l 1190 639 l 1568 639 l 1553 601 l 1176 601 m 397 601 l 411 639 l 788 639 l 774 601 l 397 601 m 1322 0 l 946 0 l 956 26 l 1332 26 l 1322 0 m 543 0 l 167 0 l 176 26 l 553 26 l 543 0 z "},"b":{"ha":1376,"x_min":167,"x_max":1667,"o":"m 185 47 l 210 114 l 1365 114 l 1339 47 l 185 47 m 219 139 l 243 201 l 1399 201 l 1375 139 l 219 139 m 672 338 l 667 324 l 290 324 l 310 376 l 1465 376 l 1444 324 l 1068 324 l 1074 338 l 672 338 m 1493 447 l 1481 417 l 325 417 l 343 464 l 1319 464 l 1292 447 l 1493 447 m 361 508 l 378 551 l 1464 551 l 1393 508 l 361 508 m 432 693 l 444 726 l 1601 726 l 1589 693 l 432 693 m 442 786 l 419 813 l 1633 813 l 1624 786 l 442 786 m 167 0 l 176 26 l 1331 26 l 1321 0 l 167 0 m 1667 897 l 1658 878 l 367 878 l 351 897 l 1667 897 m 1032 232 l 1054 289 l 1432 289 l 1410 232 l 1032 232 m 256 232 l 276 289 l 653 289 l 631 232 l 256 232 m 1556 607 l 1546 601 l 1025 601 l 1088 639 l 1568 639 l 1556 607 m 397 601 l 411 639 l 788 639 l 774 601 l 397 601 z "},"c":{"ha":1317,"x_min":167,"x_max":1607,"o":"m 185 47 l 210 114 l 1306 114 l 1279 47 l 185 47 m 219 139 l 243 201 l 1339 201 l 1315 139 l 219 139 m 432 693 l 444 726 l 1540 726 l 1528 693 l 432 693 m 442 786 l 419 813 l 1574 813 l 1564 786 l 442 786 m 1263 0 l 167 0 l 176 26 l 1272 26 l 1263 0 m 1607 897 l 1599 878 l 367 878 l 351 897 l 1607 897 m 256 232 l 276 289 l 653 289 l 631 232 l 256 232 m 290 324 l 310 376 l 686 376 l 667 324 l 290 324 m 325 417 l 343 464 l 719 464 l 701 417 l 325 417 m 361 508 l 378 551 l 754 551 l 738 508 l 361 508 m 397 601 l 411 639 l 788 639 l 774 601 l 397 601 z "},"d":{"ha":1376,"x_min":167,"x_max":1667,"o":"m 219 139 l 243 201 l 1311 201 l 1207 139 l 219 139 m 185 47 l 210 114 l 1165 114 l 1054 47 l 185 47 m 432 693 l 444 726 l 1601 726 l 1589 693 l 432 693 m 442 786 l 419 813 l 1633 813 l 1624 786 l 442 786 m 1426 271 l 1361 232 l 846 232 l 936 289 l 1433 289 l 1426 271 m 1667 897 l 1658 878 l 367 878 l 351 897 l 1667 897 m 990 324 l 1074 376 l 1467 376 l 1446 324 l 990 324 m 167 0 l 176 26 l 1019 26 l 976 0 l 167 0 m 256 232 l 276 289 l 653 289 l 631 232 l 256 232 m 290 324 l 310 376 l 686 376 l 667 324 l 290 324 m 1104 417 l 1122 464 l 1500 464 l 1482 417 l 1104 417 m 325 417 l 343 464 l 719 464 l 701 417 l 325 417 m 1140 508 l 1157 551 l 1533 551 l 1517 508 l 1140 508 m 361 508 l 378 551 l 754 551 l 738 508 l 361 508 m 1176 601 l 1190 639 l 1568 639 l 1553 601 l 1176 601 m 397 601 l 411 639 l 788 639 l 774 601 l 397 601 z "},"e":{"ha":1317,"x_min":167,"x_max":1607,"o":"m 185 47 l 210 114 l 1306 114 l 1279 47 l 185 47 m 219 139 l 243 201 l 1339 201 l 1315 139 l 219 139 m 325 417 l 343 464 l 1440 464 l 1422 417 l 325 417 m 672 338 l 667 324 l 290 324 l 310 376 l 1407 376 l 1392 338 l 672 338 m 361 508 l 378 551 l 1474 551 l 1457 508 l 361 508 m 432 693 l 444 726 l 1540 726 l 1528 693 l 432 693 m 442 786 l 419 813 l 1574 813 l 1564 786 l 442 786 m 1263 0 l 167 0 l 176 26 l 1272 26 l 1263 0 m 1607 897 l 1599 878 l 367 878 l 351 897 l 1607 897 m 256 232 l 276 289 l 653 289 l 631 232 l 256 232 m 397 601 l 411 639 l 788 639 l 774 601 l 397 601 z "},"f":{"ha":1317,"x_min":167,"x_max":1607,"o":"m 325 417 l 343 464 l 1440 464 l 1422 417 l 325 417 m 672 338 l 667 324 l 290 324 l 310 376 l 1407 376 l 1392 338 l 672 338 m 361 508 l 378 551 l 1474 551 l 1457 508 l 361 508 m 432 693 l 444 726 l 1540 726 l 1528 693 l 432 693 m 442 786 l 419 813 l 1574 813 l 1564 786 l 442 786 m 185 47 l 210 114 l 586 114 l 561 47 l 185 47 m 1607 897 l 1599 878 l 367 878 l 351 897 l 1607 897 m 219 139 l 243 201 l 619 201 l 596 139 l 219 139 m 256 232 l 276 289 l 653 289 l 632 232 l 256 232 m 397 601 l 411 639 l 788 639 l 774 601 l 397 601 m 543 0 l 167 0 l 176 26 l 553 26 l 543 0 z "},"g":{"ha":1375,"x_min":167,"x_max":1665,"o":"m 185 47 l 210 114 l 1365 114 l 1339 47 l 185 47 m 219 139 l 243 201 l 1399 201 l 1375 139 l 219 139 m 432 693 l 444 726 l 1599 726 l 1586 693 l 432 693 m 442 786 l 419 813 l 1632 813 l 1622 786 l 442 786 m 1321 0 l 167 0 l 176 26 l 1331 26 l 1321 0 m 1074 338 l 885 338 l 900 376 l 1465 376 l 1444 324 l 1068 324 l 1074 338 m 915 417 l 933 464 l 1499 464 l 1481 417 l 915 417 m 1665 897 l 1657 878 l 367 878 l 351 897 l 1665 897 m 950 508 l 967 551 l 1532 551 l 1515 508 l 950 508 m 1032 232 l 1054 289 l 1432 289 l 1410 232 l 1032 232 m 256 232 l 276 289 l 653 289 l 631 232 l 256 232 m 290 324 l 310 376 l 686 376 l 667 324 l 290 324 m 325 417 l 343 464 l 719 464 l 701 417 l 325 417 m 361 508 l 378 551 l 754 551 l 738 508 l 361 508 m 397 601 l 411 639 l 788 639 l 774 601 l 397 601 z "},"h":{"ha":1376,"x_min":167,"x_max":1667,"o":"m 672 338 l 667 324 l 290 324 l 310 376 l 1467 376 l 1446 324 l 1069 324 l 1075 338 l 672 338 m 325 417 l 343 464 l 1500 464 l 1482 417 l 325 417 m 361 508 l 378 551 l 1533 551 l 1517 508 l 361 508 m 964 47 l 989 114 l 1367 114 l 1340 47 l 964 47 m 185 47 l 210 114 l 586 114 l 561 47 l 185 47 m 999 139 l 1022 201 l 1400 201 l 1376 139 l 999 139 m 219 139 l 243 201 l 619 201 l 596 139 l 219 139 m 1035 232 l 1056 289 l 1433 289 l 1411 232 l 1035 232 m 256 232 l 276 289 l 653 289 l 632 232 l 256 232 m 397 601 l 411 639 l 789 639 l 774 601 l 397 601 m 1176 601 l 1192 639 l 1568 639 l 1553 601 l 1176 601 m 432 693 l 444 726 l 822 726 l 810 693 l 432 693 m 1213 693 l 1225 726 l 1601 726 l 1589 693 l 1213 693 m 442 786 l 419 813 l 854 813 l 844 786 l 442 786 m 888 897 l 879 878 l 367 878 l 351 897 l 888 897 m 1322 0 l 946 0 l 956 26 l 1332 26 l 1322 0 m 543 0 l 167 0 l 176 26 l 553 26 l 543 0 m 1247 786 l 1257 813 l 1633 813 l 1624 786 l 1247 786 m 1667 897 l 1658 878 l 1282 878 l 1290 897 l 1667 897 z "},"i":{"ha":597,"x_min":167,"x_max":888,"o":"m 185 47 l 210 114 l 588 114 l 561 47 l 185 47 m 219 139 l 243 201 l 621 201 l 597 139 l 219 139 m 256 232 l 276 289 l 654 289 l 632 232 l 256 232 m 290 324 l 310 376 l 688 376 l 667 324 l 290 324 m 325 417 l 343 464 l 721 464 l 703 417 l 325 417 m 361 508 l 378 551 l 754 551 l 738 508 l 361 508 m 397 601 l 411 639 l 789 639 l 774 601 l 397 601 m 432 693 l 444 726 l 822 726 l 810 693 l 432 693 m 442 786 l 419 813 l 854 813 l 844 786 l 442 786 m 888 897 l 879 878 l 367 878 l 351 897 l 888 897 m 543 0 l 167 0 l 176 26 l 553 26 l 543 0 z "},"j":{"ha":1376,"x_min":167,"x_max":1667,"o":"m 185 47 l 211 114 l 1367 114 l 1340 47 l 185 47 m 221 139 l 244 201 l 1400 201 l 1376 139 l 221 139 m 1322 0 l 167 0 l 176 26 l 1332 26 l 1322 0 m 264 508 l 229 551 l 754 551 l 738 508 l 264 508 m 1033 232 l 1056 289 l 1433 289 l 1411 232 l 1033 232 m 256 232 l 278 289 l 653 289 l 631 232 l 256 232 m 1069 324 l 1089 376 l 1467 376 l 1446 324 l 1069 324 m 290 324 l 311 376 l 688 376 l 667 324 l 290 324 m 331 426 l 300 464 l 721 464 l 703 417 l 326 417 l 331 426 m 1104 417 l 1122 464 l 1500 464 l 1482 417 l 1104 417 m 1140 508 l 1157 551 l 1533 551 l 1517 508 l 1140 508 m 1176 601 l 1190 639 l 1568 639 l 1553 601 l 1176 601 m 1211 693 l 1224 726 l 1601 726 l 1589 693 l 1211 693 m 1247 786 l 1257 813 l 1633 813 l 1624 786 l 1247 786 m 1667 897 l 1658 878 l 1282 878 l 1290 897 l 1667 897 z "},"k":{"ha":1376,"x_min":167,"x_max":1667,"o":"m 672 338 l 667 324 l 290 324 l 310 376 l 1354 376 l 1401 324 l 882 324 l 871 338 l 672 338 m 325 417 l 343 464 l 1319 464 l 1292 447 l 1318 417 l 325 417 m 361 508 l 378 551 l 1464 551 l 1393 508 l 361 508 m 961 232 l 913 289 l 1431 289 l 1410 232 l 961 232 m 961 47 l 988 114 l 1364 114 l 1339 47 l 961 47 m 185 47 l 210 114 l 586 114 l 561 47 l 185 47 m 1011 175 l 988 201 l 1397 201 l 1374 139 l 997 139 l 1011 175 m 219 139 l 243 201 l 619 201 l 596 139 l 219 139 m 256 232 l 276 289 l 653 289 l 632 232 l 256 232 m 1556 607 l 1546 601 l 1024 601 l 1086 639 l 1568 639 l 1556 607 m 397 601 l 411 639 l 789 639 l 774 601 l 397 601 m 1175 693 l 1224 722 l 1225 726 l 1601 726 l 1589 693 l 1175 693 m 432 693 l 444 726 l 822 726 l 810 693 l 432 693 m 442 786 l 419 813 l 854 813 l 844 786 l 442 786 m 888 897 l 879 878 l 367 878 l 351 897 l 888 897 m 1321 0 l 944 0 l 954 26 l 1331 26 l 1321 0 m 543 0 l 167 0 l 176 26 l 553 26 l 543 0 m 1247 786 l 1257 813 l 1633 813 l 1624 786 l 1247 786 m 1667 897 l 1658 878 l 1282 878 l 1290 897 l 1667 897 z "},"l":{"ha":1268,"x_min":167,"x_max":1339,"o":"m 185 47 l 210 114 l 1306 114 l 1279 47 l 185 47 m 219 139 l 243 201 l 1339 201 l 1315 139 l 219 139 m 1263 0 l 167 0 l 176 26 l 1272 26 l 1263 0 m 256 232 l 276 289 l 653 289 l 631 232 l 256 232 m 290 324 l 310 376 l 686 376 l 667 324 l 290 324 m 325 417 l 343 464 l 719 464 l 701 417 l 325 417 m 361 508 l 378 551 l 754 551 l 738 508 l 361 508 m 397 601 l 411 639 l 788 639 l 774 601 l 397 601 m 432 693 l 444 726 l 821 726 l 808 693 l 432 693 m 442 786 l 419 813 l 854 813 l 844 786 l 442 786 m 888 897 l 879 878 l 367 878 l 351 897 l 888 897 z "},"m":{"ha":1846,"x_min":167,"x_max":2136,"o":"m 432 693 l 444 726 l 2071 726 l 2058 693 l 432 693 m 442 786 l 419 813 l 2103 813 l 2093 786 l 442 786 m 2136 897 l 2128 878 l 367 878 l 351 897 l 2136 897 m 185 47 l 210 114 l 588 114 l 561 47 l 185 47 m 1433 47 l 1460 114 l 1836 114 l 1810 47 l 1433 47 m 808 47 l 835 114 l 1211 114 l 1185 47 l 808 47 m 219 139 l 243 201 l 621 201 l 597 139 l 219 139 m 844 139 l 868 201 l 1244 201 l 1221 139 l 844 139 m 1469 139 l 1493 201 l 1869 201 l 1846 139 l 1469 139 m 256 232 l 276 289 l 654 289 l 633 232 l 256 232 m 881 232 l 901 289 l 1278 289 l 1257 232 l 881 232 m 1506 232 l 1526 289 l 1903 289 l 1881 232 l 1506 232 m 290 324 l 310 376 l 688 376 l 668 324 l 290 324 m 915 324 l 935 376 l 1311 376 l 1292 324 l 915 324 m 1540 324 l 1560 376 l 1936 376 l 1915 324 l 1540 324 m 325 417 l 343 464 l 721 464 l 703 417 l 325 417 m 950 417 l 968 464 l 1344 464 l 1326 417 l 950 417 m 1575 417 l 1593 464 l 1969 464 l 1951 417 l 1575 417 m 361 508 l 378 551 l 756 551 l 739 508 l 361 508 m 986 508 l 1003 551 l 1379 551 l 1363 508 l 986 508 m 1611 508 l 1628 551 l 2003 551 l 1986 508 l 1611 508 m 397 601 l 411 639 l 789 639 l 775 601 l 397 601 m 1022 601 l 1036 639 l 1413 639 l 1399 601 l 1022 601 m 1647 601 l 1661 639 l 2038 639 l 2022 601 l 1647 601 m 1792 0 l 1415 0 l 1425 26 l 1801 26 l 1792 0 m 543 0 l 167 0 l 176 26 l 553 26 l 543 0 m 1167 0 l 790 0 l 800 26 l 1176 26 l 1167 0 z "},"n":{"ha":1376,"x_min":167,"x_max":1667,"o":"m 325 417 l 343 464 l 1500 464 l 1482 417 l 325 417 m 754 324 l 721 376 l 1467 376 l 1446 324 l 754 324 m 813 232 l 776 289 l 1433 289 l 1411 232 l 813 232 m 872 139 l 832 201 l 1400 201 l 1376 139 l 872 139 m 361 508 l 378 551 l 1090 551 l 1118 508 l 361 508 m 931 47 l 888 114 l 1367 114 l 1340 47 l 931 47 m 185 47 l 210 114 l 586 114 l 561 47 l 185 47 m 397 601 l 411 639 l 1035 639 l 1058 601 l 397 601 m 219 139 l 243 201 l 619 201 l 596 139 l 219 139 m 256 232 l 276 289 l 653 289 l 632 232 l 256 232 m 290 324 l 310 376 l 686 376 l 667 324 l 290 324 m 432 693 l 444 726 l 979 726 l 1000 693 l 432 693 m 1140 508 l 1157 551 l 1533 551 l 1517 508 l 1140 508 m 1176 601 l 1190 639 l 1568 639 l 1553 601 l 1176 601 m 442 786 l 419 813 l 925 813 l 942 786 l 442 786 m 1211 693 l 1224 726 l 1601 726 l 1589 693 l 1211 693 m 351 897 l 872 897 l 885 878 l 367 878 l 351 897 m 1247 786 l 1257 813 l 1633 813 l 1624 786 l 1247 786 m 543 0 l 167 0 l 176 26 l 553 26 l 543 0 m 961 0 l 943 26 l 1332 26 l 1322 0 l 961 0 m 1667 897 l 1658 878 l 1282 878 l 1290 897 l 1667 897 z "},"o":{"ha":1376,"x_min":167,"x_max":1667,"o":"m 185 47 l 210 114 l 1367 114 l 1340 47 l 185 47 m 219 139 l 243 201 l 1400 201 l 1376 139 l 219 139 m 432 693 l 444 726 l 1601 726 l 1589 693 l 432 693 m 442 786 l 419 813 l 1633 813 l 1624 786 l 442 786 m 1322 0 l 167 0 l 176 26 l 1332 26 l 1322 0 m 351 897 l 1667 897 l 1658 878 l 367 878 l 351 897 m 1033 232 l 1056 289 l 1433 289 l 1411 232 l 1033 232 m 256 232 l 276 289 l 653 289 l 631 232 l 256 232 m 1069 324 l 1089 376 l 1467 376 l 1446 324 l 1069 324 m 290 324 l 310 376 l 686 376 l 667 324 l 290 324 m 1104 417 l 1122 464 l 1500 464 l 1482 417 l 1104 417 m 325 417 l 343 464 l 719 464 l 701 417 l 325 417 m 1140 508 l 1157 551 l 1533 551 l 1517 508 l 1140 508 m 361 508 l 378 551 l 754 551 l 738 508 l 361 508 m 1176 601 l 1190 639 l 1568 639 l 1553 601 l 1176 601 m 397 601 l 411 639 l 788 639 l 774 601 l 397 601 z "},"p":{"ha":1375,"x_min":167,"x_max":1667,"o":"m 290 324 l 310 376 l 1465 376 l 1446 324 l 290 324 m 325 417 l 343 464 l 1499 464 l 1481 417 l 325 417 m 432 693 l 444 726 l 1600 726 l 1588 693 l 432 693 m 739 510 l 1142 510 l 1157 551 l 1533 551 l 1517 508 l 361 508 l 378 551 l 754 551 l 739 510 m 442 786 l 419 813 l 1633 813 l 1624 786 l 442 786 m 1667 897 l 1658 878 l 367 878 l 351 897 l 1667 897 m 185 47 l 210 114 l 586 114 l 561 47 l 185 47 m 219 139 l 243 201 l 619 201 l 596 139 l 219 139 m 653 288 l 632 232 l 256 232 l 276 289 l 1432 289 l 1432 288 l 653 288 m 397 601 l 411 639 l 788 639 l 774 601 l 397 601 m 1176 601 l 1190 639 l 1567 639 l 1553 601 l 1176 601 m 543 0 l 167 0 l 176 26 l 553 26 l 543 0 z "},"q":{"ha":1376,"x_min":167,"x_max":1667,"o":"m 185 47 l 210 114 l 1367 114 l 1340 47 l 185 47 m 219 139 l 243 201 l 1400 201 l 1376 139 l 219 139 m 167 0 l 176 26 l 1332 26 l 1322 0 l 1206 0 l 1218 -46 l 839 -46 l 825 0 l 167 0 m 656 232 l 819 289 l 1433 289 l 1411 232 l 656 232 m 432 693 l 444 726 l 1601 726 l 1589 693 l 432 693 m 442 786 l 419 813 l 1633 813 l 1624 786 l 442 786 m 865 -137 l 843 -61 l 1222 -61 l 1244 -137 l 865 -137 m 1667 897 l 1658 878 l 367 878 l 351 897 l 1667 897 m 919 324 l 1072 376 l 1467 376 l 1446 324 l 919 324 m 256 232 l 276 289 l 653 289 l 631 232 l 256 232 m 290 324 l 310 376 l 686 376 l 667 324 l 290 324 m 1106 417 l 1124 464 l 1500 464 l 1482 417 l 1106 417 m 325 417 l 343 464 l 719 464 l 701 417 l 325 417 m 361 508 l 378 551 l 754 551 l 738 508 l 361 508 m 1140 508 l 1157 551 l 1533 551 l 1517 508 l 1140 508 m 881 -186 l 869 -149 l 1247 -149 l 1258 -186 l 881 -186 m 1176 601 l 1190 639 l 1568 639 l 1553 601 l 1176 601 m 397 601 l 411 639 l 788 639 l 774 601 l 397 601 z "},"r":{"ha":1375,"x_min":167,"x_max":1667,"o":"m 290 324 l 310 376 l 1467 376 l 1446 324 l 290 324 m 325 417 l 343 464 l 1500 464 l 1482 417 l 325 417 m 747 533 l 1150 533 l 1157 551 l 1533 551 l 1517 508 l 361 508 l 378 551 l 754 551 l 747 533 m 432 693 l 444 726 l 1601 726 l 1589 693 l 432 693 m 442 786 l 419 813 l 1633 813 l 1624 786 l 442 786 m 1667 897 l 1658 878 l 367 878 l 351 897 l 1667 897 m 1003 47 l 983 114 l 1363 114 l 1381 47 l 1003 47 m 185 47 l 210 114 l 586 114 l 561 47 l 185 47 m 975 139 l 957 201 l 1339 201 l 1356 139 l 975 139 m 219 139 l 243 201 l 619 201 l 596 139 l 219 139 m 947 232 l 931 289 l 1314 289 l 1331 232 l 947 232 m 256 232 l 276 289 l 654 289 l 632 232 l 256 232 m 1176 601 l 1190 639 l 1568 639 l 1553 601 l 1176 601 m 397 601 l 411 639 l 788 639 l 774 601 l 397 601 m 1017 0 l 1008 26 l 1386 26 l 1394 0 l 1017 0 m 543 0 l 167 0 l 176 26 l 553 26 l 543 0 z "},"s":{"ha":1375,"x_min":167,"x_max":1665,"o":"m 183 47 l 210 114 l 1365 114 l 1339 47 l 183 47 m 219 139 l 243 201 l 1399 201 l 1375 139 l 219 139 m 326 417 l 344 464 l 1499 464 l 1481 417 l 326 417 m 1074 338 l 296 338 l 311 376 l 1465 376 l 1444 324 l 1068 324 l 1074 338 m 361 508 l 378 551 l 1532 551 l 1515 508 l 361 508 m 432 693 l 444 726 l 1599 726 l 1586 693 l 432 693 m 442 786 l 419 813 l 1632 813 l 1622 786 l 442 786 m 1321 0 l 167 0 l 176 26 l 1331 26 l 1321 0 m 1665 897 l 1657 878 l 367 878 l 351 897 l 1665 897 m 1032 232 l 1054 289 l 1432 289 l 1410 232 l 1032 232 m 397 601 l 413 639 l 788 639 l 774 601 l 397 601 z "},"t":{"ha":1265,"x_min":321,"x_max":1556,"o":"m 321 693 l 333 726 l 1489 726 l 1476 693 l 321 693 m 357 786 l 367 813 l 1522 813 l 1513 786 l 357 786 m 464 47 l 489 114 l 865 114 l 840 47 l 464 47 m 499 139 l 522 201 l 899 201 l 875 139 l 499 139 m 1556 897 l 1547 878 l 392 878 l 400 897 l 1556 897 m 535 232 l 556 289 l 932 289 l 911 232 l 535 232 m 569 324 l 589 376 l 965 376 l 946 324 l 569 324 m 604 417 l 622 464 l 999 464 l 981 417 l 604 417 m 640 508 l 657 551 l 1033 551 l 1017 508 l 640 508 m 676 601 l 690 639 l 1067 639 l 1053 601 l 676 601 m 822 0 l 446 0 l 456 26 l 832 26 l 822 0 z "},"u":{"ha":1376,"x_min":167,"x_max":1667,"o":"m 185 47 l 210 114 l 1367 114 l 1340 47 l 185 47 m 219 139 l 243 201 l 1400 201 l 1376 139 l 219 139 m 1322 0 l 167 0 l 176 26 l 1332 26 l 1322 0 m 1033 232 l 1056 289 l 1433 289 l 1411 232 l 1033 232 m 256 232 l 276 289 l 653 289 l 631 232 l 256 232 m 1069 324 l 1089 376 l 1467 376 l 1446 324 l 1069 324 m 290 324 l 310 376 l 686 376 l 667 324 l 290 324 m 1104 417 l 1122 464 l 1500 464 l 1482 417 l 1104 417 m 325 417 l 343 464 l 719 464 l 701 417 l 325 417 m 1140 508 l 1157 551 l 1533 551 l 1517 508 l 1140 508 m 361 508 l 378 551 l 754 551 l 738 508 l 361 508 m 1176 601 l 1190 639 l 1568 639 l 1553 601 l 1176 601 m 397 601 l 411 639 l 788 639 l 774 601 l 397 601 m 1211 693 l 1224 726 l 1601 726 l 1589 693 l 1211 693 m 432 693 l 444 726 l 821 726 l 808 693 l 432 693 m 442 786 l 419 813 l 854 813 l 844 786 l 442 786 m 888 897 l 879 878 l 367 878 l 351 897 l 888 897 m 1247 786 l 1257 813 l 1633 813 l 1624 786 l 1247 786 m 1667 897 l 1658 878 l 1282 878 l 1290 897 l 1667 897 z "},"v":{"ha":1376,"x_min":272,"x_max":1667,"o":"m 390 139 l 336 201 l 1308 201 l 1204 139 l 390 139 m 471 47 l 413 114 l 1164 114 l 1054 47 l 471 47 m 1428 274 l 1358 232 l 843 232 l 935 289 l 1433 289 l 1428 274 m 308 232 l 272 274 l 278 289 l 775 289 l 824 232 l 308 232 m 990 324 l 1074 376 l 1467 376 l 1446 324 l 990 324 m 290 324 l 311 376 l 701 376 l 746 324 l 290 324 m 1104 417 l 1122 464 l 1500 464 l 1482 417 l 1104 417 m 326 417 l 344 464 l 719 464 l 701 417 l 326 417 m 1140 508 l 1157 551 l 1533 551 l 1517 508 l 1140 508 m 361 508 l 378 551 l 754 551 l 738 508 l 361 508 m 1176 601 l 1190 639 l 1568 639 l 1553 601 l 1176 601 m 397 601 l 413 639 l 788 639 l 774 601 l 397 601 m 513 0 l 489 26 l 1019 26 l 976 0 l 513 0 m 1211 693 l 1224 726 l 1601 726 l 1589 693 l 1211 693 m 432 693 l 444 726 l 821 726 l 808 693 l 432 693 m 442 786 l 419 813 l 854 813 l 844 786 l 442 786 m 888 897 l 879 878 l 367 878 l 351 897 l 888 897 m 1247 786 l 1257 813 l 1633 813 l 1624 786 l 1247 786 m 1667 897 l 1658 878 l 1282 878 l 1290 897 l 1667 897 z "},"w":{"ha":1846,"x_min":167,"x_max":2136,"o":"m 185 47 l 210 114 l 1836 114 l 1810 47 l 185 47 m 219 139 l 243 201 l 1869 201 l 1846 139 l 219 139 m 167 0 l 176 26 l 1801 26 l 1792 0 l 167 0 m 1503 232 l 1525 289 l 1903 289 l 1881 232 l 1503 232 m 878 232 l 900 289 l 1276 289 l 1254 232 l 878 232 m 256 232 l 276 289 l 653 289 l 631 232 l 256 232 m 1539 324 l 1558 376 l 1936 376 l 1915 324 l 1539 324 m 290 324 l 310 376 l 686 376 l 667 324 l 290 324 m 914 324 l 933 376 l 1310 376 l 1290 324 l 914 324 m 1574 417 l 1592 464 l 1969 464 l 1951 417 l 1574 417 m 325 417 l 343 464 l 719 464 l 701 417 l 325 417 m 949 417 l 967 464 l 1343 464 l 1325 417 l 949 417 m 1610 508 l 1626 551 l 2003 551 l 1986 508 l 1610 508 m 361 508 l 378 551 l 754 551 l 738 508 l 361 508 m 985 508 l 1001 551 l 1378 551 l 1361 508 l 985 508 m 1646 601 l 1660 639 l 2038 639 l 2022 601 l 1646 601 m 397 601 l 411 639 l 788 639 l 774 601 l 397 601 m 1021 601 l 1035 639 l 1411 639 l 1397 601 l 1021 601 m 1681 693 l 1693 726 l 2071 726 l 2058 693 l 1681 693 m 432 693 l 444 726 l 821 726 l 808 693 l 432 693 m 1056 693 l 1068 726 l 1444 726 l 1432 693 l 1056 693 m 442 786 l 419 813 l 854 813 l 844 786 l 442 786 m 888 897 l 879 878 l 367 878 l 351 897 l 888 897 m 1717 786 l 1726 813 l 2103 813 l 2093 786 l 1717 786 m 1092 786 l 1101 813 l 1478 813 l 1468 786 l 1092 786 m 2136 897 l 2128 878 l 1751 878 l 1760 897 l 2136 897 m 1511 897 l 1503 878 l 1126 878 l 1135 897 l 1511 897 z "},"x":{"ha":1376,"x_min":165,"x_max":1667,"o":"m 875 339 l 850 324 l 333 324 l 421 376 l 1354 376 l 1401 324 l 888 324 l 875 339 m 489 508 l 451 551 l 1464 551 l 1393 508 l 489 508 m 540 449 l 526 464 l 1319 464 l 1292 447 l 1318 417 l 488 417 l 540 449 m 254 232 l 275 288 l 276 289 l 794 289 l 703 232 l 254 232 m 964 232 l 917 289 l 1431 289 l 1410 232 l 964 232 m 183 47 l 208 114 l 586 114 l 560 47 l 183 47 m 961 47 l 988 114 l 1364 114 l 1339 47 l 961 47 m 608 172 l 596 139 l 218 139 l 242 201 l 654 201 l 608 172 m 1011 175 l 989 201 l 1397 201 l 1374 139 l 997 139 l 1011 175 m 1556 607 l 1546 601 l 1026 601 l 1088 639 l 1568 639 l 1556 607 m 408 601 l 401 610 l 413 639 l 892 639 l 922 601 l 408 601 m 432 693 l 444 726 l 821 726 l 821 725 l 847 693 l 432 693 m 1176 693 l 1224 722 l 1225 726 l 1601 726 l 1589 693 l 1176 693 m 442 786 l 419 813 l 854 813 l 844 786 l 442 786 m 888 897 l 879 878 l 367 878 l 351 897 l 888 897 m 1321 0 l 944 0 l 954 26 l 1331 26 l 1321 0 m 1247 786 l 1257 813 l 1633 813 l 1624 786 l 1247 786 m 542 0 l 165 0 l 175 26 l 551 26 l 542 0 m 1667 897 l 1658 878 l 1282 878 l 1290 897 l 1667 897 z "},"y":{"ha":1376,"x_min":351,"x_max":1667,"o":"m 486 508 l 449 551 l 1464 551 l 1393 508 l 486 508 m 567 417 l 525 464 l 1319 464 l 1242 417 l 567 417 m 649 324 l 603 376 l 1175 376 l 1088 324 l 649 324 m 574 47 l 600 114 l 976 114 l 950 47 l 574 47 m 610 139 l 633 201 l 1010 201 l 986 139 l 610 139 m 644 232 l 667 289 l 1043 289 l 1021 232 l 644 232 m 1556 607 l 1546 601 l 1026 601 l 1086 639 l 1568 639 l 1556 607 m 404 601 l 400 607 l 413 639 l 893 639 l 924 601 l 404 601 m 1172 693 l 1224 725 l 1224 726 l 1601 726 l 1589 693 l 1172 693 m 432 693 l 444 726 l 821 726 l 821 725 l 847 693 l 432 693 m 442 786 l 419 813 l 854 813 l 844 786 l 442 786 m 888 897 l 879 878 l 367 878 l 351 897 l 888 897 m 1247 786 l 1257 813 l 1633 813 l 1624 786 l 1247 786 m 932 0 l 556 0 l 565 26 l 942 26 l 932 0 m 1667 897 l 1658 878 l 1282 878 l 1290 897 l 1667 897 z "},"z":{"ha":1264,"x_min":56,"x_max":1554,"o":"m 74 47 l 100 114 l 1253 114 l 1226 47 l 74 47 m 110 139 l 133 201 l 1286 201 l 1263 139 l 110 139 m 322 693 l 335 726 l 1488 726 l 1475 693 l 322 693 m 1210 0 l 56 0 l 65 26 l 1219 26 l 1210 0 m 358 786 l 368 813 l 1521 813 l 1511 786 l 358 786 m 157 232 l 258 289 l 781 289 l 678 232 l 157 232 m 321 324 l 415 376 l 936 376 l 842 324 l 321 324 m 488 417 l 572 464 l 1093 464 l 1008 417 l 488 417 m 1554 897 l 1546 878 l 393 878 l 401 897 l 1554 897 m 653 508 l 729 551 l 1249 551 l 1172 508 l 653 508 m 819 601 l 886 639 l 1406 639 l 1339 601 l 819 601 z "},"{":{"ha":981,"x_min":185,"x_max":1306,"o":"m 261 -46 l 289 26 l 936 26 l 908 -46 l 261 -46 m 878 -126 l 231 -126 l 256 -61 l 903 -61 l 878 -126 m 692 96 l 963 96 l 943 47 l 297 47 l 322 114 l 699 114 l 692 96 m 403 324 l 408 338 l 185 338 l 200 376 l 800 376 l 779 324 l 403 324 m 215 417 l 233 464 l 833 464 l 815 417 l 215 417 m 250 508 l 267 551 l 867 551 l 850 508 l 250 508 m 332 139 l 356 201 l 732 201 l 708 139 l 332 139 m 368 232 l 389 289 l 767 289 l 744 232 l 368 232 m 1232 796 l 961 796 l 957 786 l 581 786 l 592 813 l 1238 813 l 1232 796 m 617 878 l 625 900 l 1271 900 l 1263 878 l 617 878 m 510 601 l 525 639 l 901 639 l 886 601 l 510 601 m 546 693 l 558 726 l 935 726 l 922 693 l 546 693 m 651 971 l 658 988 l 1306 988 l 1299 971 l 651 971 z "},"|":{"ha":486,"x_min":-35,"x_max":844,"o":"m -32 -231 l -1 -149 l 375 -149 l 343 -231 l -32 -231 m 3 -137 l 32 -61 l 408 -61 l 379 -137 l 3 -137 m 38 -46 l 65 26 l 442 26 l 414 -46 l 38 -46 m 74 47 l 99 114 l 475 114 l 450 47 l 74 47 m 108 139 l 133 201 l 510 201 l 485 139 l 108 139 m 144 232 l 167 289 l 543 289 l 521 232 l 144 232 m 179 324 l 200 376 l 576 376 l 556 324 l 179 324 m 215 417 l 233 464 l 610 464 l 592 417 l 215 417 m 250 508 l 267 551 l 643 551 l 626 508 l 250 508 m 286 601 l 301 639 l 678 639 l 663 601 l 286 601 m 322 693 l 335 726 l 711 726 l 699 693 l 322 693 m 357 786 l 368 813 l 744 813 l 733 786 l 357 786 m 393 878 l 401 900 l 778 900 l 769 878 l 393 878 m 428 971 l 435 988 l 811 988 l 804 971 l 428 971 m 463 1063 l 468 1075 l 844 1075 l 839 1063 l 463 1063 m 342 -236 l -35 -236 l -33 -235 l 342 -235 l 342 -236 z "},"}":{"ha":932,"x_min":7,"x_max":1138,"o":"m 38 -46 l 65 26 l 713 26 l 685 -46 l 38 -46 m 654 -126 l 7 -126 l 32 -61 l 679 -61 l 654 -126 m 92 96 l 363 96 l 369 114 l 746 114 l 721 47 l 72 47 l 92 96 m 832 338 l 826 324 l 450 324 l 471 376 l 1071 376 l 1056 338 l 832 338 m 486 417 l 504 464 l 1104 464 l 1086 417 l 486 417 m 521 508 l 538 551 l 1138 551 l 1121 508 l 521 508 m 379 139 l 403 201 l 779 201 l 756 139 l 379 139 m 415 232 l 438 289 l 813 289 l 792 232 l 415 232 m 632 796 l 361 796 l 367 813 l 1015 813 l 1004 786 l 628 786 l 632 796 m 392 878 l 400 900 l 1049 900 l 1040 878 l 392 878 m 557 601 l 572 639 l 949 639 l 933 601 l 557 601 m 593 693 l 606 726 l 982 726 l 969 693 l 593 693 m 428 971 l 435 988 l 1082 988 l 1075 971 l 428 971 z "},"~":{"ha":751,"x_min":185,"x_max":954,"o":"m 311 508 l 342 551 l 653 551 l 651 508 l 311 508 m 797 335 l 493 335 l 493 376 l 828 376 l 797 335 m 654 417 l 690 464 l 892 464 l 857 417 l 654 417 m 244 417 l 279 464 l 479 464 l 444 417 l 244 417 m 724 508 l 756 551 l 954 551 l 924 508 l 724 508 m 385 335 l 185 335 l 215 376 l 415 376 l 385 335 m 494 417 l 494 464 l 650 464 l 650 417 l 494 417 z "},"":{"ha":346,"x_min":0,"x_max":0,"o":""},"":{"ha":1372,"x_min":167,"x_max":1663,"o":"m 185 47 l 211 114 l 1361 114 l 1335 47 l 185 47 m 221 139 l 244 201 l 1394 201 l 1371 139 l 221 139 m 179 324 l 200 376 l 1104 376 l 1083 324 l 179 324 m 250 508 l 267 551 l 1171 551 l 1154 508 l 250 508 m 432 693 l 444 726 l 1596 726 l 1583 693 l 432 693 m 442 786 l 419 813 l 1629 813 l 1619 786 l 442 786 m 1318 0 l 167 0 l 176 26 l 1328 26 l 1318 0 m 351 897 l 1663 897 l 1654 878 l 367 878 l 351 897 m 707 426 l 1124 426 l 1119 417 l 215 417 l 219 426 l 331 426 l 344 464 l 721 464 l 707 426 m 654 289 l 632 232 l 256 232 l 278 289 l 654 289 m 290 610 l 401 610 l 413 639 l 789 639 l 778 610 l 1194 610 l 1190 601 l 286 601 l 290 610 z "},"":{"ha":440,"x_min":56,"x_max":511,"o":"m 72 47 l 99 114 l 478 114 l 451 47 l 72 47 m 108 139 l 132 201 l 511 201 l 488 139 l 108 139 m 56 0 l 65 26 l 444 26 l 435 0 l 378 -46 l 217 -46 l 235 0 l 56 0 m 182 -137 l 211 -61 l 360 -61 l 267 -137 l 182 -137 m 239 -160 l 174 -160 l 178 -149 l 253 -149 l 239 -160 z "},"":{"ha":1267,"x_min":56,"x_max":1557,"o":"m 765 339 l 740 324 l 224 324 l 311 376 l 1244 376 l 1292 324 l 778 324 l 765 339 m 379 508 l 342 551 l 1354 551 l 1283 508 l 379 508 m 431 449 l 417 464 l 1210 464 l 1182 447 l 1208 417 l 378 417 l 431 449 m 144 232 l 165 288 l 167 289 l 685 289 l 593 232 l 144 232 m 854 232 l 807 289 l 1321 289 l 1300 232 l 854 232 m 74 47 l 99 114 l 476 114 l 450 47 l 74 47 m 851 47 l 878 114 l 1254 114 l 1229 47 l 851 47 m 499 172 l 486 139 l 108 139 l 132 201 l 544 201 l 499 172 m 901 175 l 879 201 l 1288 201 l 1264 139 l 888 139 l 901 175 m 1446 607 l 1436 601 l 917 601 l 978 639 l 1458 639 l 1446 607 m 299 601 l 292 610 l 303 639 l 782 639 l 813 601 l 299 601 m 324 693 l 336 726 l 711 726 l 711 725 l 738 693 l 324 693 m 1067 693 l 1114 722 l 1115 726 l 1492 726 l 1479 693 l 1067 693 m 1211 0 l 835 0 l 844 26 l 1221 26 l 1211 0 m 432 0 l 56 0 l 65 26 l 442 26 l 432 0 m 1138 786 l 1147 813 l 1524 813 l 1514 786 l 1138 786 m 358 786 l 368 813 l 744 813 l 735 786 l 358 786 m 778 897 l 769 878 l 393 878 l 401 897 l 778 897 m 1557 897 l 1549 878 l 1172 878 l 1181 897 l 1557 897 z "},"":{"ha":869,"x_min":56,"x_max":940,"o":"m 501 47 l 528 114 l 907 114 l 881 47 l 501 47 m 72 47 l 99 114 l 478 114 l 451 47 l 72 47 m 538 139 l 561 201 l 940 201 l 917 139 l 538 139 m 108 139 l 132 201 l 511 201 l 488 139 l 108 139 m 485 0 l 494 26 l 874 26 l 864 0 l 807 -46 l 646 -46 l 664 0 l 485 0 m 56 0 l 65 26 l 444 26 l 435 0 l 378 -46 l 217 -46 l 235 0 l 56 0 m 611 -137 l 640 -61 l 789 -61 l 696 -137 l 611 -137 m 182 -137 l 211 -61 l 360 -61 l 267 -137 l 182 -137 m 668 -160 l 603 -160 l 607 -149 l 682 -149 l 668 -160 m 239 -160 l 174 -160 l 178 -149 l 253 -149 l 239 -160 z "},"":{"ha":1360,"x_min":56,"x_max":1382,"o":"m 507 47 l 533 114 l 913 114 l 886 47 l 507 47 m 72 47 l 99 114 l 478 114 l 451 47 l 72 47 m 943 47 l 969 114 l 1349 114 l 1322 47 l 943 47 m 979 139 l 1003 201 l 1382 201 l 1358 139 l 979 139 m 108 139 l 132 201 l 511 201 l 488 139 l 108 139 m 543 139 l 567 201 l 946 201 l 922 139 l 543 139 m 56 0 l 65 26 l 444 26 l 435 0 l 56 0 m 926 0 l 936 26 l 1315 26 l 1306 0 l 926 0 m 490 0 l 500 26 l 879 26 l 869 0 l 490 0 z "},"":{"ha":786,"x_min":229,"x_max":1051,"o":"m 250 508 l 267 551 l 992 551 l 975 508 l 250 508 m 286 601 l 301 639 l 1026 639 l 1011 601 l 286 601 m 247 47 l 272 114 l 649 114 l 624 47 l 247 47 m 282 139 l 306 201 l 682 201 l 658 139 l 282 139 m 318 232 l 339 289 l 715 289 l 694 232 l 318 232 m 353 324 l 372 376 l 749 376 l 729 324 l 353 324 m 389 417 l 407 464 l 783 464 l 765 417 l 389 417 m 876 704 l 1051 704 l 1047 693 l 322 693 l 326 704 l 500 704 l 508 726 l 885 726 l 876 704 m 606 0 l 229 0 l 239 26 l 615 26 l 606 0 m 531 786 l 540 813 l 917 813 l 907 786 l 531 786 m 574 897 l 950 897 l 942 878 l 565 878 l 574 897 z "},"":{"ha":786,"x_min":129,"x_max":1051,"o":"m 144 232 l 167 289 l 892 289 l 869 232 l 144 232 m 179 324 l 200 376 l 925 376 l 904 324 l 179 324 m 250 508 l 267 551 l 992 551 l 975 508 l 250 508 m 854 190 l 679 190 l 660 139 l 283 139 l 303 190 l 129 190 l 133 201 l 858 201 l 854 190 m 286 601 l 301 639 l 1026 639 l 1011 601 l 286 601 m 247 47 l 274 114 l 650 114 l 624 47 l 247 47 m 389 417 l 407 464 l 783 464 l 765 417 l 389 417 m 876 704 l 1051 704 l 1047 693 l 322 693 l 326 704 l 500 704 l 508 726 l 885 726 l 876 704 m 531 786 l 540 813 l 917 813 l 907 786 l 531 786 m 606 0 l 229 0 l 239 26 l 615 26 l 606 0 m 574 897 l 950 897 l 942 878 l 565 878 l 574 897 z "},"":{"ha":821,"x_min":422,"x_max":1121,"o":"m 522 971 l 540 988 l 1088 988 l 1092 971 l 522 971 m 422 878 l 446 900 l 746 900 l 722 878 l 422 878 m 822 878 l 815 900 l 1114 900 l 1121 878 l 822 878 z "},"":{"ha":1844,"x_min":60,"x_max":1963,"o":"m 964 281 l 944 232 l 350 232 l 421 289 l 1307 289 l 1285 232 l 1046 232 l 1065 281 l 964 281 m 464 324 l 531 376 l 1340 376 l 1319 324 l 464 324 m 636 47 l 661 114 l 1239 114 l 1214 47 l 636 47 m 1231 47 l 1256 114 l 1833 114 l 1808 47 l 1231 47 m 997 449 l 1368 449 l 1356 417 l 581 417 l 621 449 l 260 449 l 265 464 l 1017 464 l 997 449 m 282 508 l 299 551 l 1126 551 l 1072 508 l 282 508 m 919 168 l 1021 168 l 1033 201 l 1274 201 l 1249 139 l 671 139 l 694 201 l 932 201 l 919 168 m 1514 168 l 1615 168 l 1628 201 l 1868 201 l 1843 139 l 1265 139 l 1289 201 l 1526 201 l 1514 168 m 561 617 l 663 617 l 671 639 l 1236 639 l 1189 601 l 318 601 l 333 639 l 569 639 l 561 617 m 1336 324 l 1357 376 l 1935 376 l 1914 324 l 1336 324 m 1558 281 l 1539 232 l 1301 232 l 1324 289 l 1901 289 l 1879 232 l 1640 232 l 1660 281 l 1558 281 m 118 47 l 201 114 l 578 114 l 494 47 l 118 47 m 233 139 l 311 201 l 688 201 l 610 139 l 233 139 m 693 693 l 706 726 l 944 726 l 933 697 l 969 726 l 1346 726 l 1304 693 l 693 693 m 1372 417 l 1385 449 l 1963 449 l 1950 417 l 1372 417 m 1196 0 l 618 0 l 628 26 l 1206 26 l 1196 0 m 1213 0 l 1222 26 l 1800 26 l 1790 0 l 1213 0 m 389 786 l 400 813 l 976 813 l 967 786 l 389 786 m 351 897 l 1010 897 l 1001 878 l 367 878 l 351 897 m 436 0 l 60 0 l 93 26 l 469 26 l 436 0 m 1044 786 l 1076 813 l 1453 813 l 1421 786 l 1044 786 m 354 693 l 367 726 l 604 726 l 592 693 l 354 693 m 1158 878 l 1183 897 l 1560 897 l 1535 878 l 1158 878 z "},"":{"ha":1375,"x_min":167,"x_max":1665,"o":"m 183 47 l 210 114 l 1365 114 l 1339 47 l 183 47 m 219 139 l 243 201 l 1399 201 l 1375 139 l 219 139 m 326 417 l 344 464 l 1499 464 l 1481 417 l 326 417 m 1068 324 l 1074 338 l 296 338 l 311 376 l 1465 376 l 1444 324 l 1068 324 m 361 508 l 378 551 l 1532 551 l 1515 508 l 361 508 m 432 693 l 444 726 l 1599 726 l 1586 693 l 432 693 m 442 786 l 419 813 l 1632 813 l 1622 786 l 442 786 m 1321 0 l 167 0 l 176 26 l 1331 26 l 1321 0 m 351 897 l 1665 897 l 1657 878 l 367 878 l 351 897 m 1032 232 l 1054 289 l 1432 289 l 1410 232 l 1032 232 m 397 601 l 413 639 l 788 639 l 774 601 l 397 601 m 1375 972 l 853 972 l 847 988 l 1390 988 l 1375 972 m 1169 1063 l 1183 1075 l 1483 1075 l 1471 1063 l 1169 1063 m 824 1063 l 819 1075 l 1118 1075 l 1122 1063 l 824 1063 z "},"":{"ha":528,"x_min":228,"x_max":750,"o":"m 304 324 l 271 376 l 585 376 l 617 324 l 304 324 m 228 449 l 249 464 l 563 464 l 542 449 l 561 417 l 247 417 l 228 449 m 360 232 l 325 289 l 626 289 l 549 232 l 360 232 m 310 508 l 369 551 l 683 551 l 624 508 l 310 508 m 439 601 l 490 639 l 726 639 l 750 601 l 439 601 m 417 139 l 379 201 l 506 201 l 419 139 l 417 139 m 565 693 l 611 726 l 672 726 l 693 693 l 565 693 z "},"":{"ha":2076,"x_min":167,"x_max":2367,"o":"m 185 47 l 210 114 l 2065 114 l 2039 47 l 185 47 m 219 139 l 243 201 l 2099 201 l 2075 139 l 219 139 m 432 693 l 444 726 l 2300 726 l 2288 693 l 432 693 m 1085 417 l 1103 464 l 2200 464 l 2182 417 l 1085 417 m 442 786 l 419 813 l 2333 813 l 2324 786 l 442 786 m 2022 0 l 167 0 l 176 26 l 2032 26 l 2022 0 m 2151 338 l 1432 338 l 1426 324 l 1050 324 l 1069 376 l 2167 376 l 2151 338 m 1121 508 l 1138 551 l 2233 551 l 2217 508 l 1121 508 m 351 897 l 2367 897 l 2358 878 l 367 878 l 351 897 m 1014 232 l 1036 289 l 1413 289 l 1390 232 l 1014 232 m 256 232 l 276 289 l 653 289 l 631 232 l 256 232 m 290 324 l 310 376 l 686 376 l 667 324 l 290 324 m 325 417 l 343 464 l 719 464 l 701 417 l 325 417 m 361 508 l 378 551 l 754 551 l 738 508 l 361 508 m 1157 601 l 1171 639 l 1547 639 l 1533 601 l 1157 601 m 397 601 l 411 639 l 788 639 l 774 601 l 397 601 z "},"":{"ha":1375,"x_min":165,"x_max":1664,"o":"m 183 47 l 210 114 l 1363 114 l 1336 47 l 183 47 m 219 139 l 243 201 l 1396 201 l 1372 139 l 219 139 m 517 693 l 489 726 l 1597 726 l 1585 693 l 517 693 m 442 786 l 419 813 l 1631 813 l 1621 786 l 442 786 m 1319 0 l 165 0 l 175 26 l 1329 26 l 1319 0 m 267 232 l 368 289 l 890 289 l 788 232 l 267 232 m 431 324 l 525 376 l 1046 376 l 951 324 l 431 324 m 351 897 l 1664 897 l 1656 878 l 367 878 l 351 897 m 597 417 l 682 464 l 1203 464 l 1118 417 l 597 417 m 763 508 l 839 551 l 1358 551 l 1282 508 l 763 508 m 929 601 l 996 639 l 1515 639 l 1449 601 l 929 601 m 1375 972 l 853 972 l 847 988 l 1390 988 l 1375 972 m 1169 1063 l 1183 1075 l 1483 1075 l 1471 1063 l 1169 1063 m 824 1063 l 819 1075 l 1118 1075 l 1122 1063 l 824 1063 z "},"":{"ha":440,"x_min":243,"x_max":703,"o":"m 622 513 l 243 513 l 257 551 l 636 551 l 622 513 m 276 601 l 292 639 l 671 639 l 656 601 l 276 601 m 311 693 l 324 726 l 703 726 l 690 693 l 311 693 m 390 786 l 424 813 l 557 813 l 547 786 l 390 786 m 503 878 l 524 894 l 589 894 l 582 878 l 503 878 z "},"":{"ha":440,"x_min":313,"x_max":771,"o":"m 313 693 l 326 726 l 706 726 l 692 693 l 313 693 m 349 786 l 360 813 l 739 813 l 728 786 l 349 786 m 385 878 l 392 896 l 771 896 l 764 878 l 385 878 m 457 601 l 471 639 l 642 639 l 596 601 l 457 601 m 489 514 l 424 514 l 438 551 l 535 551 l 489 514 z "},"":{"ha":875,"x_min":253,"x_max":1149,"o":"m 721 601 l 735 639 l 1114 639 l 1100 601 l 721 601 m 632 514 l 253 514 l 267 551 l 646 551 l 632 514 m 286 601 l 300 639 l 679 639 l 665 601 l 286 601 m 1067 515 l 688 515 l 701 551 l 1081 551 l 1067 515 m 756 693 l 769 726 l 1149 726 l 1135 693 l 756 693 m 321 693 l 333 726 l 713 726 l 700 693 l 321 693 m 833 786 l 865 813 l 1001 813 l 992 786 l 833 786 m 399 786 l 432 813 l 567 813 l 557 786 l 399 786 m 946 878 l 969 897 l 1035 897 l 1026 878 l 946 878 m 513 878 l 535 896 l 600 896 l 593 878 l 513 878 z "},"":{"ha":875,"x_min":321,"x_max":1214,"o":"m 757 693 l 769 726 l 1149 726 l 1136 693 l 757 693 m 321 693 l 335 726 l 714 726 l 700 693 l 321 693 m 792 786 l 801 813 l 1181 813 l 1171 786 l 792 786 m 357 786 l 368 813 l 747 813 l 736 786 l 357 786 m 826 878 l 835 897 l 1214 897 l 1206 878 l 826 878 m 393 878 l 400 896 l 779 896 l 772 878 l 393 878 m 465 601 l 479 639 l 650 639 l 604 601 l 465 601 m 900 601 l 914 639 l 1085 639 l 1038 601 l 900 601 m 497 514 l 432 514 l 446 551 l 543 551 l 497 514 m 932 515 l 867 515 l 881 551 l 976 551 l 932 515 z "},"":{"ha":1376,"x_min":167,"x_max":1667,"o":"m 185 47 l 210 114 l 1367 114 l 1340 47 l 185 47 m 219 139 l 243 201 l 1400 201 l 1376 139 l 219 139 m 256 232 l 276 289 l 1433 289 l 1411 232 l 256 232 m 290 324 l 310 376 l 1467 376 l 1446 324 l 290 324 m 325 417 l 343 464 l 1500 464 l 1482 417 l 325 417 m 361 508 l 378 551 l 1533 551 l 1517 508 l 361 508 m 397 601 l 411 639 l 1568 639 l 1553 601 l 397 601 m 432 693 l 444 726 l 1601 726 l 1589 693 l 432 693 m 442 786 l 419 813 l 1633 813 l 1624 786 l 442 786 m 1322 0 l 167 0 l 176 26 l 1332 26 l 1322 0 m 351 897 l 1667 897 l 1658 878 l 367 878 l 351 897 z "},"":{"ha":715,"x_min":185,"x_max":921,"o":"m 215 417 l 233 464 l 888 464 l 869 417 l 215 417 m 250 508 l 267 551 l 921 551 l 904 508 l 250 508 m 839 338 l 185 338 l 200 376 l 854 376 l 839 338 z "},"":{"ha":879,"x_min":185,"x_max":1085,"o":"m 215 417 l 233 464 l 1051 464 l 1033 417 l 215 417 m 250 508 l 267 551 l 1085 551 l 1068 508 l 250 508 m 1003 338 l 185 338 l 200 376 l 1018 376 l 1003 338 z "},"":{"ha":1042,"x_min":422,"x_max":1403,"o":"m 993 900 l 997 890 l 1007 900 l 1308 900 l 1285 878 l 822 878 l 815 900 l 993 900 m 522 971 l 540 988 l 965 988 l 971 971 l 522 971 m 422 878 l 446 900 l 746 900 l 722 878 l 422 878 m 1085 971 l 1103 988 l 1403 988 l 1385 971 l 1085 971 z "},"":{"ha":561,"x_min":428,"x_max":885,"o":"m 428 971 l 433 988 l 628 988 l 622 971 l 428 971 m 681 786 l 681 813 l 736 813 l 717 786 l 681 786 m 813 971 q 833 988 822 981 l 885 988 l 879 971 l 813 971 m 744 878 q 751 888 747 883 q 758 900 754 893 l 803 900 l 786 878 l 744 878 m 438 786 l 447 813 l 482 813 l 472 786 l 438 786 m 721 900 q 719 888 719 896 l 719 878 l 681 878 l 681 900 l 721 900 m 711 988 l 719 971 l 661 971 l 667 988 l 711 988 m 472 878 l 481 900 l 515 900 l 507 878 l 472 878 m 783 786 l 793 813 l 818 813 l 808 786 l 783 786 m 590 786 l 600 813 l 624 813 l 614 786 l 590 786 m 826 900 l 851 900 l 843 878 l 818 878 l 826 900 m 633 900 l 658 900 l 650 878 l 625 878 l 633 900 z "},"":{"ha":1375,"x_min":167,"x_max":1665,"o":"m 183 47 l 210 114 l 1365 114 l 1339 47 l 183 47 m 219 139 l 243 201 l 1399 201 l 1375 139 l 219 139 m 326 417 l 344 464 l 1499 464 l 1481 417 l 326 417 m 1068 324 l 1074 338 l 296 338 l 311 376 l 1465 376 l 1444 324 l 1068 324 m 361 508 l 378 551 l 1532 551 l 1515 508 l 361 508 m 432 693 l 444 726 l 1599 726 l 1586 693 l 432 693 m 442 786 l 419 813 l 1632 813 l 1622 786 l 442 786 m 1321 0 l 167 0 l 176 26 l 1331 26 l 1321 0 m 351 897 l 1665 897 l 1657 878 l 367 878 l 351 897 m 1032 232 l 1054 289 l 1432 289 l 1410 232 l 1032 232 m 397 601 l 413 639 l 788 639 l 774 601 l 397 601 m 1375 972 l 853 972 l 847 988 l 1390 988 l 1375 972 m 1169 1063 l 1183 1075 l 1483 1075 l 1471 1063 l 1169 1063 m 824 1063 l 819 1075 l 1118 1075 l 1122 1063 l 824 1063 z "},"":{"ha":528,"x_min":171,"x_max":694,"o":"m 208 324 l 281 376 l 594 376 l 522 324 l 208 324 m 381 449 l 371 464 l 685 464 l 694 449 l 650 417 l 336 417 l 381 449 m 207 232 l 171 289 l 474 289 l 396 232 l 207 232 m 343 508 l 317 551 l 631 551 l 657 508 l 343 508 m 289 601 l 340 639 l 576 639 l 600 601 l 289 601 m 264 139 l 225 201 l 353 201 l 267 139 l 264 139 m 415 693 l 461 726 l 522 726 l 543 693 l 415 693 z "},"":{"ha":2076,"x_min":167,"x_max":2367,"o":"m 185 47 l 210 114 l 2065 114 l 2039 47 l 185 47 m 219 139 l 243 201 l 2099 201 l 2075 139 l 219 139 m 432 693 l 444 726 l 2300 726 l 2288 693 l 432 693 m 1085 417 l 1103 464 l 2200 464 l 2182 417 l 1085 417 m 442 786 l 419 813 l 2333 813 l 2324 786 l 442 786 m 2022 0 l 167 0 l 176 26 l 2032 26 l 2022 0 m 2151 338 l 1432 338 l 1426 324 l 1050 324 l 1069 376 l 2167 376 l 2151 338 m 1121 508 l 1138 551 l 2233 551 l 2217 508 l 1121 508 m 351 897 l 2367 897 l 2358 878 l 367 878 l 351 897 m 1014 232 l 1036 289 l 1413 289 l 1390 232 l 1014 232 m 256 232 l 276 289 l 653 289 l 631 232 l 256 232 m 290 324 l 310 376 l 686 376 l 667 324 l 290 324 m 325 417 l 343 464 l 719 464 l 701 417 l 325 417 m 361 508 l 378 551 l 754 551 l 738 508 l 361 508 m 1157 601 l 1171 639 l 1547 639 l 1533 601 l 1157 601 m 397 601 l 411 639 l 788 639 l 774 601 l 397 601 z "},"":{"ha":1264,"x_min":56,"x_max":1554,"o":"m 74 47 l 100 114 l 1253 114 l 1226 47 l 74 47 m 110 139 l 133 201 l 1286 201 l 1263 139 l 110 139 m 322 693 l 335 726 l 1488 726 l 1475 693 l 322 693 m 1210 0 l 56 0 l 65 26 l 1219 26 l 1210 0 m 358 786 l 368 813 l 1521 813 l 1511 786 l 358 786 m 157 232 l 258 289 l 781 289 l 678 232 l 157 232 m 321 324 l 415 376 l 936 376 l 842 324 l 321 324 m 488 417 l 572 464 l 1093 464 l 1008 417 l 488 417 m 401 897 l 1554 897 l 1546 878 l 393 878 l 401 897 m 653 508 l 729 551 l 1249 551 l 1172 508 l 653 508 m 819 601 l 886 639 l 1406 639 l 1339 601 l 819 601 m 1274 972 l 751 972 l 746 988 l 1289 988 l 1274 972 m 1068 1063 l 1082 1075 l 1382 1075 l 1369 1063 l 1068 1063 m 722 1063 l 718 1075 l 1017 1075 l 1021 1063 l 722 1063 z "},"":{"ha":1376,"x_min":351,"x_max":1667,"o":"m 486 508 l 449 551 l 1464 551 l 1393 508 l 486 508 m 567 417 l 525 464 l 1319 464 l 1242 417 l 567 417 m 649 324 l 603 376 l 1175 376 l 1088 324 l 649 324 m 574 47 l 600 114 l 976 114 l 950 47 l 574 47 m 610 139 l 633 201 l 1010 201 l 986 139 l 610 139 m 644 232 l 667 289 l 1043 289 l 1021 232 l 644 232 m 1556 607 l 1546 601 l 1026 601 l 1086 639 l 1568 639 l 1556 607 m 404 601 l 400 607 l 413 639 l 893 639 l 924 601 l 404 601 m 1172 693 l 1224 725 l 1224 726 l 1601 726 l 1589 693 l 1172 693 m 432 693 l 444 726 l 821 726 l 821 725 l 847 693 l 432 693 m 442 786 l 419 813 l 854 813 l 844 786 l 442 786 m 888 897 l 879 878 l 367 878 l 351 897 l 888 897 m 1247 786 l 1257 813 l 1633 813 l 1624 786 l 1247 786 m 932 0 l 556 0 l 565 26 l 942 26 l 932 0 m 1667 897 l 1658 878 l 1282 878 l 1290 897 l 1667 897 m 738 972 l 743 988 l 1042 988 l 1036 972 l 738 972 m 1199 972 l 1204 988 l 1503 988 l 1497 972 l 1199 972 m 1232 1063 l 1238 1075 l 1536 1075 l 1531 1063 l 1232 1063 m 771 1063 l 776 1075 l 1075 1075 l 1069 1063 l 771 1063 z "},"":{"ha":599,"x_min":165,"x_max":888,"o":"m 183 47 l 210 114 l 589 114 l 563 47 l 183 47 m 219 139 l 243 201 l 622 201 l 599 139 l 219 139 m 254 232 l 276 289 l 656 289 l 633 232 l 254 232 m 289 324 l 310 376 l 689 376 l 668 324 l 289 324 m 325 417 l 343 464 l 722 464 l 704 417 l 325 417 m 360 508 l 376 551 l 756 551 l 739 508 l 360 508 m 433 693 l 446 726 l 822 726 l 810 693 l 433 693 m 442 786 l 419 813 l 854 813 l 844 786 l 442 786 m 888 897 l 879 878 l 367 878 l 351 897 l 888 897 m 165 0 l 175 26 l 554 26 l 544 0 l 165 0 z "},"":{"ha":1317,"x_min":167,"x_max":1607,"o":"m 185 47 l 210 114 l 1306 114 l 1279 47 l 185 47 m 219 139 l 243 201 l 1339 201 l 1315 139 l 219 139 m 1263 0 l 1015 0 l 997 -46 l 639 -46 l 657 0 l 167 0 l 176 26 l 1272 26 l 1263 0 m 432 693 l 444 726 l 1540 726 l 1528 693 l 432 693 m 442 786 l 419 813 l 1574 813 l 1564 786 l 442 786 m 568 -231 l 600 -149 l 958 -149 l 926 -231 l 568 -231 m 604 -137 l 633 -61 l 992 -61 l 963 -137 l 604 -137 m 1360 897 l 1607 897 l 1599 878 l 367 878 l 351 897 l 1001 897 l 1003 900 l 1361 900 l 1360 897 m 256 232 l 276 289 l 653 289 l 631 232 l 256 232 m 744 232 l 767 289 l 1125 289 l 1103 232 l 744 232 m 290 324 l 310 376 l 686 376 l 667 324 l 290 324 m 781 324 l 800 376 l 1158 376 l 1139 324 l 781 324 m 325 417 l 343 464 l 719 464 l 701 417 l 325 417 m 815 417 l 833 464 l 1192 464 l 1174 417 l 815 417 m 361 508 l 378 551 l 754 551 l 738 508 l 361 508 m 851 508 l 868 551 l 1226 551 l 1210 508 l 851 508 m 397 601 l 411 639 l 788 639 l 774 601 l 397 601 m 888 601 l 901 639 l 1260 639 l 1246 601 l 888 601 m 1029 971 l 1036 988 l 1394 988 l 1388 971 l 1029 971 m 1064 1063 l 1069 1075 l 1428 1075 l 1422 1063 l 1064 1063 m 925 -236 l 567 -236 l 567 -235 l 925 -235 l 925 -236 z "},"":{"ha":1229,"x_min":56,"x_max":1300,"o":"m 72 47 l 99 114 l 1267 114 l 1240 47 l 72 47 m 108 139 l 132 201 l 1300 201 l 1276 139 l 108 139 m 215 417 l 233 464 l 1193 464 l 1175 417 l 215 417 m 1144 338 l 721 338 l 715 324 l 339 324 l 344 338 l 185 338 l 200 376 l 1160 376 l 1144 338 m 250 508 l 267 551 l 1226 551 l 1210 508 l 250 508 m 1224 0 l 56 0 l 65 26 l 1233 26 l 1224 0 m 303 232 l 325 289 l 701 289 l 679 232 l 303 232 m 481 693 l 493 726 l 1119 726 l 1107 693 l 481 693 m 490 786 l 468 813 l 1153 813 l 1143 786 l 490 786 m 400 897 l 1186 897 l 1178 878 l 415 878 l 400 897 m 446 601 l 461 639 l 836 639 l 822 601 l 446 601 z "},"":{"ha":1376,"x_min":165,"x_max":1667,"o":"m 254 232 l 275 288 l 276 289 l 1431 289 l 1410 232 l 254 232 m 333 324 l 421 376 l 1354 376 l 1401 324 l 333 324 m 1556 607 l 1546 601 l 408 601 l 401 610 l 413 639 l 1568 639 l 1556 607 m 883 510 l 882 508 l 489 508 l 451 551 l 1464 551 l 1393 508 l 983 508 l 985 510 l 883 510 m 183 47 l 208 114 l 586 114 l 560 47 l 183 47 m 961 47 l 988 114 l 1364 114 l 1339 47 l 961 47 m 608 172 l 596 139 l 218 139 l 242 201 l 654 201 l 608 172 m 997 139 l 1011 175 l 989 201 l 1397 201 l 1374 139 l 997 139 m 949 417 l 967 464 l 1319 464 l 1292 447 l 1318 417 l 949 417 m 488 417 l 540 449 l 526 464 l 865 464 l 847 417 l 488 417 m 432 693 l 444 726 l 821 726 l 821 725 l 847 693 l 432 693 m 1175 693 l 1224 722 l 1225 726 l 1601 726 l 1589 693 l 1175 693 m 442 786 l 419 813 l 854 813 l 844 786 l 442 786 m 351 897 l 888 897 l 879 878 l 367 878 l 351 897 m 1321 0 l 944 0 l 954 26 l 1331 26 l 1321 0 m 1247 786 l 1257 813 l 1633 813 l 1624 786 l 1247 786 m 542 0 l 165 0 l 175 26 l 551 26 l 542 0 m 1282 878 l 1290 897 l 1667 897 l 1658 878 l 1282 878 z "},"":{"ha":1376,"x_min":343,"x_max":1667,"o":"m 343 139 l 367 201 l 1276 201 l 1253 139 l 343 139 m 414 324 l 435 376 l 1344 376 l 1324 324 l 414 324 m 486 508 l 449 551 l 1464 551 l 1393 508 l 486 508 m 457 433 l 551 433 l 525 464 l 1319 464 l 1269 433 l 1367 433 l 1360 417 l 450 417 l 457 433 m 1029 254 l 1297 254 l 1289 232 l 379 232 l 388 254 l 653 254 l 665 289 l 1042 289 l 1029 254 m 574 47 l 599 114 l 975 114 l 950 47 l 574 47 m 1556 607 l 1546 601 l 1026 601 l 1086 639 l 1568 639 l 1556 607 m 400 607 l 413 639 l 893 639 l 924 601 l 404 601 l 400 607 m 1172 693 l 1224 725 l 1224 726 l 1601 726 l 1589 693 l 1172 693 m 432 693 l 444 726 l 821 726 l 821 725 l 847 693 l 432 693 m 442 786 l 419 813 l 854 813 l 844 786 l 442 786 m 351 897 l 888 897 l 879 878 l 367 878 l 351 897 m 1247 786 l 1257 813 l 1633 813 l 1624 786 l 1247 786 m 932 0 l 556 0 l 565 26 l 942 26 l 932 0 m 1282 878 l 1290 897 l 1667 897 l 1658 878 l 1282 878 z "},"":{"ha":599,"x_min":165,"x_max":888,"o":"m 183 47 l 208 114 l 588 114 l 563 47 l 183 47 m 218 139 l 242 201 l 621 201 l 597 139 l 218 139 m 254 232 l 275 289 l 654 289 l 633 232 l 254 232 m 289 324 l 308 376 l 688 376 l 668 324 l 289 324 m 739 511 l 363 511 l 378 551 l 754 551 l 739 511 m 397 601 l 411 639 l 788 639 l 774 601 l 397 601 m 432 693 l 444 726 l 821 726 l 808 693 l 432 693 m 442 786 l 419 813 l 854 813 l 844 786 l 442 786 m 888 897 l 879 878 l 367 878 l 351 897 l 888 897 m 165 0 l 175 26 l 554 26 l 544 0 l 165 0 z "},"":{"ha":1267,"x_min":56,"x_max":1557,"o":"m 144 232 l 165 288 l 167 289 l 1121 289 l 1099 232 l 144 232 m 224 324 l 311 376 l 1154 376 l 1133 324 l 224 324 m 774 510 l 772 508 l 453 508 l 469 551 l 1354 551 l 1283 508 l 874 508 l 875 510 l 774 510 m 1446 607 l 1436 601 l 489 601 l 503 639 l 1458 639 l 1446 607 m 74 47 l 99 114 l 476 114 l 450 47 l 74 47 m 499 172 l 486 139 l 108 139 l 132 201 l 544 201 l 499 172 m 1182 447 l 1169 417 l 839 417 l 857 464 l 1210 464 l 1182 447 m 378 417 l 431 449 l 436 464 l 756 464 l 738 417 l 378 417 m 1065 693 l 1114 722 l 1115 726 l 1492 726 l 1479 693 l 1065 693 m 432 0 l 56 0 l 65 26 l 442 26 l 432 0 m 1138 786 l 1147 813 l 1524 813 l 1514 786 l 1138 786 m 1172 878 l 1181 897 l 1557 897 l 1549 878 l 1172 878 z "},"":{"ha":869,"x_min":392,"x_max":1194,"o":"m 392 878 l 400 900 l 699 900 l 690 878 l 392 878 m 853 878 l 861 900 l 1160 900 l 1151 878 l 853 878 m 889 971 l 896 988 l 1194 988 l 1188 971 l 889 971 m 428 971 l 435 988 l 733 988 l 726 971 l 428 971 z "},"":{"ha":425,"x_min":369,"x_max":704,"o":"m 588 726 q 581 723 585 724 q 575 719 578 722 l 563 713 q 493 693 514 694 l 457 693 q 408 713 428 697 q 396 726 397 724 l 476 726 q 491 722 486 724 q 496 721 496 721 q 495 720 496 721 q 492 719 494 719 q 504 722 496 719 q 526 726 513 724 l 588 726 m 590 979 q 536 971 563 979 l 489 971 q 501 978 494 974 q 514 985 507 982 q 519 986 515 986 q 528 988 525 986 l 661 988 q 665 985 664 985 l 679 971 l 631 971 q 596 979 615 979 l 590 979 m 447 786 q 445 799 446 792 q 446 813 444 806 l 476 813 q 499 786 476 790 l 447 786 m 599 813 q 576 786 589 796 l 529 786 q 571 813 553 790 l 599 813 m 369 786 l 369 799 q 371 813 369 808 l 399 813 q 398 799 397 806 q 400 786 399 792 l 369 786 m 676 813 q 656 786 669 800 l 628 786 q 640 799 635 793 q 650 813 646 806 l 676 813 m 471 878 q 478 890 474 885 q 486 900 482 894 l 519 900 q 499 878 506 889 l 471 878 m 394 878 q 401 889 397 883 q 408 900 406 894 l 438 900 q 429 890 433 894 q 422 878 425 885 l 394 878 m 704 900 q 703 878 704 882 l 678 878 l 678 900 l 704 900 m 624 900 l 624 888 l 599 882 q 596 892 597 888 q 593 900 594 897 l 624 900 z "},"":{"ha":1268,"x_min":56,"x_max":1558,"o":"m 74 47 l 100 114 l 1258 114 l 1232 47 l 74 47 m 110 139 l 133 201 l 1292 201 l 1268 139 l 110 139 m 561 338 l 556 324 l 179 324 l 200 376 l 1358 376 l 1338 324 l 960 324 l 965 338 l 561 338 m 215 417 l 233 464 l 1392 464 l 1374 417 l 215 417 m 250 508 l 267 551 l 1425 551 l 1408 508 l 250 508 m 321 693 l 333 726 l 1493 726 l 1481 693 l 321 693 m 357 786 l 367 813 l 1525 813 l 1515 786 l 357 786 m 1214 0 l 56 0 l 65 26 l 1224 26 l 1214 0 m 392 878 l 400 897 l 1558 897 l 1550 878 l 392 878 m 924 232 l 946 289 l 1325 289 l 1303 232 l 924 232 m 144 232 l 167 289 l 542 289 l 519 232 l 144 232 m 1067 601 l 1081 639 l 1460 639 l 1444 601 l 1067 601 z "},"":{"ha":924,"x_min":228,"x_max":1146,"o":"m 700 324 l 667 376 l 981 376 l 1013 324 l 700 324 m 304 324 l 271 376 l 585 376 l 617 324 l 304 324 m 624 449 l 644 464 l 958 464 l 938 449 l 957 417 l 643 417 l 624 449 m 247 417 l 228 449 l 249 464 l 563 464 l 542 449 l 561 417 l 247 417 m 756 232 l 721 289 l 1022 289 l 944 232 l 756 232 m 360 232 l 325 289 l 626 289 l 549 232 l 360 232 m 706 508 l 765 551 l 1079 551 l 1019 508 l 706 508 m 310 508 l 369 551 l 683 551 l 624 508 l 310 508 m 835 601 l 886 639 l 1122 639 l 1146 601 l 835 601 m 439 601 l 490 639 l 726 639 l 750 601 l 439 601 m 417 139 l 379 201 l 506 201 l 419 139 l 417 139 m 813 139 l 775 201 l 901 201 l 815 139 l 813 139 m 565 693 l 611 726 l 672 726 l 693 693 l 565 693 m 961 693 l 1007 726 l 1068 726 l 1089 693 l 961 693 z "},"":{"ha":715,"x_min":185,"x_max":921,"o":"m 215 417 l 233 464 l 888 464 l 869 417 l 215 417 m 611 324 l 617 338 l 185 338 l 200 376 l 854 376 l 833 324 l 611 324 m 250 508 l 267 551 l 921 551 l 904 508 l 250 508 m 540 139 l 564 201 l 786 201 l 763 139 l 540 139 m 576 232 l 597 289 l 821 289 l 799 232 l 576 232 z "},"":{"ha":601,"x_min":185,"x_max":807,"o":"m 215 417 l 233 464 l 774 464 l 756 417 l 215 417 m 250 508 l 267 551 l 807 551 l 790 508 l 250 508 m 725 338 l 185 338 l 200 376 l 740 376 l 725 338 z "},"":{"ha":425,"x_min":367,"x_max":704,"o":"m 592 726 q 563 711 579 717 q 528 699 543 703 q 503 693 514 696 l 447 693 q 408 711 422 697 q 392 726 397 718 l 453 726 q 481 719 472 721 q 489 718 489 718 q 502 720 496 719 q 514 721 508 721 q 528 722 521 721 q 544 726 535 722 l 592 726 m 589 976 q 546 971 567 976 l 490 971 q 513 982 500 976 q 518 985 515 983 q 524 988 521 986 l 657 988 q 660 985 660 986 q 664 982 661 983 q 672 976 668 979 q 678 971 675 974 l 625 971 q 594 976 613 976 l 589 976 m 368 786 q 367 799 367 793 q 369 813 368 806 l 403 813 q 401 799 401 806 q 400 786 400 793 l 368 786 m 561 813 q 568 793 563 804 l 569 786 l 542 786 l 542 788 q 537 801 539 796 q 532 813 535 807 l 561 813 m 676 813 q 656 786 669 800 l 628 786 q 649 813 643 804 l 676 813 m 447 786 l 457 813 l 485 813 l 474 786 l 447 786 m 614 900 q 615 890 615 894 q 614 883 614 886 q 612 879 613 881 q 611 878 611 878 l 582 878 q 583 881 583 878 q 582 900 588 892 l 614 900 m 394 878 q 411 900 401 888 l 440 900 q 432 888 436 893 q 424 878 428 883 l 394 878 m 704 900 q 703 878 704 882 l 676 878 q 677 889 676 883 q 676 900 678 894 l 704 900 m 482 878 l 490 900 l 517 900 l 508 878 l 482 878 z "},"":{"ha":829,"x_min":321,"x_max":1119,"o":"m 321 693 l 333 726 l 1053 726 l 1040 693 l 321 693 m 357 786 l 367 813 l 1086 813 l 1076 786 l 357 786 m 1119 897 l 1111 878 l 392 878 l 400 897 l 1119 897 z "},"":{"ha":408,"x_min":392,"x_max":733,"o":"m 504 896 l 596 896 l 597 900 l 699 900 l 690 878 l 392 878 l 400 900 l 506 900 l 504 896 m 428 971 l 435 988 l 733 988 l 726 971 l 428 971 z "},"":{"ha":717,"x_min":57,"x_max":956,"o":"m 74 47 l 100 114 l 754 114 l 728 47 l 74 47 m 110 139 l 133 201 l 788 201 l 764 139 l 110 139 m 250 508 l 267 551 l 921 551 l 904 508 l 250 508 m 286 601 l 301 639 l 956 639 l 940 601 l 286 601 m 711 0 l 57 0 l 67 26 l 721 26 l 711 0 m 394 324 l 415 376 l 638 376 l 617 324 l 394 324 m 431 417 l 449 464 l 671 464 l 653 417 l 431 417 m 538 693 l 550 726 l 772 726 l 760 693 l 538 693 m 572 786 l 582 813 l 804 813 l 794 786 l 572 786 m 596 267 l 374 267 l 382 289 l 604 289 l 596 267 m 838 897 l 829 878 l 607 878 l 615 897 l 838 897 z "},"":{"ha":1206,"x_min":56,"x_max":1228,"o":"m 74 47 l 100 114 l 1194 114 l 1168 47 l 74 47 m 110 139 l 133 201 l 1228 201 l 1204 139 l 110 139 m 1151 0 l 56 0 l 65 26 l 1161 26 l 1151 0 m 144 232 l 167 289 l 542 289 l 519 232 l 144 232 m 179 324 l 200 376 l 575 376 l 556 324 l 179 324 m 215 417 l 233 464 l 608 464 l 590 417 l 215 417 m 250 508 l 267 551 l 643 551 l 626 508 l 250 508 m 286 601 l 301 639 l 676 639 l 663 601 l 286 601 m 322 693 l 335 726 l 710 726 l 697 693 l 322 693 m 357 786 l 367 813 l 743 813 l 733 786 l 357 786 m 776 897 l 768 878 l 392 878 l 400 897 l 776 897 z "},"":{"ha":1265,"x_min":161,"x_max":1556,"o":"m 279 139 l 225 201 l 1197 201 l 1093 139 l 279 139 m 360 47 l 301 114 l 1053 114 l 943 47 l 360 47 m 1317 274 l 1247 232 l 732 232 l 824 289 l 1322 289 l 1317 274 m 197 232 l 161 274 l 167 289 l 664 289 l 713 232 l 197 232 m 879 324 l 963 376 l 1356 376 l 1335 324 l 879 324 m 179 324 l 200 376 l 590 376 l 635 324 l 179 324 m 993 417 l 1011 464 l 1389 464 l 1371 417 l 993 417 m 215 417 l 233 464 l 608 464 l 590 417 l 215 417 m 1029 508 l 1046 551 l 1422 551 l 1406 508 l 1029 508 m 250 508 l 267 551 l 643 551 l 626 508 l 250 508 m 1065 601 l 1079 639 l 1457 639 l 1442 601 l 1065 601 m 286 601 l 301 639 l 676 639 l 663 601 l 286 601 m 401 0 l 378 26 l 908 26 l 865 0 l 401 0 m 1100 693 l 1113 726 l 1490 726 l 1478 693 l 1100 693 m 322 693 l 335 726 l 710 726 l 697 693 l 322 693 m 1136 786 l 1146 813 l 1522 813 l 1513 786 l 1136 786 m 357 786 l 367 813 l 743 813 l 733 786 l 357 786 m 776 897 l 768 878 l 392 878 l 400 897 l 776 897 m 1556 897 l 1547 878 l 1171 878 l 1179 897 l 1556 897 z "},"":{"ha":531,"x_min":421,"x_max":840,"o":"m 421 878 l 444 900 l 744 900 l 721 878 l 421 878 m 521 971 l 539 988 l 840 988 l 822 971 l 521 971 z "},"":{"ha":1265,"x_min":289,"x_max":1556,"o":"m 375 508 l 338 551 l 1353 551 l 1282 508 l 375 508 m 456 417 l 414 464 l 1208 464 l 1131 417 l 456 417 m 538 324 l 492 376 l 1064 376 l 976 324 l 538 324 m 463 47 l 489 114 l 865 114 l 839 47 l 463 47 m 499 139 l 522 201 l 899 201 l 875 139 l 499 139 m 533 232 l 556 289 l 932 289 l 910 232 l 533 232 m 1444 607 l 1435 601 l 915 601 l 975 639 l 1457 639 l 1444 607 m 293 601 l 289 607 l 301 639 l 782 639 l 813 601 l 293 601 m 1061 693 l 1113 725 l 1113 726 l 1490 726 l 1478 693 l 1061 693 m 322 693 l 335 726 l 710 726 l 710 725 l 736 693 l 322 693 m 1136 786 l 1146 813 l 1522 813 l 1513 786 l 1136 786 m 821 0 l 444 0 l 454 26 l 831 26 l 821 0 m 357 786 l 367 813 l 743 813 l 733 786 l 357 786 m 776 897 l 768 878 l 392 878 l 400 897 l 776 897 m 1556 897 l 1547 878 l 1171 878 l 1179 897 l 1556 897 z "},"":{"ha":1375,"x_min":167,"x_max":1667,"o":"m 290 324 l 310 376 l 1467 376 l 1446 324 l 290 324 m 325 417 l 343 464 l 1500 464 l 1482 417 l 325 417 m 747 533 l 1150 533 l 1157 551 l 1533 551 l 1517 508 l 361 508 l 378 551 l 754 551 l 747 533 m 432 693 l 444 726 l 1601 726 l 1589 693 l 432 693 m 442 786 l 419 813 l 1633 813 l 1624 786 l 442 786 m 1033 47 l 974 114 l 1404 114 l 1457 47 l 1033 47 m 951 139 l 894 201 l 1333 201 l 1383 139 l 951 139 m 867 232 l 815 289 l 1264 289 l 1310 232 l 867 232 m 1667 897 l 1658 878 l 367 878 l 351 897 l 1667 897 m 185 47 l 210 114 l 586 114 l 561 47 l 185 47 m 219 139 l 243 201 l 619 201 l 596 139 l 219 139 m 256 232 l 276 289 l 654 289 l 632 232 l 256 232 m 1176 601 l 1190 639 l 1568 639 l 1553 601 l 1176 601 m 397 601 l 411 639 l 788 639 l 774 601 l 397 601 m 1076 0 l 1053 26 l 1474 26 l 1496 0 l 1076 0 m 543 0 l 167 0 l 176 26 l 553 26 l 543 0 z "},"":{"ha":513,"x_min":143,"x_max":703,"o":"m 143 232 l 165 289 l 568 289 l 546 232 l 143 232 m 179 324 l 199 376 l 601 376 l 582 324 l 179 324 m 214 417 l 232 464 l 635 464 l 617 417 l 214 417 m 250 508 l 267 551 l 669 551 l 653 508 l 250 508 m 286 601 l 300 639 l 703 639 l 689 601 l 286 601 z "},"":{"ha":313,"x_min":-210,"x_max":258,"o":"m -210 -231 l -178 -149 l 200 -149 l 169 -231 l -210 -231 m -151 -81 l 28 -81 l 35 -61 l 235 -61 l 204 -137 l -174 -137 l -151 -81 m 40 -46 l 58 0 l 258 0 l 240 -46 l 40 -46 z "},"":{"ha":486,"x_min":56,"x_max":776,"o":"m 74 47 l 100 114 l 476 114 l 450 47 l 74 47 m 110 139 l 133 201 l 510 201 l 486 139 l 110 139 m 144 232 l 167 289 l 543 289 l 521 232 l 144 232 m 179 324 l 200 376 l 576 376 l 556 324 l 179 324 m 215 417 l 233 464 l 610 464 l 592 417 l 215 417 m 250 508 l 267 551 l 643 551 l 626 508 l 250 508 m 286 601 l 301 639 l 678 639 l 663 601 l 286 601 m 322 693 l 335 726 l 711 726 l 699 693 l 322 693 m 357 786 l 367 813 l 743 813 l 733 786 l 357 786 m 432 0 l 56 0 l 65 26 l 442 26 l 432 0 m 400 897 l 776 897 l 768 878 l 392 878 l 400 897 z "},"":{"ha":719,"x_min":318,"x_max":1044,"o":"m 318 601 l 332 639 l 911 639 l 896 601 l 318 601 m 603 725 l 704 725 l 704 726 l 944 726 l 932 693 l 353 693 l 365 726 l 603 726 l 603 725 m 424 878 l 432 900 l 1011 900 l 1003 878 l 424 878 m 421 971 l 407 988 l 1044 988 l 1038 971 l 421 971 m 728 786 l 738 813 l 978 813 l 967 786 l 728 786 m 389 786 l 399 813 l 636 813 l 626 786 l 389 786 z "},"":{"ha":924,"x_min":171,"x_max":1090,"o":"m 604 324 l 676 376 l 990 376 l 918 324 l 604 324 m 208 324 l 281 376 l 594 376 l 522 324 l 208 324 m 776 449 l 767 464 l 1081 464 l 1090 449 l 1046 417 l 732 417 l 776 449 m 381 449 l 371 464 l 685 464 l 694 449 l 650 417 l 336 417 l 381 449 m 603 232 l 567 289 l 869 289 l 792 232 l 603 232 m 207 232 l 171 289 l 474 289 l 396 232 l 207 232 m 739 508 l 713 551 l 1026 551 l 1053 508 l 739 508 m 343 508 l 317 551 l 631 551 l 657 508 l 343 508 m 685 601 l 736 639 l 972 639 l 996 601 l 685 601 m 289 601 l 340 639 l 576 639 l 600 601 l 289 601 m 264 139 l 225 201 l 353 201 l 267 139 l 264 139 m 660 139 l 621 201 l 749 201 l 663 139 l 660 139 m 811 693 l 857 726 l 918 726 l 939 693 l 811 693 m 415 693 l 461 726 l 522 726 l 543 693 l 415 693 z "},"":{"ha":1525,"x_min":188,"x_max":1608,"o":"m 414 167 l 263 201 l 1368 201 l 1340 139 l 1289 139 l 1224 161 l 1194 139 l 358 139 l 414 167 m 1364 257 l 1342 268 l 1314 251 l 1328 232 l 238 232 l 324 263 l 279 289 l 385 289 l 369 257 l 410 269 l 418 289 l 458 289 q 500 244 458 244 q 515 247 508 244 q 538 253 521 250 l 546 279 q 511 275 535 275 q 485 289 486 275 l 586 289 q 583 282 583 281 q 633 257 588 257 q 647 258 640 257 q 664 260 653 258 q 717 289 689 260 l 760 289 l 747 257 l 781 263 l 790 289 l 836 289 q 883 260 858 260 l 894 289 l 929 289 l 918 265 l 964 275 l 969 289 l 999 289 q 994 281 996 285 q 989 272 992 276 l 1026 272 l 1043 289 l 1107 289 l 1111 272 l 1132 268 l 1139 289 l 1168 289 l 1160 265 l 1192 268 l 1200 289 l 1251 289 q 1294 267 1269 267 l 1303 289 l 1513 289 q 1522 242 1526 258 q 1520 240 1522 242 q 1514 232 1518 239 l 1392 251 l 1382 232 l 1328 232 l 1364 257 m 481 425 l 450 421 l 447 417 l 283 417 l 278 431 l 286 464 l 347 464 l 407 458 l 410 464 l 1529 464 l 1479 451 l 1538 417 l 1439 417 l 1443 425 l 1404 432 l 1397 417 l 1351 417 l 1354 425 l 1326 432 l 1319 417 l 1225 417 l 1221 425 l 1217 417 l 1174 417 q 1149 436 1167 436 q 1122 431 1126 436 q 1114 423 1118 426 q 1107 417 1110 419 l 1026 417 l 1033 432 l 997 425 l 993 417 l 943 417 l 944 418 l 919 425 l 915 417 l 810 417 l 810 418 l 808 417 l 757 417 q 722 425 744 425 l 701 425 q 692 420 696 422 q 686 417 689 418 l 622 417 l 628 429 q 565 417 592 425 l 476 417 l 481 425 m 557 549 q 578 551 569 549 l 1403 551 l 1386 542 l 1536 508 l 433 508 l 456 551 l 535 551 q 546 549 543 549 l 557 549 m 583 107 l 392 114 l 1163 114 l 1082 51 l 1015 107 l 861 47 l 804 47 l 807 51 l 790 86 l 539 47 l 532 47 l 583 107 m 747 639 l 785 604 l 874 639 l 1000 639 l 996 624 l 1114 639 l 1251 639 l 1226 601 l 649 601 l 700 639 l 747 639 m 315 350 l 303 376 l 428 376 l 401 324 l 219 324 l 188 343 l 315 350 m 1608 360 l 1481 350 q 1488 337 1485 343 q 1496 324 1492 331 l 1389 324 l 1417 376 l 1607 376 l 1608 360 m 638 376 q 617 352 626 365 q 601 324 608 339 l 494 324 q 512 348 501 336 q 538 372 522 360 q 540 374 539 374 q 543 376 542 375 l 638 376 m 728 349 q 722 334 725 340 q 717 324 719 328 l 635 324 q 636 326 635 325 l 640 338 q 678 376 663 367 l 729 376 q 735 368 733 372 q 731 356 732 361 q 728 349 731 351 m 1067 376 q 1022 324 1043 350 l 985 324 l 1008 376 l 1067 376 m 1315 324 l 1336 376 l 1381 376 l 1358 324 l 1315 324 m 907 324 l 928 376 l 972 376 l 947 324 l 907 324 m 868 324 l 835 376 l 897 376 l 875 324 l 868 324 m 1275 324 l 1246 376 l 1303 376 l 1279 324 l 1275 324 m 1153 324 l 1172 376 l 1201 376 l 1182 324 l 1153 324 m 461 326 q 460 324 461 325 q 460 324 460 324 l 435 324 l 458 376 l 490 376 q 465 338 476 363 l 461 326 m 772 372 l 772 376 l 793 376 l 772 324 l 744 324 q 758 347 751 335 q 772 372 765 358 m 1131 346 l 1076 346 l 1106 376 l 1129 376 l 1131 346 m 1222 346 q 1226 334 1225 339 q 1231 324 1228 329 l 1214 324 l 1222 346 m 783 17 l 790 26 l 808 26 l 783 17 m 808 338 q 811 330 810 333 q 814 324 813 326 l 803 324 l 808 338 m 647 288 q 638 289 639 288 l 664 289 q 647 288 660 288 z "},"":{"ha":1588,"x_min":189,"x_max":1676,"o":"m 535 47 l 554 78 l 310 99 l 315 114 l 422 114 l 614 107 l 563 47 l 535 47 m 1033 78 l 957 47 l 892 47 l 1046 107 l 1113 51 l 1193 114 l 1235 114 l 1144 47 l 1057 47 l 1033 78 m 1304 624 l 1535 624 l 1549 604 q 1547 601 1546 601 l 1257 601 l 1282 639 l 1313 639 l 1304 624 m 333 139 l 364 161 l 215 189 q 196 201 200 189 l 293 201 l 444 167 l 389 139 l 333 139 m 806 47 l 807 51 l 776 47 l 569 47 l 821 86 l 838 51 l 835 47 l 806 47 m 1161 346 l 1160 376 l 1203 376 l 1183 324 l 1053 324 q 1097 376 1074 350 l 1136 376 l 1107 346 l 1161 346 m 189 324 l 193 360 l 308 376 l 333 376 l 346 350 l 218 343 l 250 324 l 189 324 m 1417 542 l 1433 551 l 1501 551 l 1654 508 l 1567 508 l 1417 542 m 211 232 l 278 269 l 240 289 l 310 289 l 354 263 l 268 232 l 211 232 m 1676 372 l 1672 371 l 1639 332 l 1553 332 l 1556 324 l 1526 324 q 1519 337 1522 331 q 1511 350 1515 343 l 1639 360 l 1638 376 l 1676 376 l 1676 372 m 844 324 q 842 330 843 326 q 839 338 840 333 l 833 324 l 803 324 l 824 376 l 865 376 l 899 324 l 844 324 m 1261 324 q 1257 334 1258 329 q 1253 346 1256 339 l 1244 324 l 1213 324 l 1232 376 l 1276 376 l 1306 324 l 1261 324 m 1642 464 q 1574 443 1617 447 q 1605 430 1590 436 q 1631 417 1619 424 l 1568 417 l 1510 451 l 1560 464 l 1642 464 m 747 289 q 694 260 719 260 q 677 258 683 258 q 664 257 671 257 q 614 282 618 257 q 617 289 614 281 l 668 289 q 678 288 669 288 q 694 289 690 288 l 747 289 m 515 289 q 542 275 517 275 q 576 279 565 275 l 568 253 q 545 247 551 250 q 531 244 539 244 q 489 289 489 244 l 515 289 m 814 -11 l 788 0 l 797 26 l 821 26 l 814 17 l 839 26 l 906 26 l 814 -11 m 568 372 q 542 348 553 360 q 525 324 532 336 l 490 324 q 491 324 490 324 q 492 326 492 325 l 496 338 q 521 376 507 363 l 574 376 q 571 374 572 375 q 568 372 569 374 m 829 639 l 838 633 l 851 639 l 904 639 l 815 604 l 778 639 l 829 639 m 1371 139 l 1399 201 l 1432 201 l 1401 139 l 1371 139 m 978 324 l 1003 376 l 1039 376 l 1015 324 l 978 324 m 422 508 q 433 531 428 519 q 443 551 438 542 l 486 551 l 464 508 l 422 508 m 1310 324 l 1333 376 l 1367 376 l 1346 324 l 1310 324 m 1389 324 l 1411 376 l 1447 376 l 1419 324 l 1389 324 m 632 324 q 648 352 639 339 q 668 376 657 365 l 708 376 q 671 338 693 367 l 667 326 q 665 324 665 325 l 632 324 m 635 601 q 685 639 661 622 l 731 639 l 679 601 l 635 601 m 803 372 q 789 347 796 358 q 775 324 782 335 l 747 324 q 753 334 750 328 q 758 349 756 340 q 762 356 761 351 q 765 368 763 361 q 760 376 764 372 l 803 376 l 803 372 m 432 324 l 458 376 l 489 376 l 465 324 l 432 324 m 906 324 l 928 376 l 958 376 l 938 324 l 906 324 m 1571 289 l 1582 263 l 1581 250 l 1578 243 q 1575 238 1576 240 q 1572 232 1574 235 l 1544 232 q 1551 240 1549 239 q 1553 242 1553 242 q 1543 289 1557 258 l 1571 289 m 278 443 l 288 464 l 317 464 l 308 431 l 314 417 l 289 417 l 278 443 m 1413 232 l 1422 251 l 1544 232 l 1413 232 m 1388 114 q 1347 97 1375 97 q 1316 101 1328 97 q 1289 114 1304 104 l 1388 114 m 914 260 q 867 289 889 260 l 925 289 l 914 260 m 1225 139 l 1254 161 l 1319 139 l 1225 139 m 1138 417 q 1144 423 1140 419 q 1153 431 1149 426 q 1179 436 1157 436 q 1204 417 1197 436 l 1138 417 m 811 263 l 778 257 l 790 289 l 821 289 l 811 263 m 1031 639 l 1144 639 l 1026 624 l 1031 639 m 440 269 l 400 257 l 415 289 l 449 289 l 440 269 m 1394 257 l 1358 232 l 1344 251 l 1372 268 l 1394 257 m 990 693 l 1047 715 l 1063 693 l 990 693 m 994 275 l 949 265 l 960 289 l 1000 289 l 994 275 m 1325 267 q 1282 289 1300 267 l 1333 289 l 1325 267 m 1222 268 l 1190 265 l 1199 289 l 1231 289 l 1222 268 m 1074 289 l 1057 272 l 1019 272 q 1024 281 1022 276 q 1029 289 1026 285 l 1074 289 m 1163 268 l 1142 272 l 1138 289 l 1169 289 l 1163 268 m 1474 425 l 1469 417 l 1428 417 l 1435 432 l 1474 425 m 717 417 q 723 420 719 418 q 732 425 726 422 l 753 425 q 788 417 775 425 l 717 417 m 482 601 q 510 613 497 613 l 515 613 l 546 601 l 482 601 m 550 17 l 536 26 l 622 26 l 550 17 m 658 429 l 653 417 l 596 417 q 658 429 622 425 m 1064 432 l 1057 417 l 1024 417 l 1028 425 l 1064 432 m 1350 417 l 1357 432 l 1385 425 l 1382 417 l 1350 417 m 511 425 l 507 417 l 478 417 l 481 421 l 511 425 m 438 458 l 378 464 l 440 464 l 438 458 m 946 417 l 950 425 l 975 418 l 974 417 l 946 417 m 608 551 q 588 549 600 549 l 576 549 q 565 551 574 549 l 608 551 m 1247 417 l 1251 425 l 1256 417 l 1247 417 m 1075 25 l 1074 26 l 1083 26 l 1075 25 m 839 417 l 840 418 l 840 417 l 839 417 z "},"":{"ha":1119,"x_min":154,"x_max":1228,"o":"m 915 346 l 914 376 l 957 376 l 938 324 l 807 324 q 851 376 828 350 l 890 376 l 861 346 l 915 346 m 599 324 q 596 330 597 326 q 593 338 594 333 l 588 324 l 557 324 l 578 376 l 619 376 l 653 324 l 599 324 m 1015 324 q 1011 334 1013 329 q 1007 346 1010 339 l 999 324 l 967 324 l 986 376 l 1031 376 l 1060 324 l 1015 324 m 501 289 q 449 260 474 260 q 431 258 438 258 q 418 257 425 257 q 368 282 372 257 q 371 289 368 281 l 422 289 q 432 288 424 288 q 449 289 444 288 l 501 289 m 269 289 q 296 275 271 275 q 331 279 319 275 l 322 253 q 299 247 306 250 q 285 244 293 244 q 243 289 243 244 l 269 289 m 322 372 q 297 348 307 360 q 279 324 286 336 l 244 324 q 245 324 244 324 q 246 326 246 325 l 250 338 q 275 376 261 363 l 328 376 q 325 374 326 375 q 322 372 324 374 m 732 324 l 757 376 l 793 376 l 769 324 l 732 324 m 1064 324 l 1088 376 l 1121 376 l 1100 324 l 1064 324 m 1143 324 l 1165 376 l 1201 376 l 1174 324 l 1143 324 m 386 324 q 402 352 393 339 q 422 376 411 365 l 463 376 q 425 338 447 367 l 421 326 q 419 324 419 325 l 386 324 m 557 372 q 543 347 550 358 q 529 324 536 335 l 501 324 q 507 334 504 328 q 513 349 510 340 q 516 356 515 351 q 519 368 517 361 q 514 376 518 372 l 557 376 l 557 372 m 186 324 l 213 376 l 243 376 l 219 324 l 186 324 m 660 324 l 682 376 l 713 376 l 692 324 l 660 324 m 668 260 q 621 289 643 260 l 679 289 l 668 260 m 892 417 q 899 423 894 419 q 907 431 903 426 q 933 436 911 436 q 958 417 951 436 l 892 417 m 565 263 l 532 257 l 544 289 l 575 289 l 565 263 m 194 269 l 154 257 l 169 289 l 203 289 l 194 269 m 1149 257 l 1113 232 l 1099 251 l 1126 268 l 1149 257 m 749 275 l 703 265 l 714 289 l 754 289 l 749 275 m 1079 267 q 1036 289 1054 267 l 1088 289 l 1079 267 m 976 268 l 944 265 l 953 289 l 985 289 l 976 268 m 828 289 l 811 272 l 774 272 q 778 281 776 276 q 783 289 781 285 l 828 289 m 917 268 l 896 272 l 892 289 l 924 289 l 917 268 m 1228 425 l 1224 417 l 1182 417 l 1189 432 l 1228 425 m 471 417 q 477 420 474 418 q 486 425 481 422 l 507 425 q 542 417 529 425 l 471 417 m 413 429 l 407 417 l 350 417 q 413 429 376 425 m 818 432 l 811 417 l 778 417 l 782 425 l 818 432 m 1104 417 l 1111 432 l 1139 425 l 1136 417 l 1104 417 m 265 425 l 261 417 l 232 417 l 235 421 l 265 425 m 700 417 l 704 425 l 729 418 l 728 417 l 700 417 m 1001 417 l 1006 425 l 1010 417 l 1001 417 m 593 417 l 594 418 l 594 417 l 593 417 z "},"":{"ha":1268,"x_min":56,"x_max":1557,"o":"m 74 47 l 100 114 l 1257 114 l 1231 47 l 74 47 m 110 139 l 133 201 l 1290 201 l 1267 139 l 110 139 m 215 417 l 233 464 l 1392 464 l 1374 417 l 215 417 m 563 338 l 557 324 l 179 324 l 200 376 l 1358 376 l 1343 338 l 563 338 m 250 508 l 267 551 l 1425 551 l 1408 508 l 250 508 m 56 0 l 65 26 l 1222 26 l 1213 0 l 56 0 m 144 232 l 167 289 l 544 289 l 522 232 l 144 232 m 1103 693 l 1115 726 l 1492 726 l 1479 693 l 1103 693 m 1138 786 l 1147 813 l 1524 813 l 1514 786 l 1138 786 m 1557 897 l 1549 878 l 1172 878 l 1181 897 l 1557 897 z "},"":{"ha":1375,"x_min":167,"x_max":1667,"o":"m 290 324 l 310 376 l 1467 376 l 1446 324 l 290 324 m 325 417 l 343 464 l 1500 464 l 1482 417 l 325 417 m 653 288 l 632 232 l 256 232 l 276 289 l 1433 289 l 1411 232 l 1035 232 l 1056 288 l 653 288 m 432 693 l 444 726 l 1601 726 l 1589 693 l 432 693 m 739 510 l 1142 510 l 1157 551 l 1533 551 l 1517 508 l 361 508 l 378 551 l 754 551 l 739 510 m 442 786 l 419 813 l 1633 813 l 1624 786 l 442 786 m 1667 897 l 1658 878 l 367 878 l 351 897 l 1667 897 m 964 47 l 989 114 l 1367 114 l 1340 47 l 964 47 m 185 47 l 210 114 l 586 114 l 561 47 l 185 47 m 999 139 l 1022 201 l 1400 201 l 1376 139 l 999 139 m 219 139 l 243 201 l 619 201 l 596 139 l 219 139 m 1176 601 l 1190 639 l 1568 639 l 1553 601 l 1176 601 m 397 601 l 411 639 l 788 639 l 774 601 l 397 601 m 1322 0 l 946 0 l 956 26 l 1332 26 l 1322 0 m 543 0 l 167 0 l 176 26 l 553 26 l 543 0 m 1019 972 l 1014 988 l 1313 988 l 1318 972 l 1019 972 m 989 1063 l 985 1075 l 1286 1075 l 1290 1063 l 989 1063 z "},"":{"ha":1375,"x_min":167,"x_max":1667,"o":"m 290 324 l 310 376 l 1467 376 l 1446 324 l 290 324 m 325 417 l 343 464 l 1500 464 l 1482 417 l 325 417 m 653 288 l 632 232 l 256 232 l 276 289 l 1433 289 l 1411 232 l 1035 232 l 1056 288 l 653 288 m 432 693 l 444 726 l 1601 726 l 1589 693 l 432 693 m 739 510 l 1142 510 l 1157 551 l 1533 551 l 1517 508 l 361 508 l 378 551 l 754 551 l 739 510 m 442 786 l 419 813 l 1633 813 l 1624 786 l 442 786 m 1667 897 l 1658 878 l 367 878 l 351 897 l 1667 897 m 964 47 l 989 114 l 1367 114 l 1340 47 l 964 47 m 185 47 l 210 114 l 586 114 l 561 47 l 185 47 m 999 139 l 1022 201 l 1400 201 l 1376 139 l 999 139 m 219 139 l 243 201 l 619 201 l 596 139 l 219 139 m 1176 601 l 1190 639 l 1568 639 l 1553 601 l 1176 601 m 397 601 l 411 639 l 788 639 l 774 601 l 397 601 m 1322 0 l 946 0 l 956 26 l 1332 26 l 1322 0 m 543 0 l 167 0 l 176 26 l 553 26 l 543 0 m 1208 972 l 910 972 l 925 988 l 1225 988 l 1208 972 m 1006 1063 l 1018 1075 l 1321 1075 l 1307 1063 l 1006 1063 z "},"":{"ha":1375,"x_min":167,"x_max":1667,"o":"m 290 324 l 310 376 l 1467 376 l 1446 324 l 290 324 m 325 417 l 343 464 l 1500 464 l 1482 417 l 325 417 m 1035 232 l 1056 288 l 653 288 l 632 232 l 256 232 l 276 289 l 1433 289 l 1411 232 l 1035 232 m 432 693 l 444 726 l 1601 726 l 1589 693 l 432 693 m 739 510 l 1142 510 l 1157 551 l 1533 551 l 1517 508 l 361 508 l 378 551 l 754 551 l 739 510 m 442 786 l 419 813 l 1633 813 l 1624 786 l 442 786 m 351 897 l 1667 897 l 1658 878 l 367 878 l 351 897 m 964 47 l 989 114 l 1367 114 l 1340 47 l 964 47 m 185 47 l 210 114 l 586 114 l 561 47 l 185 47 m 999 139 l 1022 201 l 1400 201 l 1376 139 l 999 139 m 219 139 l 243 201 l 619 201 l 596 139 l 219 139 m 1176 601 l 1190 639 l 1568 639 l 1553 601 l 1176 601 m 397 601 l 411 639 l 788 639 l 774 601 l 397 601 m 1322 0 l 946 0 l 956 26 l 1332 26 l 1322 0 m 543 0 l 167 0 l 176 26 l 553 26 l 543 0 m 1036 972 l 738 972 l 753 988 l 1053 988 l 1036 972 m 1200 972 l 1194 988 l 1492 988 l 1497 972 l 1200 972 m 833 1063 l 846 1075 l 1149 1075 l 1135 1063 l 833 1063 m 1171 1063 l 1167 1075 l 1464 1075 l 1468 1063 l 1171 1063 z "},"":{"ha":1375,"x_min":167,"x_max":1667,"o":"m 290 324 l 310 376 l 1467 376 l 1446 324 l 290 324 m 325 417 l 343 464 l 1500 464 l 1482 417 l 325 417 m 1035 232 l 1056 288 l 653 288 l 632 232 l 256 232 l 276 289 l 1433 289 l 1411 232 l 1035 232 m 432 693 l 444 726 l 1601 726 l 1589 693 l 432 693 m 739 510 l 1142 510 l 1157 551 l 1533 551 l 1517 508 l 361 508 l 378 551 l 754 551 l 739 510 m 442 786 l 419 813 l 1633 813 l 1624 786 l 442 786 m 351 897 l 1667 897 l 1658 878 l 367 878 l 351 897 m 964 47 l 989 114 l 1367 114 l 1340 47 l 964 47 m 185 47 l 210 114 l 586 114 l 561 47 l 185 47 m 999 139 l 1022 201 l 1400 201 l 1376 139 l 999 139 m 219 139 l 243 201 l 619 201 l 596 139 l 219 139 m 1176 601 l 1190 639 l 1568 639 l 1553 601 l 1176 601 m 397 601 l 411 639 l 788 639 l 774 601 l 397 601 m 543 0 l 167 0 l 176 26 l 553 26 l 543 0 m 1322 0 l 946 0 l 956 26 l 1332 26 l 1322 0 m 1497 972 l 1097 972 l 1092 988 l 1513 988 l 1497 972 m 933 972 l 635 972 l 650 988 l 950 988 l 933 972 m 731 1063 l 743 1075 l 1046 1075 l 1032 1063 l 731 1063 m 1292 1063 l 1306 1075 l 1606 1075 l 1593 1063 l 1292 1063 m 1068 1063 l 1064 1075 l 1240 1075 l 1244 1063 l 1068 1063 z "},"":{"ha":1375,"x_min":167,"x_max":1667,"o":"m 290 324 l 310 376 l 1467 376 l 1446 324 l 290 324 m 325 417 l 343 464 l 1500 464 l 1482 417 l 325 417 m 653 288 l 632 232 l 256 232 l 276 289 l 1433 289 l 1411 232 l 1035 232 l 1056 288 l 653 288 m 432 693 l 444 726 l 1601 726 l 1589 693 l 432 693 m 739 510 l 1142 510 l 1157 551 l 1533 551 l 1517 508 l 361 508 l 378 551 l 754 551 l 739 510 m 442 786 l 419 813 l 1633 813 l 1624 786 l 442 786 m 1667 897 l 1658 878 l 367 878 l 351 897 l 1667 897 m 964 47 l 989 114 l 1367 114 l 1340 47 l 964 47 m 185 47 l 210 114 l 586 114 l 561 47 l 185 47 m 999 139 l 1022 201 l 1400 201 l 1376 139 l 999 139 m 219 139 l 243 201 l 619 201 l 596 139 l 219 139 m 1176 601 l 1190 639 l 1568 639 l 1553 601 l 1176 601 m 397 601 l 411 639 l 788 639 l 774 601 l 397 601 m 1322 0 l 946 0 l 956 26 l 1332 26 l 1322 0 m 543 0 l 167 0 l 176 26 l 553 26 l 543 0 m 738 972 l 743 988 l 1042 988 l 1036 972 l 738 972 m 1199 972 l 1204 988 l 1503 988 l 1497 972 l 1199 972 m 1232 1063 l 1238 1075 l 1536 1075 l 1531 1063 l 1232 1063 m 771 1063 l 776 1075 l 1075 1075 l 1069 1063 l 771 1063 z "},"":{"ha":1375,"x_min":167,"x_max":1667,"o":"m 290 324 l 310 376 l 1467 376 l 1446 324 l 290 324 m 325 417 l 343 464 l 1500 464 l 1482 417 l 325 417 m 1035 232 l 1056 288 l 653 288 l 632 232 l 256 232 l 276 289 l 1433 289 l 1411 232 l 1035 232 m 432 693 l 444 726 l 1601 726 l 1589 693 l 432 693 m 739 510 l 1142 510 l 1157 551 l 1533 551 l 1517 508 l 361 508 l 378 551 l 754 551 l 739 510 m 442 786 l 419 813 l 1633 813 l 1624 786 l 442 786 m 351 897 l 1667 897 l 1658 878 l 367 878 l 351 897 m 964 47 l 989 114 l 1367 114 l 1340 47 l 964 47 m 185 47 l 210 114 l 586 114 l 561 47 l 185 47 m 999 139 l 1022 201 l 1400 201 l 1376 139 l 999 139 m 219 139 l 243 201 l 619 201 l 596 139 l 219 139 m 1176 601 l 1190 639 l 1568 639 l 1553 601 l 1176 601 m 397 601 l 411 639 l 788 639 l 774 601 l 397 601 m 543 0 l 167 0 l 176 26 l 553 26 l 543 0 m 1322 0 l 946 0 l 956 26 l 1332 26 l 1322 0 m 1263 972 l 964 972 l 969 988 l 1268 988 l 1263 972 m 997 1063 l 1003 1075 l 1107 1075 l 1101 1063 l 997 1063 m 1193 1063 l 1199 1075 l 1301 1075 l 1296 1063 l 1193 1063 z "},"":{"ha":2094,"x_min":167,"x_max":2385,"o":"m 2169 338 l 1451 338 l 1446 324 l 290 324 l 310 376 l 2185 376 l 2169 338 m 325 417 l 343 464 l 2218 464 l 2200 417 l 325 417 m 963 47 l 988 114 l 2083 114 l 2057 47 l 963 47 m 997 139 l 1021 201 l 2117 201 l 2093 139 l 997 139 m 739 510 l 1140 510 l 1156 551 l 2251 551 l 2235 508 l 361 508 l 378 551 l 754 551 l 739 510 m 432 693 l 444 726 l 2318 726 l 2306 693 l 432 693 m 442 786 l 419 813 l 2351 813 l 2342 786 l 442 786 m 1033 232 l 1054 288 l 653 288 l 632 232 l 256 232 l 276 289 l 1432 289 l 1410 232 l 1033 232 m 351 897 l 2385 897 l 2376 878 l 367 878 l 351 897 m 2040 0 l 944 0 l 954 26 l 2050 26 l 2040 0 m 185 47 l 210 114 l 586 114 l 561 47 l 185 47 m 219 139 l 243 201 l 619 201 l 596 139 l 219 139 m 1175 601 l 1189 639 l 1567 639 l 1553 601 l 1175 601 m 397 601 l 411 639 l 788 639 l 774 601 l 397 601 m 543 0 l 167 0 l 176 26 l 553 26 l 543 0 z "},"":{"ha":1317,"x_min":167,"x_max":1607,"o":"m 185 47 l 210 114 l 1306 114 l 1279 47 l 185 47 m 219 139 l 243 201 l 1339 201 l 1315 139 l 219 139 m 668 -46 l 686 0 l 167 0 l 176 26 l 1272 26 l 1263 0 l 886 0 l 868 -46 l 668 -46 m 432 693 l 444 726 l 1540 726 l 1528 693 l 432 693 m 418 -231 l 450 -149 l 828 -149 l 797 -231 l 418 -231 m 442 786 l 419 813 l 1574 813 l 1564 786 l 442 786 m 476 -81 l 656 -81 l 663 -61 l 863 -61 l 832 -137 l 454 -137 l 476 -81 m 351 897 l 1607 897 l 1599 878 l 367 878 l 351 897 m 256 232 l 276 289 l 653 289 l 631 232 l 256 232 m 290 324 l 310 376 l 686 376 l 667 324 l 290 324 m 325 417 l 343 464 l 719 464 l 701 417 l 325 417 m 361 508 l 378 551 l 754 551 l 738 508 l 361 508 m 397 601 l 411 639 l 788 639 l 774 601 l 397 601 z "},"":{"ha":1376,"x_min":167,"x_max":1667,"o":"m 185 47 l 210 114 l 1365 114 l 1339 47 l 185 47 m 219 139 l 243 201 l 1399 201 l 1375 139 l 219 139 m 325 417 l 343 464 l 1500 464 l 1482 417 l 325 417 m 672 338 l 667 324 l 290 324 l 310 376 l 1467 376 l 1451 338 l 672 338 m 361 508 l 378 551 l 1533 551 l 1517 508 l 361 508 m 432 693 l 444 726 l 1600 726 l 1588 693 l 432 693 m 442 786 l 419 813 l 1633 813 l 1624 786 l 442 786 m 1322 0 l 167 0 l 176 26 l 1332 26 l 1322 0 m 1667 897 l 1658 878 l 367 878 l 351 897 l 1667 897 m 256 232 l 276 289 l 653 289 l 631 232 l 256 232 m 397 601 l 411 639 l 788 639 l 774 601 l 397 601 m 1019 972 l 1014 988 l 1313 988 l 1318 972 l 1019 972 m 989 1063 l 985 1075 l 1286 1075 l 1290 1063 l 989 1063 z "},"":{"ha":1376,"x_min":167,"x_max":1667,"o":"m 185 47 l 210 114 l 1365 114 l 1339 47 l 185 47 m 219 139 l 243 201 l 1399 201 l 1375 139 l 219 139 m 325 417 l 343 464 l 1500 464 l 1482 417 l 325 417 m 1451 338 l 672 338 l 667 324 l 290 324 l 310 376 l 1467 376 l 1451 338 m 361 508 l 378 551 l 1533 551 l 1517 508 l 361 508 m 432 693 l 444 726 l 1600 726 l 1588 693 l 432 693 m 442 786 l 419 813 l 1633 813 l 1624 786 l 442 786 m 1322 0 l 167 0 l 176 26 l 1332 26 l 1322 0 m 351 897 l 1667 897 l 1658 878 l 367 878 l 351 897 m 256 232 l 276 289 l 653 289 l 631 232 l 256 232 m 397 601 l 411 639 l 788 639 l 774 601 l 397 601 m 1208 972 l 910 972 l 925 988 l 1225 988 l 1208 972 m 1006 1063 l 1018 1075 l 1321 1075 l 1307 1063 l 1006 1063 z "},"":{"ha":1376,"x_min":167,"x_max":1667,"o":"m 185 47 l 210 114 l 1365 114 l 1339 47 l 185 47 m 219 139 l 243 201 l 1399 201 l 1375 139 l 219 139 m 325 417 l 343 464 l 1500 464 l 1482 417 l 325 417 m 1451 338 l 672 338 l 667 324 l 290 324 l 310 376 l 1467 376 l 1451 338 m 361 508 l 378 551 l 1533 551 l 1517 508 l 361 508 m 432 693 l 444 726 l 1600 726 l 1588 693 l 432 693 m 442 786 l 419 813 l 1633 813 l 1624 786 l 442 786 m 1322 0 l 167 0 l 176 26 l 1332 26 l 1322 0 m 351 897 l 1667 897 l 1658 878 l 367 878 l 351 897 m 256 232 l 276 289 l 653 289 l 631 232 l 256 232 m 397 601 l 411 639 l 788 639 l 774 601 l 397 601 m 1036 972 l 738 972 l 753 988 l 1053 988 l 1036 972 m 1200 972 l 1194 988 l 1492 988 l 1497 972 l 1200 972 m 833 1063 l 846 1075 l 1149 1075 l 1135 1063 l 833 1063 m 1171 1063 l 1167 1075 l 1464 1075 l 1468 1063 l 1171 1063 z "},"":{"ha":1376,"x_min":167,"x_max":1667,"o":"m 185 47 l 210 114 l 1365 114 l 1339 47 l 185 47 m 219 139 l 243 201 l 1399 201 l 1375 139 l 219 139 m 325 417 l 343 464 l 1500 464 l 1482 417 l 325 417 m 672 338 l 667 324 l 290 324 l 310 376 l 1467 376 l 1451 338 l 672 338 m 361 508 l 378 551 l 1533 551 l 1517 508 l 361 508 m 432 693 l 444 726 l 1600 726 l 1588 693 l 432 693 m 442 786 l 419 813 l 1633 813 l 1624 786 l 442 786 m 1322 0 l 167 0 l 176 26 l 1332 26 l 1322 0 m 1667 897 l 1658 878 l 367 878 l 351 897 l 1667 897 m 256 232 l 276 289 l 653 289 l 631 232 l 256 232 m 397 601 l 411 639 l 788 639 l 774 601 l 397 601 m 738 972 l 743 988 l 1042 988 l 1036 972 l 738 972 m 1199 972 l 1204 988 l 1503 988 l 1497 972 l 1199 972 m 771 1063 l 776 1075 l 1075 1075 l 1069 1063 l 771 1063 m 1232 1063 l 1238 1075 l 1536 1075 l 1531 1063 l 1232 1063 z "},"":{"ha":597,"x_min":167,"x_max":888,"o":"m 185 47 l 210 114 l 588 114 l 561 47 l 185 47 m 219 139 l 243 201 l 621 201 l 597 139 l 219 139 m 256 232 l 276 289 l 654 289 l 632 232 l 256 232 m 290 324 l 310 376 l 688 376 l 667 324 l 290 324 m 325 417 l 343 464 l 721 464 l 703 417 l 325 417 m 361 508 l 378 551 l 754 551 l 738 508 l 361 508 m 397 601 l 411 639 l 789 639 l 774 601 l 397 601 m 432 693 l 444 726 l 822 726 l 810 693 l 432 693 m 442 786 l 419 813 l 854 813 l 844 786 l 442 786 m 888 897 l 879 878 l 367 878 l 351 897 l 888 897 m 543 0 l 167 0 l 176 26 l 553 26 l 543 0 m 581 972 l 575 988 l 874 988 l 879 972 l 581 972 m 550 1063 l 546 1075 l 847 1075 l 851 1063 l 550 1063 z "},"":{"ha":597,"x_min":167,"x_max":906,"o":"m 185 47 l 210 114 l 588 114 l 561 47 l 185 47 m 219 139 l 243 201 l 621 201 l 597 139 l 219 139 m 256 232 l 276 289 l 654 289 l 632 232 l 256 232 m 290 324 l 310 376 l 688 376 l 667 324 l 290 324 m 325 417 l 343 464 l 721 464 l 703 417 l 325 417 m 361 508 l 378 551 l 754 551 l 738 508 l 361 508 m 397 601 l 411 639 l 789 639 l 774 601 l 397 601 m 432 693 l 444 726 l 822 726 l 810 693 l 432 693 m 442 786 l 419 813 l 854 813 l 844 786 l 442 786 m 888 897 l 879 878 l 367 878 l 351 897 l 888 897 m 543 0 l 167 0 l 176 26 l 553 26 l 543 0 m 793 972 l 494 972 l 510 988 l 810 988 l 793 972 m 590 1063 l 603 1075 l 906 1075 l 892 1063 l 590 1063 z "},"":{"ha":597,"x_min":167,"x_max":1078,"o":"m 185 47 l 210 114 l 588 114 l 561 47 l 185 47 m 219 139 l 243 201 l 621 201 l 597 139 l 219 139 m 256 232 l 276 289 l 654 289 l 632 232 l 256 232 m 290 324 l 310 376 l 688 376 l 667 324 l 290 324 m 325 417 l 343 464 l 721 464 l 703 417 l 325 417 m 361 508 l 378 551 l 754 551 l 738 508 l 361 508 m 397 601 l 411 639 l 789 639 l 774 601 l 397 601 m 432 693 l 444 726 l 822 726 l 810 693 l 432 693 m 442 786 l 419 813 l 854 813 l 844 786 l 442 786 m 351 897 l 888 897 l 879 878 l 367 878 l 351 897 m 167 0 l 176 26 l 553 26 l 543 0 l 167 0 m 617 972 l 318 972 l 333 988 l 633 988 l 617 972 m 781 972 l 775 988 l 1072 988 l 1078 972 l 781 972 m 414 1063 l 426 1075 l 729 1075 l 715 1063 l 414 1063 m 751 1063 l 747 1075 l 1044 1075 l 1049 1063 l 751 1063 z "},"":{"ha":597,"x_min":167,"x_max":1118,"o":"m 185 47 l 210 114 l 588 114 l 561 47 l 185 47 m 219 139 l 243 201 l 621 201 l 597 139 l 219 139 m 256 232 l 276 289 l 654 289 l 632 232 l 256 232 m 290 324 l 310 376 l 688 376 l 667 324 l 290 324 m 325 417 l 343 464 l 721 464 l 703 417 l 325 417 m 361 508 l 378 551 l 754 551 l 738 508 l 361 508 m 397 601 l 411 639 l 789 639 l 774 601 l 397 601 m 432 693 l 444 726 l 822 726 l 810 693 l 432 693 m 442 786 l 419 813 l 854 813 l 844 786 l 442 786 m 888 897 l 879 878 l 367 878 l 351 897 l 888 897 m 543 0 l 167 0 l 176 26 l 553 26 l 543 0 m 319 972 l 325 988 l 624 988 l 618 972 l 319 972 m 781 972 l 786 988 l 1085 988 l 1079 972 l 781 972 m 814 1063 l 819 1075 l 1118 1075 l 1113 1063 l 814 1063 m 353 1063 l 358 1075 l 657 1075 l 651 1063 l 353 1063 z "},"":{"ha":1376,"x_min":167,"x_max":1667,"o":"m 219 139 l 243 201 l 1311 201 l 1207 139 l 219 139 m 185 47 l 210 114 l 1165 114 l 1054 47 l 185 47 m 432 693 l 444 726 l 1601 726 l 1589 693 l 432 693 m 442 786 l 419 813 l 1633 813 l 1624 786 l 442 786 m 215 417 l 233 464 l 888 464 l 869 417 l 215 417 m 290 324 l 296 338 l 185 338 l 200 376 l 854 376 l 839 338 l 672 338 l 667 324 l 290 324 m 1426 271 l 1361 232 l 843 232 l 933 289 l 1433 289 l 1426 271 m 250 508 l 267 551 l 921 551 l 904 508 l 250 508 m 351 897 l 1667 897 l 1658 878 l 367 878 l 351 897 m 989 324 l 1074 376 l 1467 376 l 1446 324 l 989 324 m 976 0 l 167 0 l 176 26 l 1019 26 l 976 0 m 256 232 l 276 289 l 653 289 l 631 232 l 256 232 m 1104 417 l 1122 464 l 1500 464 l 1482 417 l 1104 417 m 1140 508 l 1157 551 l 1533 551 l 1517 508 l 1140 508 m 1176 601 l 1190 639 l 1568 639 l 1553 601 l 1176 601 m 397 601 l 413 639 l 788 639 l 774 601 l 397 601 z "},"":{"ha":1376,"x_min":167,"x_max":1667,"o":"m 325 417 l 343 464 l 1500 464 l 1482 417 l 325 417 m 743 324 l 710 376 l 1467 376 l 1446 324 l 743 324 m 800 232 l 764 289 l 1433 289 l 1411 232 l 800 232 m 858 139 l 819 201 l 1400 201 l 1376 139 l 858 139 m 361 508 l 378 551 l 1104 551 l 1131 508 l 361 508 m 915 47 l 874 114 l 1367 114 l 1340 47 l 915 47 m 185 47 l 210 114 l 586 114 l 561 47 l 185 47 m 397 601 l 411 639 l 1050 639 l 1074 601 l 397 601 m 219 139 l 243 201 l 619 201 l 596 139 l 219 139 m 256 232 l 276 289 l 653 289 l 632 232 l 256 232 m 290 324 l 310 376 l 688 376 l 667 324 l 290 324 m 432 693 l 444 726 l 994 726 l 1015 693 l 432 693 m 1140 508 l 1157 551 l 1533 551 l 1517 508 l 1140 508 m 1176 601 l 1192 639 l 1568 639 l 1553 601 l 1176 601 m 442 786 l 419 813 l 940 813 l 957 786 l 442 786 m 1213 693 l 1225 726 l 1601 726 l 1589 693 l 1213 693 m 351 897 l 888 897 l 900 878 l 367 878 l 351 897 m 1322 0 l 946 0 l 929 26 l 1332 26 l 1322 0 m 1247 786 l 1257 813 l 1633 813 l 1624 786 l 1247 786 m 167 0 l 176 26 l 553 26 l 543 0 l 167 0 m 1282 878 l 1290 897 l 1667 897 l 1658 878 l 1282 878 m 1497 972 l 1097 972 l 1092 988 l 1513 988 l 1497 972 m 933 972 l 635 972 l 650 988 l 950 988 l 933 972 m 731 1063 l 743 1075 l 1046 1075 l 1032 1063 l 731 1063 m 1292 1063 l 1306 1075 l 1606 1075 l 1593 1063 l 1292 1063 m 1068 1063 l 1064 1075 l 1240 1075 l 1244 1063 l 1068 1063 z "},"":{"ha":1376,"x_min":167,"x_max":1667,"o":"m 185 47 l 210 114 l 1367 114 l 1340 47 l 185 47 m 219 139 l 243 201 l 1400 201 l 1376 139 l 219 139 m 432 693 l 444 726 l 1601 726 l 1589 693 l 432 693 m 442 786 l 419 813 l 1633 813 l 1624 786 l 442 786 m 1322 0 l 167 0 l 176 26 l 1332 26 l 1322 0 m 351 897 l 1667 897 l 1658 878 l 367 878 l 351 897 m 1033 232 l 1056 289 l 1433 289 l 1411 232 l 1033 232 m 256 232 l 276 289 l 653 289 l 631 232 l 256 232 m 1069 324 l 1089 376 l 1467 376 l 1446 324 l 1069 324 m 290 324 l 310 376 l 686 376 l 667 324 l 290 324 m 1104 417 l 1122 464 l 1500 464 l 1482 417 l 1104 417 m 325 417 l 343 464 l 719 464 l 701 417 l 325 417 m 1140 508 l 1157 551 l 1533 551 l 1517 508 l 1140 508 m 361 508 l 378 551 l 754 551 l 738 508 l 361 508 m 1176 601 l 1190 639 l 1568 639 l 1553 601 l 1176 601 m 397 601 l 411 639 l 788 639 l 774 601 l 397 601 m 1019 972 l 1014 988 l 1313 988 l 1318 972 l 1019 972 m 989 1063 l 985 1075 l 1286 1075 l 1290 1063 l 989 1063 z "},"":{"ha":1376,"x_min":167,"x_max":1667,"o":"m 185 47 l 210 114 l 1367 114 l 1340 47 l 185 47 m 219 139 l 243 201 l 1400 201 l 1376 139 l 219 139 m 432 693 l 444 726 l 1601 726 l 1589 693 l 432 693 m 442 786 l 419 813 l 1633 813 l 1624 786 l 442 786 m 1322 0 l 167 0 l 176 26 l 1332 26 l 1322 0 m 351 897 l 1667 897 l 1658 878 l 367 878 l 351 897 m 1033 232 l 1056 289 l 1433 289 l 1411 232 l 1033 232 m 256 232 l 276 289 l 653 289 l 631 232 l 256 232 m 1069 324 l 1089 376 l 1467 376 l 1446 324 l 1069 324 m 290 324 l 310 376 l 686 376 l 667 324 l 290 324 m 1104 417 l 1122 464 l 1500 464 l 1482 417 l 1104 417 m 325 417 l 343 464 l 719 464 l 701 417 l 325 417 m 1140 508 l 1157 551 l 1533 551 l 1517 508 l 1140 508 m 361 508 l 378 551 l 754 551 l 738 508 l 361 508 m 1176 601 l 1190 639 l 1568 639 l 1553 601 l 1176 601 m 397 601 l 411 639 l 788 639 l 774 601 l 397 601 m 1208 972 l 910 972 l 925 988 l 1225 988 l 1208 972 m 1006 1063 l 1018 1075 l 1321 1075 l 1307 1063 l 1006 1063 z "},"":{"ha":1376,"x_min":167,"x_max":1667,"o":"m 185 47 l 210 114 l 1367 114 l 1340 47 l 185 47 m 219 139 l 243 201 l 1400 201 l 1376 139 l 219 139 m 432 693 l 444 726 l 1601 726 l 1589 693 l 432 693 m 442 786 l 419 813 l 1633 813 l 1624 786 l 442 786 m 1322 0 l 167 0 l 176 26 l 1332 26 l 1322 0 m 351 897 l 1667 897 l 1658 878 l 367 878 l 351 897 m 1033 232 l 1056 289 l 1433 289 l 1411 232 l 1033 232 m 256 232 l 276 289 l 653 289 l 631 232 l 256 232 m 1069 324 l 1089 376 l 1467 376 l 1446 324 l 1069 324 m 290 324 l 310 376 l 686 376 l 667 324 l 290 324 m 1104 417 l 1122 464 l 1500 464 l 1482 417 l 1104 417 m 325 417 l 343 464 l 719 464 l 701 417 l 325 417 m 1140 508 l 1157 551 l 1533 551 l 1517 508 l 1140 508 m 361 508 l 378 551 l 754 551 l 738 508 l 361 508 m 1176 601 l 1190 639 l 1568 639 l 1553 601 l 1176 601 m 397 601 l 411 639 l 788 639 l 774 601 l 397 601 m 1036 972 l 738 972 l 753 988 l 1053 988 l 1036 972 m 1200 972 l 1194 988 l 1492 988 l 1497 972 l 1200 972 m 833 1063 l 846 1075 l 1149 1075 l 1135 1063 l 833 1063 m 1171 1063 l 1167 1075 l 1464 1075 l 1468 1063 l 1171 1063 z "},"":{"ha":1376,"x_min":167,"x_max":1667,"o":"m 185 47 l 210 114 l 1367 114 l 1340 47 l 185 47 m 219 139 l 243 201 l 1400 201 l 1376 139 l 219 139 m 432 693 l 444 726 l 1601 726 l 1589 693 l 432 693 m 442 786 l 419 813 l 1633 813 l 1624 786 l 442 786 m 1322 0 l 167 0 l 176 26 l 1332 26 l 1322 0 m 351 897 l 1667 897 l 1658 878 l 367 878 l 351 897 m 1033 232 l 1056 289 l 1433 289 l 1411 232 l 1033 232 m 256 232 l 276 289 l 653 289 l 631 232 l 256 232 m 1069 324 l 1089 376 l 1467 376 l 1446 324 l 1069 324 m 290 324 l 310 376 l 686 376 l 667 324 l 290 324 m 1104 417 l 1122 464 l 1500 464 l 1482 417 l 1104 417 m 325 417 l 343 464 l 719 464 l 701 417 l 325 417 m 1140 508 l 1157 551 l 1533 551 l 1517 508 l 1140 508 m 361 508 l 378 551 l 754 551 l 738 508 l 361 508 m 1176 601 l 1190 639 l 1568 639 l 1553 601 l 1176 601 m 397 601 l 411 639 l 788 639 l 774 601 l 397 601 m 1497 972 l 1097 972 l 1092 988 l 1513 988 l 1497 972 m 933 972 l 635 972 l 650 988 l 950 988 l 933 972 m 731 1063 l 743 1075 l 1046 1075 l 1032 1063 l 731 1063 m 1292 1063 l 1306 1075 l 1606 1075 l 1593 1063 l 1292 1063 m 1068 1063 l 1064 1075 l 1240 1075 l 1244 1063 l 1068 1063 z "},"":{"ha":1376,"x_min":167,"x_max":1667,"o":"m 185 47 l 210 114 l 1367 114 l 1340 47 l 185 47 m 219 139 l 243 201 l 1400 201 l 1376 139 l 219 139 m 432 693 l 444 726 l 1601 726 l 1589 693 l 432 693 m 442 786 l 419 813 l 1633 813 l 1624 786 l 442 786 m 1322 0 l 167 0 l 176 26 l 1332 26 l 1322 0 m 351 897 l 1667 897 l 1658 878 l 367 878 l 351 897 m 1033 232 l 1056 289 l 1433 289 l 1411 232 l 1033 232 m 256 232 l 276 289 l 653 289 l 631 232 l 256 232 m 1069 324 l 1089 376 l 1467 376 l 1446 324 l 1069 324 m 290 324 l 310 376 l 686 376 l 667 324 l 290 324 m 1104 417 l 1122 464 l 1500 464 l 1482 417 l 1104 417 m 325 417 l 343 464 l 719 464 l 701 417 l 325 417 m 1140 508 l 1157 551 l 1533 551 l 1517 508 l 1140 508 m 361 508 l 378 551 l 754 551 l 738 508 l 361 508 m 1176 601 l 1190 639 l 1568 639 l 1553 601 l 1176 601 m 397 601 l 411 639 l 788 639 l 774 601 l 397 601 m 1199 972 l 1204 988 l 1503 988 l 1497 972 l 1199 972 m 738 972 l 743 988 l 1042 988 l 1036 972 l 738 972 m 771 1063 l 776 1075 l 1075 1075 l 1069 1063 l 771 1063 m 1232 1063 l 1238 1075 l 1536 1075 l 1531 1063 l 1232 1063 z "},"":{"ha":682,"x_min":171,"x_max":904,"o":"m 208 324 l 282 376 l 739 376 l 771 324 l 208 324 m 578 639 l 599 606 l 644 639 l 881 639 l 904 601 l 289 601 l 340 639 l 578 639 m 344 508 l 318 551 l 838 551 l 778 508 l 344 508 m 338 417 l 382 449 l 372 464 l 717 464 l 696 449 l 715 417 l 338 417 m 207 232 l 171 289 l 475 289 l 396 232 l 207 232 m 515 232 l 481 289 l 781 289 l 703 232 l 515 232 m 264 139 l 225 201 l 354 201 l 267 139 l 264 139 m 571 139 l 533 201 l 660 201 l 574 139 l 571 139 m 719 693 l 765 726 l 826 726 l 847 693 l 719 693 m 415 693 l 461 726 l 522 726 l 543 693 l 415 693 z "},"":{"ha":1376,"x_min":167,"x_max":1667,"o":"m 185 47 l 210 114 l 1367 114 l 1340 47 l 185 47 m 219 139 l 243 201 l 1400 201 l 1376 139 l 219 139 m 432 693 l 444 726 l 1601 726 l 1589 693 l 432 693 m 290 324 l 310 376 l 1010 376 l 944 324 l 290 324 m 325 417 l 343 464 l 721 464 l 708 429 l 751 464 l 1119 464 l 1060 417 l 325 417 m 256 232 l 276 289 l 900 289 l 829 232 l 256 232 m 442 786 l 419 813 l 1633 813 l 1624 786 l 442 786 m 1322 0 l 167 0 l 176 26 l 1332 26 l 1322 0 m 806 508 l 860 551 l 1533 551 l 1517 508 l 806 508 m 351 897 l 1667 897 l 1658 878 l 367 878 l 351 897 m 921 601 l 968 639 l 1568 639 l 1553 601 l 921 601 m 1033 232 l 1056 289 l 1433 289 l 1411 232 l 1033 232 m 1069 324 l 1089 376 l 1467 376 l 1446 324 l 1069 324 m 1104 417 l 1124 464 l 1500 464 l 1482 417 l 1104 417 m 361 508 l 378 551 l 754 551 l 738 508 l 361 508 m 397 601 l 411 639 l 788 639 l 774 601 l 397 601 z "},"":{"ha":1376,"x_min":167,"x_max":1667,"o":"m 185 47 l 210 114 l 1367 114 l 1340 47 l 185 47 m 219 139 l 243 201 l 1400 201 l 1376 139 l 219 139 m 1322 0 l 167 0 l 176 26 l 1332 26 l 1322 0 m 1033 232 l 1056 289 l 1433 289 l 1411 232 l 1033 232 m 256 232 l 276 289 l 653 289 l 631 232 l 256 232 m 1069 324 l 1089 376 l 1467 376 l 1446 324 l 1069 324 m 290 324 l 310 376 l 686 376 l 667 324 l 290 324 m 1104 417 l 1122 464 l 1500 464 l 1482 417 l 1104 417 m 325 417 l 343 464 l 719 464 l 701 417 l 325 417 m 1140 508 l 1157 551 l 1533 551 l 1517 508 l 1140 508 m 361 508 l 378 551 l 754 551 l 738 508 l 361 508 m 1176 601 l 1190 639 l 1568 639 l 1553 601 l 1176 601 m 397 601 l 411 639 l 788 639 l 774 601 l 397 601 m 1211 693 l 1224 726 l 1601 726 l 1589 693 l 1211 693 m 432 693 l 444 726 l 821 726 l 808 693 l 432 693 m 442 786 l 419 813 l 854 813 l 844 786 l 442 786 m 888 897 l 879 878 l 367 878 l 351 897 l 888 897 m 1247 786 l 1257 813 l 1633 813 l 1624 786 l 1247 786 m 1667 897 l 1658 878 l 1282 878 l 1290 897 l 1667 897 m 1019 972 l 1014 988 l 1313 988 l 1318 972 l 1019 972 m 989 1063 l 985 1075 l 1286 1075 l 1290 1063 l 989 1063 z "},"":{"ha":1376,"x_min":167,"x_max":1667,"o":"m 185 47 l 210 114 l 1367 114 l 1340 47 l 185 47 m 219 139 l 243 201 l 1400 201 l 1376 139 l 219 139 m 167 0 l 176 26 l 1332 26 l 1322 0 l 167 0 m 1033 232 l 1056 289 l 1433 289 l 1411 232 l 1033 232 m 256 232 l 276 289 l 653 289 l 631 232 l 256 232 m 1069 324 l 1089 376 l 1467 376 l 1446 324 l 1069 324 m 290 324 l 310 376 l 686 376 l 667 324 l 290 324 m 1104 417 l 1122 464 l 1500 464 l 1482 417 l 1104 417 m 325 417 l 343 464 l 719 464 l 701 417 l 325 417 m 1140 508 l 1157 551 l 1533 551 l 1517 508 l 1140 508 m 361 508 l 378 551 l 754 551 l 738 508 l 361 508 m 1176 601 l 1190 639 l 1568 639 l 1553 601 l 1176 601 m 397 601 l 411 639 l 788 639 l 774 601 l 397 601 m 1211 693 l 1224 726 l 1601 726 l 1589 693 l 1211 693 m 432 693 l 444 726 l 821 726 l 808 693 l 432 693 m 442 786 l 419 813 l 854 813 l 844 786 l 442 786 m 351 897 l 888 897 l 879 878 l 367 878 l 351 897 m 1247 786 l 1257 813 l 1633 813 l 1624 786 l 1247 786 m 1282 878 l 1290 897 l 1667 897 l 1658 878 l 1282 878 m 1208 972 l 910 972 l 925 988 l 1225 988 l 1208 972 m 1006 1063 l 1018 1075 l 1321 1075 l 1307 1063 l 1006 1063 z "},"":{"ha":1376,"x_min":167,"x_max":1667,"o":"m 185 47 l 210 114 l 1367 114 l 1340 47 l 185 47 m 219 139 l 243 201 l 1400 201 l 1376 139 l 219 139 m 167 0 l 176 26 l 1332 26 l 1322 0 l 167 0 m 1033 232 l 1056 289 l 1433 289 l 1411 232 l 1033 232 m 256 232 l 276 289 l 653 289 l 631 232 l 256 232 m 1069 324 l 1089 376 l 1467 376 l 1446 324 l 1069 324 m 290 324 l 310 376 l 686 376 l 667 324 l 290 324 m 1104 417 l 1122 464 l 1500 464 l 1482 417 l 1104 417 m 325 417 l 343 464 l 719 464 l 701 417 l 325 417 m 1140 508 l 1157 551 l 1533 551 l 1517 508 l 1140 508 m 361 508 l 378 551 l 754 551 l 738 508 l 361 508 m 1176 601 l 1190 639 l 1568 639 l 1553 601 l 1176 601 m 397 601 l 411 639 l 788 639 l 774 601 l 397 601 m 1211 693 l 1224 726 l 1601 726 l 1589 693 l 1211 693 m 432 693 l 444 726 l 821 726 l 808 693 l 432 693 m 442 786 l 419 813 l 854 813 l 844 786 l 442 786 m 351 897 l 888 897 l 879 878 l 367 878 l 351 897 m 1247 786 l 1257 813 l 1633 813 l 1624 786 l 1247 786 m 1282 878 l 1290 897 l 1667 897 l 1658 878 l 1282 878 m 1036 972 l 738 972 l 753 988 l 1053 988 l 1036 972 m 1200 972 l 1194 988 l 1492 988 l 1497 972 l 1200 972 m 833 1063 l 846 1075 l 1149 1075 l 1135 1063 l 833 1063 m 1171 1063 l 1167 1075 l 1464 1075 l 1468 1063 l 1171 1063 z "},"":{"ha":1376,"x_min":167,"x_max":1667,"o":"m 185 47 l 210 114 l 1367 114 l 1340 47 l 185 47 m 219 139 l 243 201 l 1400 201 l 1376 139 l 219 139 m 1322 0 l 167 0 l 176 26 l 1332 26 l 1322 0 m 1033 232 l 1056 289 l 1433 289 l 1411 232 l 1033 232 m 256 232 l 276 289 l 653 289 l 631 232 l 256 232 m 1069 324 l 1089 376 l 1467 376 l 1446 324 l 1069 324 m 290 324 l 310 376 l 686 376 l 667 324 l 290 324 m 1104 417 l 1122 464 l 1500 464 l 1482 417 l 1104 417 m 325 417 l 343 464 l 719 464 l 701 417 l 325 417 m 1140 508 l 1157 551 l 1533 551 l 1517 508 l 1140 508 m 361 508 l 378 551 l 754 551 l 738 508 l 361 508 m 1176 601 l 1190 639 l 1568 639 l 1553 601 l 1176 601 m 397 601 l 411 639 l 788 639 l 774 601 l 397 601 m 1211 693 l 1224 726 l 1601 726 l 1589 693 l 1211 693 m 432 693 l 444 726 l 821 726 l 808 693 l 432 693 m 442 786 l 419 813 l 854 813 l 844 786 l 442 786 m 888 897 l 879 878 l 367 878 l 351 897 l 888 897 m 1247 786 l 1257 813 l 1633 813 l 1624 786 l 1247 786 m 1667 897 l 1658 878 l 1282 878 l 1290 897 l 1667 897 m 1199 972 l 1204 988 l 1503 988 l 1497 972 l 1199 972 m 738 972 l 743 988 l 1042 988 l 1036 972 l 738 972 m 1232 1063 l 1238 1075 l 1536 1075 l 1531 1063 l 1232 1063 m 771 1063 l 776 1075 l 1075 1075 l 1069 1063 l 771 1063 z "},"":{"ha":1376,"x_min":351,"x_max":1667,"o":"m 486 508 l 449 551 l 1464 551 l 1393 508 l 486 508 m 567 417 l 525 464 l 1319 464 l 1242 417 l 567 417 m 649 324 l 603 376 l 1175 376 l 1088 324 l 649 324 m 574 47 l 600 114 l 976 114 l 950 47 l 574 47 m 610 139 l 633 201 l 1010 201 l 986 139 l 610 139 m 644 232 l 667 289 l 1043 289 l 1021 232 l 644 232 m 1556 607 l 1546 601 l 1026 601 l 1086 639 l 1568 639 l 1556 607 m 404 601 l 400 607 l 413 639 l 893 639 l 924 601 l 404 601 m 1172 693 l 1224 725 l 1224 726 l 1601 726 l 1589 693 l 1172 693 m 432 693 l 444 726 l 821 726 l 821 725 l 847 693 l 432 693 m 442 786 l 419 813 l 854 813 l 844 786 l 442 786 m 888 897 l 879 878 l 367 878 l 351 897 l 888 897 m 1247 786 l 1257 813 l 1633 813 l 1624 786 l 1247 786 m 932 0 l 556 0 l 565 26 l 942 26 l 932 0 m 1667 897 l 1658 878 l 1282 878 l 1290 897 l 1667 897 m 1208 972 l 910 972 l 925 988 l 1225 988 l 1208 972 m 1006 1063 l 1018 1075 l 1321 1075 l 1307 1063 l 1006 1063 z "},"":{"ha":1375,"x_min":167,"x_max":1601,"o":"m 1378 146 l 599 146 l 596 139 l 219 139 l 243 201 l 1399 201 l 1378 146 m 256 232 l 276 289 l 1433 289 l 1411 232 l 256 232 m 685 368 l 1088 368 l 1090 376 l 1467 376 l 1446 324 l 290 324 l 310 376 l 688 376 l 685 368 m 397 601 l 411 639 l 1568 639 l 1553 601 l 397 601 m 747 532 l 738 508 l 361 508 l 378 551 l 1533 551 l 1517 508 l 1140 508 l 1150 532 l 747 532 m 432 693 l 444 726 l 1601 726 l 1589 693 l 432 693 m 185 47 l 210 114 l 586 114 l 561 47 l 185 47 m 325 417 l 343 464 l 721 464 l 703 417 l 325 417 m 1106 417 l 1124 464 l 1500 464 l 1482 417 l 1106 417 m 442 786 l 419 813 l 854 813 l 844 786 l 442 786 m 351 897 l 888 897 l 879 878 l 367 878 l 351 897 m 543 0 l 167 0 l 176 26 l 553 26 l 543 0 z "},"":{"ha":1375,"x_min":79,"x_max":1668,"o":"m 683 47 l 710 114 l 1368 114 l 1342 47 l 683 47 m 719 139 l 743 201 l 1401 201 l 1378 139 l 719 139 m 433 693 l 446 726 l 1603 726 l 1590 693 l 433 693 m 438 786 l 417 813 l 1635 813 l 1625 786 l 438 786 m 826 417 l 844 464 l 1501 464 l 1483 417 l 826 417 m 79 -231 l 110 -149 l 486 -149 l 456 -231 l 79 -231 m 1069 324 l 1075 338 l 796 338 l 811 376 l 1468 376 l 1447 324 l 1069 324 m 114 -137 l 143 -61 l 519 -61 l 490 -137 l 114 -137 m 861 508 l 878 551 l 1535 551 l 1518 508 l 861 508 m 149 -46 l 176 26 l 553 26 l 525 -46 l 149 -46 m 1668 897 l 1660 878 l 367 878 l 351 897 l 1668 897 m 185 47 l 211 114 l 586 114 l 561 47 l 185 47 m 221 139 l 244 201 l 619 201 l 596 139 l 221 139 m 1033 232 l 1056 289 l 1435 289 l 1413 232 l 1033 232 m 256 232 l 278 289 l 653 289 l 632 232 l 256 232 m 290 324 l 311 376 l 686 376 l 667 324 l 290 324 m 326 417 l 344 464 l 719 464 l 701 417 l 326 417 m 1324 0 l 667 0 l 676 26 l 1333 26 l 1324 0 m 361 508 l 378 551 l 754 551 l 738 508 l 361 508 m 1176 601 l 1190 639 l 1569 639 l 1554 601 l 1176 601 m 397 601 l 413 639 l 788 639 l 774 601 l 397 601 z "},"":{"ha":1375,"x_min":167,"x_max":1667,"o":"m 290 324 l 310 376 l 1467 376 l 1446 324 l 290 324 m 325 417 l 343 464 l 1500 464 l 1482 417 l 325 417 m 653 288 l 632 232 l 256 232 l 276 289 l 1433 289 l 1411 232 l 1035 232 l 1056 288 l 653 288 m 432 693 l 444 726 l 1601 726 l 1589 693 l 432 693 m 739 510 l 1142 510 l 1157 551 l 1533 551 l 1517 508 l 361 508 l 378 551 l 754 551 l 739 510 m 442 786 l 419 813 l 1633 813 l 1624 786 l 442 786 m 1667 897 l 1658 878 l 367 878 l 351 897 l 1667 897 m 964 47 l 989 114 l 1367 114 l 1340 47 l 964 47 m 185 47 l 210 114 l 586 114 l 561 47 l 185 47 m 999 139 l 1022 201 l 1400 201 l 1376 139 l 999 139 m 219 139 l 243 201 l 619 201 l 596 139 l 219 139 m 1176 601 l 1190 639 l 1568 639 l 1553 601 l 1176 601 m 397 601 l 411 639 l 788 639 l 774 601 l 397 601 m 1322 0 l 946 0 l 956 26 l 1332 26 l 1322 0 m 543 0 l 167 0 l 176 26 l 553 26 l 543 0 m 1019 972 l 1014 988 l 1313 988 l 1318 972 l 1019 972 m 989 1063 l 985 1075 l 1286 1075 l 1290 1063 l 989 1063 z "},"":{"ha":1375,"x_min":167,"x_max":1667,"o":"m 290 324 l 310 376 l 1467 376 l 1446 324 l 290 324 m 325 417 l 343 464 l 1500 464 l 1482 417 l 325 417 m 653 288 l 632 232 l 256 232 l 276 289 l 1433 289 l 1411 232 l 1035 232 l 1056 288 l 653 288 m 432 693 l 444 726 l 1601 726 l 1589 693 l 432 693 m 739 510 l 1142 510 l 1157 551 l 1533 551 l 1517 508 l 361 508 l 378 551 l 754 551 l 739 510 m 442 786 l 419 813 l 1633 813 l 1624 786 l 442 786 m 1667 897 l 1658 878 l 367 878 l 351 897 l 1667 897 m 964 47 l 989 114 l 1367 114 l 1340 47 l 964 47 m 185 47 l 210 114 l 586 114 l 561 47 l 185 47 m 999 139 l 1022 201 l 1400 201 l 1376 139 l 999 139 m 219 139 l 243 201 l 619 201 l 596 139 l 219 139 m 1176 601 l 1190 639 l 1568 639 l 1553 601 l 1176 601 m 397 601 l 411 639 l 788 639 l 774 601 l 397 601 m 1322 0 l 946 0 l 956 26 l 1332 26 l 1322 0 m 543 0 l 167 0 l 176 26 l 553 26 l 543 0 m 1208 972 l 910 972 l 925 988 l 1225 988 l 1208 972 m 1006 1063 l 1018 1075 l 1321 1075 l 1307 1063 l 1006 1063 z "},"":{"ha":1375,"x_min":167,"x_max":1667,"o":"m 290 324 l 310 376 l 1467 376 l 1446 324 l 290 324 m 325 417 l 343 464 l 1500 464 l 1482 417 l 325 417 m 1035 232 l 1056 288 l 653 288 l 632 232 l 256 232 l 276 289 l 1433 289 l 1411 232 l 1035 232 m 432 693 l 444 726 l 1601 726 l 1589 693 l 432 693 m 739 510 l 1142 510 l 1157 551 l 1533 551 l 1517 508 l 361 508 l 378 551 l 754 551 l 739 510 m 442 786 l 419 813 l 1633 813 l 1624 786 l 442 786 m 351 897 l 1667 897 l 1658 878 l 367 878 l 351 897 m 964 47 l 989 114 l 1367 114 l 1340 47 l 964 47 m 185 47 l 210 114 l 586 114 l 561 47 l 185 47 m 999 139 l 1022 201 l 1400 201 l 1376 139 l 999 139 m 219 139 l 243 201 l 619 201 l 596 139 l 219 139 m 1176 601 l 1190 639 l 1568 639 l 1553 601 l 1176 601 m 397 601 l 411 639 l 788 639 l 774 601 l 397 601 m 1322 0 l 946 0 l 956 26 l 1332 26 l 1322 0 m 543 0 l 167 0 l 176 26 l 553 26 l 543 0 m 1036 972 l 738 972 l 753 988 l 1053 988 l 1036 972 m 1200 972 l 1194 988 l 1492 988 l 1497 972 l 1200 972 m 833 1063 l 846 1075 l 1149 1075 l 1135 1063 l 833 1063 m 1171 1063 l 1167 1075 l 1464 1075 l 1468 1063 l 1171 1063 z "},"":{"ha":1375,"x_min":167,"x_max":1667,"o":"m 290 324 l 310 376 l 1467 376 l 1446 324 l 290 324 m 325 417 l 343 464 l 1500 464 l 1482 417 l 325 417 m 1035 232 l 1056 288 l 653 288 l 632 232 l 256 232 l 276 289 l 1433 289 l 1411 232 l 1035 232 m 432 693 l 444 726 l 1601 726 l 1589 693 l 432 693 m 739 510 l 1142 510 l 1157 551 l 1533 551 l 1517 508 l 361 508 l 378 551 l 754 551 l 739 510 m 442 786 l 419 813 l 1633 813 l 1624 786 l 442 786 m 351 897 l 1667 897 l 1658 878 l 367 878 l 351 897 m 964 47 l 989 114 l 1367 114 l 1340 47 l 964 47 m 185 47 l 210 114 l 586 114 l 561 47 l 185 47 m 999 139 l 1022 201 l 1400 201 l 1376 139 l 999 139 m 219 139 l 243 201 l 619 201 l 596 139 l 219 139 m 1176 601 l 1190 639 l 1568 639 l 1553 601 l 1176 601 m 397 601 l 411 639 l 788 639 l 774 601 l 397 601 m 543 0 l 167 0 l 176 26 l 553 26 l 543 0 m 1322 0 l 946 0 l 956 26 l 1332 26 l 1322 0 m 1497 972 l 1097 972 l 1092 988 l 1513 988 l 1497 972 m 933 972 l 635 972 l 650 988 l 950 988 l 933 972 m 731 1063 l 743 1075 l 1046 1075 l 1032 1063 l 731 1063 m 1292 1063 l 1306 1075 l 1606 1075 l 1593 1063 l 1292 1063 m 1068 1063 l 1064 1075 l 1240 1075 l 1244 1063 l 1068 1063 z "},"":{"ha":1375,"x_min":167,"x_max":1667,"o":"m 290 324 l 310 376 l 1467 376 l 1446 324 l 290 324 m 325 417 l 343 464 l 1500 464 l 1482 417 l 325 417 m 653 288 l 632 232 l 256 232 l 276 289 l 1433 289 l 1411 232 l 1035 232 l 1056 288 l 653 288 m 432 693 l 444 726 l 1601 726 l 1589 693 l 432 693 m 739 510 l 1142 510 l 1157 551 l 1533 551 l 1517 508 l 361 508 l 378 551 l 754 551 l 739 510 m 442 786 l 419 813 l 1633 813 l 1624 786 l 442 786 m 1667 897 l 1658 878 l 367 878 l 351 897 l 1667 897 m 964 47 l 989 114 l 1367 114 l 1340 47 l 964 47 m 185 47 l 210 114 l 586 114 l 561 47 l 185 47 m 999 139 l 1022 201 l 1400 201 l 1376 139 l 999 139 m 219 139 l 243 201 l 619 201 l 596 139 l 219 139 m 1176 601 l 1190 639 l 1568 639 l 1553 601 l 1176 601 m 397 601 l 411 639 l 788 639 l 774 601 l 397 601 m 1322 0 l 946 0 l 956 26 l 1332 26 l 1322 0 m 543 0 l 167 0 l 176 26 l 553 26 l 543 0 m 738 972 l 743 988 l 1042 988 l 1036 972 l 738 972 m 1199 972 l 1204 988 l 1503 988 l 1497 972 l 1199 972 m 1232 1063 l 1238 1075 l 1536 1075 l 1531 1063 l 1232 1063 m 771 1063 l 776 1075 l 1075 1075 l 1069 1063 l 771 1063 z "},"":{"ha":1375,"x_min":167,"x_max":1667,"o":"m 290 324 l 310 376 l 1467 376 l 1446 324 l 290 324 m 325 417 l 343 464 l 1500 464 l 1482 417 l 325 417 m 1035 232 l 1056 288 l 653 288 l 632 232 l 256 232 l 276 289 l 1433 289 l 1411 232 l 1035 232 m 432 693 l 444 726 l 1601 726 l 1589 693 l 432 693 m 739 510 l 1142 510 l 1157 551 l 1533 551 l 1517 508 l 361 508 l 378 551 l 754 551 l 739 510 m 442 786 l 419 813 l 1633 813 l 1624 786 l 442 786 m 351 897 l 1667 897 l 1658 878 l 367 878 l 351 897 m 964 47 l 989 114 l 1367 114 l 1340 47 l 964 47 m 185 47 l 210 114 l 586 114 l 561 47 l 185 47 m 999 139 l 1022 201 l 1400 201 l 1376 139 l 999 139 m 219 139 l 243 201 l 619 201 l 596 139 l 219 139 m 1176 601 l 1190 639 l 1568 639 l 1553 601 l 1176 601 m 397 601 l 411 639 l 788 639 l 774 601 l 397 601 m 543 0 l 167 0 l 176 26 l 553 26 l 543 0 m 1322 0 l 946 0 l 956 26 l 1332 26 l 1322 0 m 1263 972 l 964 972 l 969 988 l 1268 988 l 1263 972 m 997 1063 l 1003 1075 l 1107 1075 l 1101 1063 l 997 1063 m 1193 1063 l 1199 1075 l 1301 1075 l 1296 1063 l 1193 1063 z "},"":{"ha":2094,"x_min":167,"x_max":2385,"o":"m 2169 338 l 1451 338 l 1446 324 l 290 324 l 310 376 l 2185 376 l 2169 338 m 325 417 l 343 464 l 2218 464 l 2200 417 l 325 417 m 963 47 l 988 114 l 2083 114 l 2057 47 l 963 47 m 997 139 l 1021 201 l 2117 201 l 2093 139 l 997 139 m 739 510 l 1140 510 l 1156 551 l 2251 551 l 2235 508 l 361 508 l 378 551 l 754 551 l 739 510 m 432 693 l 444 726 l 2318 726 l 2306 693 l 432 693 m 442 786 l 419 813 l 2351 813 l 2342 786 l 442 786 m 1033 232 l 1054 288 l 653 288 l 632 232 l 256 232 l 276 289 l 1432 289 l 1410 232 l 1033 232 m 351 897 l 2385 897 l 2376 878 l 367 878 l 351 897 m 2040 0 l 944 0 l 954 26 l 2050 26 l 2040 0 m 185 47 l 210 114 l 586 114 l 561 47 l 185 47 m 219 139 l 243 201 l 619 201 l 596 139 l 219 139 m 1175 601 l 1189 639 l 1567 639 l 1553 601 l 1175 601 m 397 601 l 411 639 l 788 639 l 774 601 l 397 601 m 543 0 l 167 0 l 176 26 l 553 26 l 543 0 z "},"":{"ha":1317,"x_min":167,"x_max":1607,"o":"m 185 47 l 210 114 l 1306 114 l 1279 47 l 185 47 m 219 139 l 243 201 l 1339 201 l 1315 139 l 219 139 m 668 -46 l 686 0 l 167 0 l 176 26 l 1272 26 l 1263 0 l 886 0 l 868 -46 l 668 -46 m 432 693 l 444 726 l 1540 726 l 1528 693 l 432 693 m 418 -231 l 450 -149 l 828 -149 l 797 -231 l 418 -231 m 442 786 l 419 813 l 1574 813 l 1564 786 l 442 786 m 476 -81 l 656 -81 l 663 -61 l 863 -61 l 832 -137 l 454 -137 l 476 -81 m 351 897 l 1607 897 l 1599 878 l 367 878 l 351 897 m 256 232 l 276 289 l 653 289 l 631 232 l 256 232 m 290 324 l 310 376 l 686 376 l 667 324 l 290 324 m 325 417 l 343 464 l 719 464 l 701 417 l 325 417 m 361 508 l 378 551 l 754 551 l 738 508 l 361 508 m 397 601 l 411 639 l 788 639 l 774 601 l 397 601 z "},"":{"ha":1317,"x_min":167,"x_max":1607,"o":"m 185 47 l 210 114 l 1306 114 l 1279 47 l 185 47 m 219 139 l 243 201 l 1339 201 l 1315 139 l 219 139 m 325 417 l 343 464 l 1440 464 l 1422 417 l 325 417 m 672 338 l 667 324 l 290 324 l 310 376 l 1407 376 l 1392 338 l 672 338 m 361 508 l 378 551 l 1474 551 l 1457 508 l 361 508 m 432 693 l 444 726 l 1540 726 l 1528 693 l 432 693 m 442 786 l 419 813 l 1574 813 l 1564 786 l 442 786 m 1263 0 l 167 0 l 176 26 l 1272 26 l 1263 0 m 1607 897 l 1599 878 l 367 878 l 351 897 l 1607 897 m 256 232 l 276 289 l 653 289 l 631 232 l 256 232 m 397 601 l 411 639 l 788 639 l 774 601 l 397 601 m 974 972 l 968 988 l 1267 988 l 1272 972 l 974 972 m 943 1063 l 939 1075 l 1240 1075 l 1244 1063 l 943 1063 z "},"":{"ha":1317,"x_min":167,"x_max":1607,"o":"m 185 47 l 210 114 l 1306 114 l 1279 47 l 185 47 m 219 139 l 243 201 l 1339 201 l 1315 139 l 219 139 m 325 417 l 343 464 l 1440 464 l 1422 417 l 325 417 m 672 338 l 667 324 l 290 324 l 310 376 l 1407 376 l 1392 338 l 672 338 m 361 508 l 378 551 l 1474 551 l 1457 508 l 361 508 m 432 693 l 444 726 l 1540 726 l 1528 693 l 432 693 m 442 786 l 419 813 l 1574 813 l 1564 786 l 442 786 m 1263 0 l 167 0 l 176 26 l 1272 26 l 1263 0 m 1607 897 l 1599 878 l 367 878 l 351 897 l 1607 897 m 256 232 l 276 289 l 653 289 l 631 232 l 256 232 m 397 601 l 411 639 l 788 639 l 774 601 l 397 601 m 1192 972 l 893 972 l 908 988 l 1208 988 l 1192 972 m 989 1063 l 1001 1075 l 1304 1075 l 1290 1063 l 989 1063 z "},"":{"ha":1317,"x_min":167,"x_max":1607,"o":"m 185 47 l 210 114 l 1306 114 l 1279 47 l 185 47 m 219 139 l 243 201 l 1339 201 l 1315 139 l 219 139 m 325 417 l 343 464 l 1440 464 l 1422 417 l 325 417 m 1392 338 l 672 338 l 667 324 l 290 324 l 310 376 l 1407 376 l 1392 338 m 361 508 l 378 551 l 1474 551 l 1457 508 l 361 508 m 432 693 l 444 726 l 1540 726 l 1528 693 l 432 693 m 442 786 l 419 813 l 1574 813 l 1564 786 l 442 786 m 1263 0 l 167 0 l 176 26 l 1272 26 l 1263 0 m 351 897 l 1607 897 l 1599 878 l 367 878 l 351 897 m 256 232 l 276 289 l 653 289 l 631 232 l 256 232 m 397 601 l 411 639 l 788 639 l 774 601 l 397 601 m 1011 972 l 713 972 l 728 988 l 1028 988 l 1011 972 m 1175 972 l 1169 988 l 1467 988 l 1472 972 l 1175 972 m 808 1063 l 821 1075 l 1124 1075 l 1110 1063 l 808 1063 m 1146 1063 l 1142 1075 l 1439 1075 l 1443 1063 l 1146 1063 z "},"":{"ha":1317,"x_min":167,"x_max":1607,"o":"m 185 47 l 210 114 l 1306 114 l 1279 47 l 185 47 m 219 139 l 243 201 l 1339 201 l 1315 139 l 219 139 m 325 417 l 343 464 l 1440 464 l 1422 417 l 325 417 m 672 338 l 667 324 l 290 324 l 310 376 l 1407 376 l 1392 338 l 672 338 m 361 508 l 378 551 l 1474 551 l 1457 508 l 361 508 m 432 693 l 444 726 l 1540 726 l 1528 693 l 432 693 m 442 786 l 419 813 l 1574 813 l 1564 786 l 442 786 m 1263 0 l 167 0 l 176 26 l 1272 26 l 1263 0 m 1607 897 l 1599 878 l 367 878 l 351 897 l 1607 897 m 256 232 l 276 289 l 653 289 l 631 232 l 256 232 m 397 601 l 411 639 l 788 639 l 774 601 l 397 601 m 711 972 l 717 988 l 1015 988 l 1010 972 l 711 972 m 1172 972 l 1178 988 l 1476 988 l 1471 972 l 1172 972 m 1206 1063 l 1211 1075 l 1510 1075 l 1504 1063 l 1206 1063 m 744 1063 l 750 1075 l 1049 1075 l 1043 1063 l 744 1063 z "},"":{"ha":597,"x_min":167,"x_max":888,"o":"m 185 47 l 210 114 l 588 114 l 561 47 l 185 47 m 219 139 l 243 201 l 621 201 l 597 139 l 219 139 m 256 232 l 276 289 l 654 289 l 632 232 l 256 232 m 290 324 l 310 376 l 688 376 l 667 324 l 290 324 m 325 417 l 343 464 l 721 464 l 703 417 l 325 417 m 361 508 l 378 551 l 754 551 l 738 508 l 361 508 m 397 601 l 411 639 l 789 639 l 774 601 l 397 601 m 432 693 l 444 726 l 822 726 l 810 693 l 432 693 m 442 786 l 419 813 l 854 813 l 844 786 l 442 786 m 888 897 l 879 878 l 367 878 l 351 897 l 888 897 m 543 0 l 167 0 l 176 26 l 553 26 l 543 0 m 581 972 l 575 988 l 874 988 l 879 972 l 581 972 m 550 1063 l 546 1075 l 847 1075 l 851 1063 l 550 1063 z "},"":{"ha":597,"x_min":167,"x_max":906,"o":"m 185 47 l 210 114 l 588 114 l 561 47 l 185 47 m 219 139 l 243 201 l 621 201 l 597 139 l 219 139 m 256 232 l 276 289 l 654 289 l 632 232 l 256 232 m 290 324 l 310 376 l 688 376 l 667 324 l 290 324 m 325 417 l 343 464 l 721 464 l 703 417 l 325 417 m 361 508 l 378 551 l 754 551 l 738 508 l 361 508 m 397 601 l 411 639 l 789 639 l 774 601 l 397 601 m 432 693 l 444 726 l 822 726 l 810 693 l 432 693 m 442 786 l 419 813 l 854 813 l 844 786 l 442 786 m 888 897 l 879 878 l 367 878 l 351 897 l 888 897 m 543 0 l 167 0 l 176 26 l 553 26 l 543 0 m 793 972 l 494 972 l 510 988 l 810 988 l 793 972 m 590 1063 l 603 1075 l 906 1075 l 892 1063 l 590 1063 z "},"":{"ha":597,"x_min":167,"x_max":1078,"o":"m 185 47 l 210 114 l 588 114 l 561 47 l 185 47 m 219 139 l 243 201 l 621 201 l 597 139 l 219 139 m 256 232 l 276 289 l 654 289 l 632 232 l 256 232 m 290 324 l 310 376 l 688 376 l 667 324 l 290 324 m 325 417 l 343 464 l 721 464 l 703 417 l 325 417 m 361 508 l 378 551 l 754 551 l 738 508 l 361 508 m 397 601 l 411 639 l 789 639 l 774 601 l 397 601 m 432 693 l 444 726 l 822 726 l 810 693 l 432 693 m 442 786 l 419 813 l 854 813 l 844 786 l 442 786 m 351 897 l 888 897 l 879 878 l 367 878 l 351 897 m 167 0 l 176 26 l 553 26 l 543 0 l 167 0 m 617 972 l 318 972 l 333 988 l 633 988 l 617 972 m 781 972 l 775 988 l 1072 988 l 1078 972 l 781 972 m 414 1063 l 426 1075 l 729 1075 l 715 1063 l 414 1063 m 751 1063 l 747 1075 l 1044 1075 l 1049 1063 l 751 1063 z "},"":{"ha":597,"x_min":167,"x_max":1118,"o":"m 185 47 l 210 114 l 588 114 l 561 47 l 185 47 m 219 139 l 243 201 l 621 201 l 597 139 l 219 139 m 256 232 l 276 289 l 654 289 l 632 232 l 256 232 m 290 324 l 310 376 l 688 376 l 667 324 l 290 324 m 325 417 l 343 464 l 721 464 l 703 417 l 325 417 m 361 508 l 378 551 l 754 551 l 738 508 l 361 508 m 397 601 l 411 639 l 789 639 l 774 601 l 397 601 m 432 693 l 444 726 l 822 726 l 810 693 l 432 693 m 442 786 l 419 813 l 854 813 l 844 786 l 442 786 m 888 897 l 879 878 l 367 878 l 351 897 l 888 897 m 543 0 l 167 0 l 176 26 l 553 26 l 543 0 m 319 972 l 325 988 l 624 988 l 618 972 l 319 972 m 781 972 l 786 988 l 1085 988 l 1079 972 l 781 972 m 814 1063 l 819 1075 l 1118 1075 l 1113 1063 l 814 1063 m 353 1063 l 358 1075 l 657 1075 l 651 1063 l 353 1063 z "},"":{"ha":1375,"x_min":165,"x_max":1668,"o":"m 183 47 l 210 114 l 1368 114 l 1342 47 l 183 47 m 219 139 l 243 201 l 1401 201 l 1378 139 l 219 139 m 671 338 l 665 324 l 289 324 l 310 376 l 1468 376 l 1447 324 l 1069 324 l 1075 338 l 671 338 m 325 417 l 343 464 l 1501 464 l 1483 417 l 325 417 m 360 508 l 376 551 l 1535 551 l 1518 508 l 360 508 m 510 693 l 483 726 l 1603 726 l 1590 693 l 510 693 m 438 786 l 417 813 l 1635 813 l 1625 786 l 438 786 m 1324 0 l 165 0 l 175 26 l 1333 26 l 1324 0 m 351 897 l 1668 897 l 1660 878 l 367 878 l 351 897 m 1033 232 l 1056 289 l 1435 289 l 1413 232 l 1033 232 m 254 232 l 276 289 l 651 289 l 629 232 l 254 232 m 1176 601 l 1190 639 l 1569 639 l 1554 601 l 1176 601 z "},"":{"ha":1376,"x_min":167,"x_max":1667,"o":"m 325 417 l 343 464 l 1500 464 l 1482 417 l 325 417 m 743 324 l 710 376 l 1467 376 l 1446 324 l 743 324 m 800 232 l 764 289 l 1433 289 l 1411 232 l 800 232 m 858 139 l 819 201 l 1400 201 l 1376 139 l 858 139 m 361 508 l 378 551 l 1104 551 l 1131 508 l 361 508 m 915 47 l 874 114 l 1367 114 l 1340 47 l 915 47 m 185 47 l 210 114 l 586 114 l 561 47 l 185 47 m 397 601 l 411 639 l 1050 639 l 1074 601 l 397 601 m 219 139 l 243 201 l 619 201 l 596 139 l 219 139 m 256 232 l 276 289 l 653 289 l 632 232 l 256 232 m 290 324 l 310 376 l 688 376 l 667 324 l 290 324 m 432 693 l 444 726 l 994 726 l 1015 693 l 432 693 m 1140 508 l 1157 551 l 1533 551 l 1517 508 l 1140 508 m 1176 601 l 1192 639 l 1568 639 l 1553 601 l 1176 601 m 442 786 l 419 813 l 940 813 l 957 786 l 442 786 m 1213 693 l 1225 726 l 1601 726 l 1589 693 l 1213 693 m 351 897 l 888 897 l 900 878 l 367 878 l 351 897 m 1322 0 l 946 0 l 929 26 l 1332 26 l 1322 0 m 1247 786 l 1257 813 l 1633 813 l 1624 786 l 1247 786 m 167 0 l 176 26 l 553 26 l 543 0 l 167 0 m 1282 878 l 1290 897 l 1667 897 l 1658 878 l 1282 878 m 1497 972 l 1097 972 l 1092 988 l 1513 988 l 1497 972 m 933 972 l 635 972 l 650 988 l 950 988 l 933 972 m 731 1063 l 743 1075 l 1046 1075 l 1032 1063 l 731 1063 m 1292 1063 l 1306 1075 l 1606 1075 l 1593 1063 l 1292 1063 m 1068 1063 l 1064 1075 l 1240 1075 l 1244 1063 l 1068 1063 z "},"":{"ha":1376,"x_min":167,"x_max":1667,"o":"m 185 47 l 210 114 l 1367 114 l 1340 47 l 185 47 m 219 139 l 243 201 l 1400 201 l 1376 139 l 219 139 m 432 693 l 444 726 l 1601 726 l 1589 693 l 432 693 m 442 786 l 419 813 l 1633 813 l 1624 786 l 442 786 m 1322 0 l 167 0 l 176 26 l 1332 26 l 1322 0 m 351 897 l 1667 897 l 1658 878 l 367 878 l 351 897 m 1033 232 l 1056 289 l 1433 289 l 1411 232 l 1033 232 m 256 232 l 276 289 l 653 289 l 631 232 l 256 232 m 1069 324 l 1089 376 l 1467 376 l 1446 324 l 1069 324 m 290 324 l 310 376 l 686 376 l 667 324 l 290 324 m 1104 417 l 1122 464 l 1500 464 l 1482 417 l 1104 417 m 325 417 l 343 464 l 719 464 l 701 417 l 325 417 m 1140 508 l 1157 551 l 1533 551 l 1517 508 l 1140 508 m 361 508 l 378 551 l 754 551 l 738 508 l 361 508 m 1176 601 l 1190 639 l 1568 639 l 1553 601 l 1176 601 m 397 601 l 411 639 l 788 639 l 774 601 l 397 601 m 1019 972 l 1014 988 l 1313 988 l 1318 972 l 1019 972 m 989 1063 l 985 1075 l 1286 1075 l 1290 1063 l 989 1063 z "},"":{"ha":1376,"x_min":167,"x_max":1667,"o":"m 185 47 l 210 114 l 1367 114 l 1340 47 l 185 47 m 219 139 l 243 201 l 1400 201 l 1376 139 l 219 139 m 432 693 l 444 726 l 1601 726 l 1589 693 l 432 693 m 442 786 l 419 813 l 1633 813 l 1624 786 l 442 786 m 1322 0 l 167 0 l 176 26 l 1332 26 l 1322 0 m 351 897 l 1667 897 l 1658 878 l 367 878 l 351 897 m 1033 232 l 1056 289 l 1433 289 l 1411 232 l 1033 232 m 256 232 l 276 289 l 653 289 l 631 232 l 256 232 m 1069 324 l 1089 376 l 1467 376 l 1446 324 l 1069 324 m 290 324 l 310 376 l 686 376 l 667 324 l 290 324 m 1104 417 l 1122 464 l 1500 464 l 1482 417 l 1104 417 m 325 417 l 343 464 l 719 464 l 701 417 l 325 417 m 1140 508 l 1157 551 l 1533 551 l 1517 508 l 1140 508 m 361 508 l 378 551 l 754 551 l 738 508 l 361 508 m 1176 601 l 1190 639 l 1568 639 l 1553 601 l 1176 601 m 397 601 l 411 639 l 788 639 l 774 601 l 397 601 m 1208 972 l 910 972 l 925 988 l 1225 988 l 1208 972 m 1006 1063 l 1018 1075 l 1321 1075 l 1307 1063 l 1006 1063 z "},"":{"ha":1376,"x_min":167,"x_max":1667,"o":"m 185 47 l 210 114 l 1367 114 l 1340 47 l 185 47 m 219 139 l 243 201 l 1400 201 l 1376 139 l 219 139 m 432 693 l 444 726 l 1601 726 l 1589 693 l 432 693 m 442 786 l 419 813 l 1633 813 l 1624 786 l 442 786 m 1322 0 l 167 0 l 176 26 l 1332 26 l 1322 0 m 351 897 l 1667 897 l 1658 878 l 367 878 l 351 897 m 1033 232 l 1056 289 l 1433 289 l 1411 232 l 1033 232 m 256 232 l 276 289 l 653 289 l 631 232 l 256 232 m 1069 324 l 1089 376 l 1467 376 l 1446 324 l 1069 324 m 290 324 l 310 376 l 686 376 l 667 324 l 290 324 m 1104 417 l 1122 464 l 1500 464 l 1482 417 l 1104 417 m 325 417 l 343 464 l 719 464 l 701 417 l 325 417 m 1140 508 l 1157 551 l 1533 551 l 1517 508 l 1140 508 m 361 508 l 378 551 l 754 551 l 738 508 l 361 508 m 1176 601 l 1190 639 l 1568 639 l 1553 601 l 1176 601 m 397 601 l 411 639 l 788 639 l 774 601 l 397 601 m 1036 972 l 738 972 l 753 988 l 1053 988 l 1036 972 m 1200 972 l 1194 988 l 1492 988 l 1497 972 l 1200 972 m 833 1063 l 846 1075 l 1149 1075 l 1135 1063 l 833 1063 m 1171 1063 l 1167 1075 l 1464 1075 l 1468 1063 l 1171 1063 z "},"":{"ha":1376,"x_min":167,"x_max":1667,"o":"m 185 47 l 210 114 l 1367 114 l 1340 47 l 185 47 m 219 139 l 243 201 l 1400 201 l 1376 139 l 219 139 m 432 693 l 444 726 l 1601 726 l 1589 693 l 432 693 m 442 786 l 419 813 l 1633 813 l 1624 786 l 442 786 m 1322 0 l 167 0 l 176 26 l 1332 26 l 1322 0 m 351 897 l 1667 897 l 1658 878 l 367 878 l 351 897 m 1033 232 l 1056 289 l 1433 289 l 1411 232 l 1033 232 m 256 232 l 276 289 l 653 289 l 631 232 l 256 232 m 1069 324 l 1089 376 l 1467 376 l 1446 324 l 1069 324 m 290 324 l 310 376 l 686 376 l 667 324 l 290 324 m 1104 417 l 1122 464 l 1500 464 l 1482 417 l 1104 417 m 325 417 l 343 464 l 719 464 l 701 417 l 325 417 m 1140 508 l 1157 551 l 1533 551 l 1517 508 l 1140 508 m 361 508 l 378 551 l 754 551 l 738 508 l 361 508 m 1176 601 l 1190 639 l 1568 639 l 1553 601 l 1176 601 m 397 601 l 411 639 l 788 639 l 774 601 l 397 601 m 1497 972 l 1097 972 l 1092 988 l 1513 988 l 1497 972 m 933 972 l 635 972 l 650 988 l 950 988 l 933 972 m 731 1063 l 743 1075 l 1046 1075 l 1032 1063 l 731 1063 m 1292 1063 l 1306 1075 l 1606 1075 l 1593 1063 l 1292 1063 m 1068 1063 l 1064 1075 l 1240 1075 l 1244 1063 l 1068 1063 z "},"":{"ha":1376,"x_min":167,"x_max":1667,"o":"m 185 47 l 210 114 l 1367 114 l 1340 47 l 185 47 m 219 139 l 243 201 l 1400 201 l 1376 139 l 219 139 m 432 693 l 444 726 l 1601 726 l 1589 693 l 432 693 m 442 786 l 419 813 l 1633 813 l 1624 786 l 442 786 m 1322 0 l 167 0 l 176 26 l 1332 26 l 1322 0 m 351 897 l 1667 897 l 1658 878 l 367 878 l 351 897 m 1033 232 l 1056 289 l 1433 289 l 1411 232 l 1033 232 m 256 232 l 276 289 l 653 289 l 631 232 l 256 232 m 1069 324 l 1089 376 l 1467 376 l 1446 324 l 1069 324 m 290 324 l 310 376 l 686 376 l 667 324 l 290 324 m 1104 417 l 1122 464 l 1500 464 l 1482 417 l 1104 417 m 325 417 l 343 464 l 719 464 l 701 417 l 325 417 m 1140 508 l 1157 551 l 1533 551 l 1517 508 l 1140 508 m 361 508 l 378 551 l 754 551 l 738 508 l 361 508 m 1176 601 l 1190 639 l 1568 639 l 1553 601 l 1176 601 m 397 601 l 411 639 l 788 639 l 774 601 l 397 601 m 1199 972 l 1204 988 l 1503 988 l 1497 972 l 1199 972 m 738 972 l 743 988 l 1042 988 l 1036 972 l 738 972 m 771 1063 l 776 1075 l 1075 1075 l 1069 1063 l 771 1063 m 1232 1063 l 1238 1075 l 1536 1075 l 1531 1063 l 1232 1063 z "},"":{"ha":879,"x_min":185,"x_max":1085,"o":"m 215 417 l 233 464 l 1051 464 l 1033 417 l 215 417 m 250 508 l 267 551 l 1085 551 l 1068 508 l 250 508 m 1003 338 l 185 338 l 200 376 l 1018 376 l 1003 338 m 364 139 l 388 201 l 686 201 l 663 139 l 364 139 m 574 693 l 588 726 l 886 726 l 872 693 l 574 693 m 708 261 l 697 232 l 399 232 l 410 261 l 708 261 m 344 89 l 354 114 l 653 114 l 643 89 l 344 89 m 917 806 l 908 786 l 610 786 l 618 806 l 917 806 m 551 633 l 553 639 l 851 639 l 850 633 l 551 633 z "},"":{"ha":1376,"x_min":167,"x_max":1667,"o":"m 185 47 l 210 114 l 1367 114 l 1340 47 l 185 47 m 219 139 l 243 201 l 1400 201 l 1376 139 l 219 139 m 432 693 l 444 726 l 1601 726 l 1589 693 l 432 693 m 290 324 l 310 376 l 1010 376 l 944 324 l 290 324 m 325 417 l 343 464 l 721 464 l 708 429 l 751 464 l 1119 464 l 1060 417 l 325 417 m 256 232 l 276 289 l 900 289 l 829 232 l 256 232 m 442 786 l 419 813 l 1633 813 l 1624 786 l 442 786 m 1322 0 l 167 0 l 176 26 l 1332 26 l 1322 0 m 806 508 l 860 551 l 1533 551 l 1517 508 l 806 508 m 351 897 l 1667 897 l 1658 878 l 367 878 l 351 897 m 921 601 l 968 639 l 1568 639 l 1553 601 l 921 601 m 1033 232 l 1056 289 l 1433 289 l 1411 232 l 1033 232 m 1069 324 l 1089 376 l 1467 376 l 1446 324 l 1069 324 m 1104 417 l 1124 464 l 1500 464 l 1482 417 l 1104 417 m 361 508 l 378 551 l 754 551 l 738 508 l 361 508 m 397 601 l 411 639 l 788 639 l 774 601 l 397 601 z "},"":{"ha":1376,"x_min":167,"x_max":1667,"o":"m 185 47 l 210 114 l 1367 114 l 1340 47 l 185 47 m 219 139 l 243 201 l 1400 201 l 1376 139 l 219 139 m 1322 0 l 167 0 l 176 26 l 1332 26 l 1322 0 m 1033 232 l 1056 289 l 1433 289 l 1411 232 l 1033 232 m 256 232 l 276 289 l 653 289 l 631 232 l 256 232 m 1069 324 l 1089 376 l 1467 376 l 1446 324 l 1069 324 m 290 324 l 310 376 l 686 376 l 667 324 l 290 324 m 1104 417 l 1122 464 l 1500 464 l 1482 417 l 1104 417 m 325 417 l 343 464 l 719 464 l 701 417 l 325 417 m 1140 508 l 1157 551 l 1533 551 l 1517 508 l 1140 508 m 361 508 l 378 551 l 754 551 l 738 508 l 361 508 m 1176 601 l 1190 639 l 1568 639 l 1553 601 l 1176 601 m 397 601 l 411 639 l 788 639 l 774 601 l 397 601 m 1211 693 l 1224 726 l 1601 726 l 1589 693 l 1211 693 m 432 693 l 444 726 l 821 726 l 808 693 l 432 693 m 442 786 l 419 813 l 854 813 l 844 786 l 442 786 m 888 897 l 879 878 l 367 878 l 351 897 l 888 897 m 1247 786 l 1257 813 l 1633 813 l 1624 786 l 1247 786 m 1667 897 l 1658 878 l 1282 878 l 1290 897 l 1667 897 m 1019 972 l 1014 988 l 1313 988 l 1318 972 l 1019 972 m 989 1063 l 985 1075 l 1286 1075 l 1290 1063 l 989 1063 z "},"":{"ha":1376,"x_min":167,"x_max":1667,"o":"m 185 47 l 210 114 l 1367 114 l 1340 47 l 185 47 m 219 139 l 243 201 l 1400 201 l 1376 139 l 219 139 m 167 0 l 176 26 l 1332 26 l 1322 0 l 167 0 m 1033 232 l 1056 289 l 1433 289 l 1411 232 l 1033 232 m 256 232 l 276 289 l 653 289 l 631 232 l 256 232 m 1069 324 l 1089 376 l 1467 376 l 1446 324 l 1069 324 m 290 324 l 310 376 l 686 376 l 667 324 l 290 324 m 1104 417 l 1122 464 l 1500 464 l 1482 417 l 1104 417 m 325 417 l 343 464 l 719 464 l 701 417 l 325 417 m 1140 508 l 1157 551 l 1533 551 l 1517 508 l 1140 508 m 361 508 l 378 551 l 754 551 l 738 508 l 361 508 m 1176 601 l 1190 639 l 1568 639 l 1553 601 l 1176 601 m 397 601 l 411 639 l 788 639 l 774 601 l 397 601 m 1211 693 l 1224 726 l 1601 726 l 1589 693 l 1211 693 m 432 693 l 444 726 l 821 726 l 808 693 l 432 693 m 442 786 l 419 813 l 854 813 l 844 786 l 442 786 m 351 897 l 888 897 l 879 878 l 367 878 l 351 897 m 1247 786 l 1257 813 l 1633 813 l 1624 786 l 1247 786 m 1282 878 l 1290 897 l 1667 897 l 1658 878 l 1282 878 m 1208 972 l 910 972 l 925 988 l 1225 988 l 1208 972 m 1006 1063 l 1018 1075 l 1321 1075 l 1307 1063 l 1006 1063 z "},"":{"ha":1376,"x_min":167,"x_max":1667,"o":"m 185 47 l 210 114 l 1367 114 l 1340 47 l 185 47 m 219 139 l 243 201 l 1400 201 l 1376 139 l 219 139 m 167 0 l 176 26 l 1332 26 l 1322 0 l 167 0 m 1033 232 l 1056 289 l 1433 289 l 1411 232 l 1033 232 m 256 232 l 276 289 l 653 289 l 631 232 l 256 232 m 1069 324 l 1089 376 l 1467 376 l 1446 324 l 1069 324 m 290 324 l 310 376 l 686 376 l 667 324 l 290 324 m 1104 417 l 1122 464 l 1500 464 l 1482 417 l 1104 417 m 325 417 l 343 464 l 719 464 l 701 417 l 325 417 m 1140 508 l 1157 551 l 1533 551 l 1517 508 l 1140 508 m 361 508 l 378 551 l 754 551 l 738 508 l 361 508 m 1176 601 l 1190 639 l 1568 639 l 1553 601 l 1176 601 m 397 601 l 411 639 l 788 639 l 774 601 l 397 601 m 1211 693 l 1224 726 l 1601 726 l 1589 693 l 1211 693 m 432 693 l 444 726 l 821 726 l 808 693 l 432 693 m 442 786 l 419 813 l 854 813 l 844 786 l 442 786 m 351 897 l 888 897 l 879 878 l 367 878 l 351 897 m 1247 786 l 1257 813 l 1633 813 l 1624 786 l 1247 786 m 1282 878 l 1290 897 l 1667 897 l 1658 878 l 1282 878 m 1036 972 l 738 972 l 753 988 l 1053 988 l 1036 972 m 1200 972 l 1194 988 l 1492 988 l 1497 972 l 1200 972 m 833 1063 l 846 1075 l 1149 1075 l 1135 1063 l 833 1063 m 1171 1063 l 1167 1075 l 1464 1075 l 1468 1063 l 1171 1063 z "},"":{"ha":1376,"x_min":167,"x_max":1667,"o":"m 185 47 l 210 114 l 1367 114 l 1340 47 l 185 47 m 219 139 l 243 201 l 1400 201 l 1376 139 l 219 139 m 1322 0 l 167 0 l 176 26 l 1332 26 l 1322 0 m 1033 232 l 1056 289 l 1433 289 l 1411 232 l 1033 232 m 256 232 l 276 289 l 653 289 l 631 232 l 256 232 m 1069 324 l 1089 376 l 1467 376 l 1446 324 l 1069 324 m 290 324 l 310 376 l 686 376 l 667 324 l 290 324 m 1104 417 l 1122 464 l 1500 464 l 1482 417 l 1104 417 m 325 417 l 343 464 l 719 464 l 701 417 l 325 417 m 1140 508 l 1157 551 l 1533 551 l 1517 508 l 1140 508 m 361 508 l 378 551 l 754 551 l 738 508 l 361 508 m 1176 601 l 1190 639 l 1568 639 l 1553 601 l 1176 601 m 397 601 l 411 639 l 788 639 l 774 601 l 397 601 m 1211 693 l 1224 726 l 1601 726 l 1589 693 l 1211 693 m 432 693 l 444 726 l 821 726 l 808 693 l 432 693 m 442 786 l 419 813 l 854 813 l 844 786 l 442 786 m 888 897 l 879 878 l 367 878 l 351 897 l 888 897 m 1247 786 l 1257 813 l 1633 813 l 1624 786 l 1247 786 m 1667 897 l 1658 878 l 1282 878 l 1290 897 l 1667 897 m 1199 972 l 1204 988 l 1503 988 l 1497 972 l 1199 972 m 738 972 l 743 988 l 1042 988 l 1036 972 l 738 972 m 1232 1063 l 1238 1075 l 1536 1075 l 1531 1063 l 1232 1063 m 771 1063 l 776 1075 l 1075 1075 l 1069 1063 l 771 1063 z "},"":{"ha":1376,"x_min":351,"x_max":1667,"o":"m 486 508 l 449 551 l 1464 551 l 1393 508 l 486 508 m 567 417 l 525 464 l 1319 464 l 1242 417 l 567 417 m 649 324 l 603 376 l 1175 376 l 1088 324 l 649 324 m 574 47 l 600 114 l 976 114 l 950 47 l 574 47 m 610 139 l 633 201 l 1010 201 l 986 139 l 610 139 m 644 232 l 667 289 l 1043 289 l 1021 232 l 644 232 m 1556 607 l 1546 601 l 1026 601 l 1086 639 l 1568 639 l 1556 607 m 404 601 l 400 607 l 413 639 l 893 639 l 924 601 l 404 601 m 1172 693 l 1224 725 l 1224 726 l 1601 726 l 1589 693 l 1172 693 m 432 693 l 444 726 l 821 726 l 821 725 l 847 693 l 432 693 m 442 786 l 419 813 l 854 813 l 844 786 l 442 786 m 888 897 l 879 878 l 367 878 l 351 897 l 888 897 m 1247 786 l 1257 813 l 1633 813 l 1624 786 l 1247 786 m 932 0 l 556 0 l 565 26 l 942 26 l 932 0 m 1667 897 l 1658 878 l 1282 878 l 1290 897 l 1667 897 m 1208 972 l 910 972 l 925 988 l 1225 988 l 1208 972 m 1006 1063 l 1018 1075 l 1321 1075 l 1307 1063 l 1006 1063 z "},"":{"ha":1375,"x_min":167,"x_max":1601,"o":"m 1378 146 l 599 146 l 596 139 l 219 139 l 243 201 l 1399 201 l 1378 146 m 256 232 l 276 289 l 1433 289 l 1411 232 l 256 232 m 685 368 l 1088 368 l 1090 376 l 1467 376 l 1446 324 l 290 324 l 310 376 l 688 376 l 685 368 m 397 601 l 411 639 l 1568 639 l 1553 601 l 397 601 m 747 532 l 738 508 l 361 508 l 378 551 l 1533 551 l 1517 508 l 1140 508 l 1150 532 l 747 532 m 432 693 l 444 726 l 1601 726 l 1589 693 l 432 693 m 185 47 l 210 114 l 586 114 l 561 47 l 185 47 m 325 417 l 343 464 l 721 464 l 703 417 l 325 417 m 1106 417 l 1124 464 l 1500 464 l 1482 417 l 1106 417 m 442 786 l 419 813 l 854 813 l 844 786 l 442 786 m 351 897 l 888 897 l 879 878 l 367 878 l 351 897 m 543 0 l 167 0 l 176 26 l 553 26 l 543 0 z "},"":{"ha":1376,"x_min":351,"x_max":1667,"o":"m 486 508 l 449 551 l 1464 551 l 1393 508 l 486 508 m 567 417 l 525 464 l 1319 464 l 1242 417 l 567 417 m 649 324 l 603 376 l 1175 376 l 1088 324 l 649 324 m 574 47 l 600 114 l 976 114 l 950 47 l 574 47 m 610 139 l 633 201 l 1010 201 l 986 139 l 610 139 m 644 232 l 667 289 l 1043 289 l 1021 232 l 644 232 m 1556 607 l 1546 601 l 1026 601 l 1086 639 l 1568 639 l 1556 607 m 404 601 l 400 607 l 413 639 l 893 639 l 924 601 l 404 601 m 1172 693 l 1224 725 l 1224 726 l 1601 726 l 1589 693 l 1172 693 m 432 693 l 444 726 l 821 726 l 821 725 l 847 693 l 432 693 m 442 786 l 419 813 l 854 813 l 844 786 l 442 786 m 888 897 l 879 878 l 367 878 l 351 897 l 888 897 m 1247 786 l 1257 813 l 1633 813 l 1624 786 l 1247 786 m 932 0 l 556 0 l 565 26 l 942 26 l 932 0 m 1667 897 l 1658 878 l 1282 878 l 1290 897 l 1667 897 m 738 972 l 743 988 l 1042 988 l 1036 972 l 738 972 m 1199 972 l 1204 988 l 1503 988 l 1497 972 l 1199 972 m 1232 1063 l 1238 1075 l 1536 1075 l 1531 1063 l 1232 1063 m 771 1063 l 776 1075 l 1075 1075 l 1069 1063 l 771 1063 z "}}}
